<?xml version="1.0" encoding="UTF-8" standalone="no"?>
<!-- Created with Inkscape (http://www.inkscape.org/) -->

<svg
   xmlns:dc="http://purl.org/dc/elements/1.1/"
   xmlns:cc="http://creativecommons.org/ns#"
   xmlns:rdf="http://www.w3.org/1999/02/22-rdf-syntax-ns#"
   xmlns:svg="http://www.w3.org/2000/svg"
   xmlns="http://www.w3.org/2000/svg"
   xmlns:sodipodi="http://sodipodi.sourceforge.net/DTD/sodipodi-0.dtd"
   xmlns:inkscape="http://www.inkscape.org/namespaces/inkscape"
   width="61.579533mm"
   height="55.262562mm"
   viewBox="0 0 218.19519 195.81223"
   id="svg7079"
   version="1.1"
   inkscape:version="0.91 r13725"
   sodipodi:docname="cahsr.svg">
  <defs
     id="defs7081">
    <clipPath
       clipPathUnits="userSpaceOnUse"
       id="clipPath2648">
      <path
         d="M 0,0 612,0 612,792 0,792 0,0 Z"
         id="path2650"
         inkscape:connector-curvature="0" />
    </clipPath>
    <clipPath
       clipPathUnits="userSpaceOnUse"
       id="clipPath2632">
      <path
         d="M 0,0 612,0 612,792 0,792 0,0 Z"
         id="path2634"
         inkscape:connector-curvature="0" />
    </clipPath>
    <clipPath
       clipPathUnits="userSpaceOnUse"
       id="clipPath2586">
      <path
         d="M 0,0 612,0 612,792 0,792 0,0 Z"
         id="path2588"
         inkscape:connector-curvature="0" />
    </clipPath>
    <clipPath
       clipPathUnits="userSpaceOnUse"
       id="clipPath2564">
      <path
         d="M 0,0 612,0 612,792 0,792 0,0 Z"
         id="path2566"
         inkscape:connector-curvature="0" />
    </clipPath>
    <clipPath
       clipPathUnits="userSpaceOnUse"
       id="clipPath2534">
      <path
         d="M 0,0 612,0 612,792 0,792 0,0 Z"
         id="path2536"
         inkscape:connector-curvature="0" />
    </clipPath>
    <clipPath
       clipPathUnits="userSpaceOnUse"
       id="clipPath2492">
      <path
         d="m 33.93,732.414 37.085,0 0,37.086 -37.085,0 0,-37.086 z"
         id="path2494"
         inkscape:connector-curvature="0" />
    </clipPath>
    <clipPath
       clipPathUnits="userSpaceOnUse"
       id="clipPath2476">
      <path
         d="m 34.793,750.957 c 0,-9.766 7.914,-17.678 17.678,-17.678 l 0,0 c 9.765,0 17.68,7.912 17.68,17.678 l 0,0 c 0,9.765 -7.915,17.679 -17.68,17.679 l 0,0 c -9.764,0 -17.678,-7.914 -17.678,-17.679"
         id="path2478"
         inkscape:connector-curvature="0" />
    </clipPath>
    <clipPath
       clipPathUnits="userSpaceOnUse"
       id="clipPath2464">
      <path
         d="m 47.53,762.629 c -2.676,-1.165 -5.456,-3.502 -6.268,-5.103 l 0,0 c -0.362,-0.716 3.301,-1.827 3.922,-2.141 l 0,0 c 3.81,1.327 4.028,1.996 8.119,2.977 l 0,0 c 4.418,1.058 9.267,2.465 13.628,2.772 l 0,0 c -0.324,0.457 -0.668,0.9 -1.031,1.324 l 0,0 -15.233,1.061 c -1.243,-0.189 -1.938,-0.366 -3.137,-0.89"
         id="path2466"
         inkscape:connector-curvature="0" />
    </clipPath>
    <clipPath
       clipPathUnits="userSpaceOnUse"
       id="clipPath2436">
      <path
         d="m 34.793,750.957 c 0,-9.766 7.914,-17.678 17.678,-17.678 l 0,0 c 9.765,0 17.68,7.912 17.68,17.678 l 0,0 c 0,9.765 -7.915,17.679 -17.68,17.679 l 0,0 c -9.764,0 -17.678,-7.914 -17.678,-17.679"
         id="path2438"
         inkscape:connector-curvature="0" />
    </clipPath>
    <clipPath
       clipPathUnits="userSpaceOnUse"
       id="clipPath2424">
      <path
         d="M 0,0 612,0 612,792 0,792 0,0 Z"
         id="path2426"
         inkscape:connector-curvature="0" />
    </clipPath>
  </defs>
  <sodipodi:namedview
     id="base"
     pagecolor="#ffffff"
     bordercolor="#666666"
     borderopacity="1.0"
     inkscape:pageopacity="0.0"
     inkscape:pageshadow="2"
     inkscape:zoom="0.98994949"
     inkscape:cx="-96.755892"
     inkscape:cy="84.499079"
     inkscape:document-units="px"
     inkscape:current-layer="layer1"
     showgrid="false"
     fit-margin-bottom="5"
     fit-margin-right="5"
     fit-margin-top="5"
     fit-margin-left="5"
     inkscape:window-width="1436"
     inkscape:window-height="855"
     inkscape:window-x="4"
     inkscape:window-y="1"
     inkscape:window-maximized="1" />
  <metadata
     id="metadata7084">
    <rdf:RDF>
      <cc:Work
         rdf:about="">
        <dc:format>image/svg+xml</dc:format>
        <dc:type
           rdf:resource="http://purl.org/dc/dcmitype/StillImage" />
        <dc:title></dc:title>
      </cc:Work>
    </rdf:RDF>
  </metadata>
  <g
     inkscape:label="Layer 1"
     inkscape:groupmode="layer"
     id="layer1"
     transform="translate(-306.17995,-264.4938)">
    <g
       id="g7879"
       transform="matrix(2.1164218,0,0,2.1164218,-208.46423,-550.73604)">
      <g
         id="g2420"
         transform="matrix(1.25,0,0,-1.25,227.60574,1355.4385)">
        <g
           clip-path="url(#clipPath2424)"
           id="g2422">
          <g
             transform="translate(34.7919,750.9562)"
             id="g2428">
            <path
               inkscape:connector-curvature="0"
               id="path2430"
               style="fill:#283e80;fill-opacity:1;fill-rule:nonzero;stroke:none"
               d="M 0,0 C 0,9.766 7.915,17.68 17.679,17.68 27.444,17.68 35.36,9.766 35.36,0 35.36,-9.765 27.444,-17.679 17.679,-17.679 7.915,-17.679 0,-9.765 0,0" />
          </g>
        </g>
      </g>
      <g
         id="g2432"
         transform="matrix(1.25,0,0,-1.25,227.60574,1355.4385)">
        <g
           clip-path="url(#clipPath2436)"
           id="g2434">
          <g
             transform="translate(45.6722,767.4299)"
             id="g2440">
            <path
               inkscape:connector-curvature="0"
               id="path2442"
               style="fill:#f8d310;fill-opacity:1;fill-rule:nonzero;stroke:none"
               d="m 0,0 c -4.453,-2.571 -5.046,-2.67 -8.509,-7.22 -2.848,-3.744 -2.374,-10.878 -2.374,-10.878 5.603,3.594 8.103,4.603 14.277,7.09 6.763,2.727 10.792,3.886 17.968,5.174 -3.561,3.856 -5.574,5.048 -10.189,6.428 C 6.848,1.889 4.252,1.508 0,0" />
          </g>
          <g
             transform="translate(36.708,742.3682)"
             id="g2444">
            <path
               inkscape:connector-curvature="0"
               id="path2446"
               style="fill:#ffffff;fill-opacity:1;fill-rule:nonzero;stroke:none"
               d="m 0,0 c 3.924,3.762 8.789,7.419 14.35,10.629 5.704,3.295 11.451,5.718 16.786,7.23 0.106,-0.177 0.209,-0.356 0.31,-0.537 C 25.684,15.182 19.437,11.76 13.388,7.202 9.073,3.948 5.283,0.44 2.143,-3.1 1.327,-2.147 0.607,-1.109 0,0" />
          </g>
          <g
             transform="translate(42.8349,735.8128)"
             id="g2448">
            <path
               inkscape:connector-curvature="0"
               id="path2450"
               style="fill:#ffffff;fill-opacity:1;fill-rule:nonzero;stroke:none"
               d="m 0,0 c 3.386,5.173 8.157,10.537 14.008,15.447 3.793,3.181 7.694,5.884 11.516,8.055 0.154,-0.293 0.299,-0.591 0.437,-0.89 C 21.821,19.755 17.621,16.137 13.649,11.881 9.506,7.436 6.075,2.791 3.471,-1.718 2.245,-1.269 1.083,-0.692 0,0" />
          </g>
          <g
             transform="translate(34.5502,749.9788)"
             id="g2452">
            <path
               inkscape:connector-curvature="0"
               id="path2454"
               style="fill:#ffffff;fill-opacity:1;fill-rule:nonzero;stroke:none"
               d="m 0,0 c 5.174,3.503 11.749,6.636 19.166,8.903 4.507,1.378 8.935,2.318 13.117,2.84 0.166,-0.219 0.323,-0.441 0.479,-0.666 C 27.492,10.102 21.777,8.333 16.014,5.769 10.093,3.133 4.83,-0.031 0.512,-3.401 0.238,-2.304 0.064,-1.168 0,0" />
          </g>
          <g
             transform="translate(67.2429,761.1543)"
             id="g2456">
            <path
               inkscape:connector-curvature="0"
               id="path2458"
               style="fill:#ffffff;fill-opacity:1;fill-rule:nonzero;stroke:none"
               d="m 0,0 c -4.439,-0.259 -9.416,-1.709 -13.939,-2.792 -4.091,-0.981 -4.31,-1.651 -8.12,-2.977 -0.62,0.314 -4.284,1.425 -3.922,2.14 0.813,1.6 3.592,3.939 6.268,5.104 1.199,0.522 1.894,0.7 3.137,0.889 L -0.857,1.269 C -0.515,0.862 -0.303,0.437 0,0" />
          </g>
        </g>
      </g>
      <g
         id="g2460"
         transform="matrix(1.25,0,0,-1.25,227.60574,1355.4385)">
        <g
           clip-path="url(#clipPath2464)"
           id="g2462">
          <g
             transform="translate(45.1273,761.7513)"
             id="g2468">
            <path
               inkscape:connector-curvature="0"
               id="path2470"
               style="fill:#283e80;fill-opacity:1;fill-rule:nonzero;stroke:none"
               d="M 0,0 C 0,0 1.503,0.997 2.565,1.055 3.676,1.114 5.255,0.206 5.255,0.206 L 5.194,-0.639 c 0,0 -1.498,-0.211 -2.456,-0.261 -1.024,-0.056 -1.459,0.316 -1.459,0.316 L 0,0 Z" />
          </g>
        </g>
      </g>
      <g
         id="g2472"
         transform="matrix(1.25,0,0,-1.25,227.60574,1355.4385)">
        <g
           clip-path="url(#clipPath2476)"
           id="g2474">
          <g
             transform="translate(58.9122,761.5974)"
             id="g2480">
            <path
               inkscape:connector-curvature="0"
               id="path2482"
               style="fill:#283e80;fill-opacity:1;fill-rule:nonzero;stroke:none"
               d="m 0,0 c 3.19,0.121 5.091,0.102 8.105,-0.099 l 0.034,-0.042 c -3.158,0.008 -5.123,-0.097 -8.427,-0.434 -2.732,-0.278 -4.269,-0.5 -6.971,-1.006 l 0.216,1.006 C -4.309,-0.231 -2.752,-0.105 0,0" />
          </g>
          <g
             transform="translate(42.8349,735.8128)"
             id="g2484">
            <path
               inkscape:connector-curvature="0"
               id="path2486"
               style="fill:#f8d310;fill-opacity:1;fill-rule:nonzero;stroke:none"
               d="m 0,0 c 3.386,5.173 8.157,10.537 14.008,15.447 3.793,3.181 7.694,5.884 11.516,8.055 0.154,-0.293 0.299,-0.591 0.437,-0.89 C 21.821,19.755 17.621,16.137 13.649,11.881 9.506,7.436 6.075,2.791 3.471,-1.718 2.245,-1.269 1.083,-0.692 0,0" />
          </g>
        </g>
      </g>
      <g
         style="fill:#283e80;fill-opacity:1"
         id="g2488"
         transform="matrix(1.25,0,0,-1.25,227.60574,1355.4385)">
        <g
           style="fill:#283e80;fill-opacity:1"
           clip-path="url(#clipPath2492)"
           id="g2490">
          <g
             style="fill:#283e80;fill-opacity:1"
             transform="translate(33.9295,750.9562)"
             id="g2496">
            <path
               inkscape:connector-curvature="0"
               id="path2498"
               style="fill:#283e80;fill-opacity:1;fill-rule:nonzero;stroke:none"
               d="M 0,0 C 0,10.243 8.302,18.541 18.542,18.544 28.784,18.541 37.084,10.243 37.086,0 37.084,-10.241 28.784,-18.542 18.542,-18.542 8.302,-18.542 0,-10.241 0,0 m 1.725,0 c 0,-4.647 1.882,-8.844 4.926,-11.892 3.046,-3.044 7.245,-4.925 11.891,-4.925 4.647,0 8.845,1.881 11.893,4.925 3.044,3.048 4.923,7.245 4.923,11.892 0,4.648 -1.879,8.844 -4.923,11.892 -3.048,3.044 -7.246,4.924 -11.893,4.926 C 13.896,16.816 9.697,14.936 6.651,11.892 3.607,8.844 1.725,4.648 1.725,0" />
          </g>
        </g>
      </g>
      <g
         transform="matrix(1.25,0,0,-1.25,283.54774,410.98762)"
         id="g2508">
        <path
           inkscape:connector-curvature="0"
           id="path2510"
           style="fill:#283e80;fill-opacity:1;fill-rule:nonzero;stroke:none"
           d="M 0,0 C 1.46,0.001 2.287,0.048 3.739,0.215 6.07,0.481 7.386,0.755 9.631,1.438 L 6.54,-0.072 C 5.476,-0.372 4.843,-0.47 3.739,-0.504 2.268,-0.547 1.406,-0.433 0,0" />
      </g>
    </g>
    <g
       id="g7913"
       transform="translate(13.010435,0)">
      <g
         style="fill:#283e80;fill-opacity:1"
         transform="matrix(1.25,0,0,-1.25,340.29549,399.10637)"
         id="g2512">
        <path
           inkscape:connector-curvature="0"
           id="path2514"
           style="fill:#283e80;fill-opacity:1;fill-rule:nonzero;stroke:none"
           d="m 0,0 c -1.233,1.096 -2.922,1.689 -4.543,1.689 -3.858,0 -6.803,-3.219 -6.803,-7.031 0,-3.767 2.922,-6.986 6.757,-6.986 1.69,0 3.311,0.639 4.589,1.781 l 0,-2.534 c -1.324,-0.777 -3.013,-1.211 -4.52,-1.211 -4.909,0 -8.972,3.904 -8.972,8.881 0,5.091 4.086,9.064 9.154,9.064 1.507,0 3.037,-0.366 4.338,-1.165 L 0,0 Z" />
      </g>
      <g
         style="fill:#283e80;fill-opacity:1"
         transform="matrix(1.25,0,0,-1.25,346.54611,411.12062)"
         id="g2516">
        <path
           inkscape:connector-curvature="0"
           id="path2518"
           style="fill:#283e80;fill-opacity:1;fill-rule:nonzero;stroke:none"
           d="m 0,0 -1.963,-4.315 -2.306,0 8.218,17.944 8.219,-17.944 -2.306,0 L 7.899,0 0,0 Z M 3.949,8.926 0.89,1.963 l 6.119,0 -3.06,6.963 z" />
      </g>
      <g
         style="fill:#283e80;fill-opacity:1"
         transform="matrix(1.25,0,0,-1.25,366.23749,414.05987)"
         id="g2520">
        <path
           inkscape:connector-curvature="0"
           id="path2522"
           style="fill:#283e80;fill-opacity:1;fill-rule:nonzero;stroke:none"
           d="m 0,0 5.228,0 0,-1.964 -7.374,0 0,17.214 L 0,15.25 0,0 Z" />
      </g>
      <path
         inkscape:connector-curvature="0"
         id="path2524"
         style="fill:#283e80;fill-opacity:1;fill-rule:nonzero;stroke:none"
         d="m 377.13949,416.51474 -2.6825,0 0,-21.5175 2.6825,0 0,21.5175 z" />
      <g
         style="fill:#283e80;fill-opacity:1"
         transform="matrix(1.25,0,0,-1.25,383.81711,397.45124)"
         id="g2526">
        <path
           inkscape:connector-curvature="0"
           id="path2528"
           style="fill:#283e80;fill-opacity:1;fill-rule:nonzero;stroke:none"
           d="m 0,0 0,-4.84 5.981,0 0,-1.963 -5.981,0 0,-8.447 -2.146,0 0,17.213 8.333,0 L 6.187,0 0,0 Z" />
      </g>
      <g
         style="fill:#283e80;fill-opacity:1"
         id="g2530"
         transform="matrix(1.25,0,0,-1.25,227.60574,1355.4385)">
        <g
           style="fill:#283e80;fill-opacity:1"
           clip-path="url(#clipPath2534)"
           id="g2532">
          <g
             style="fill:#283e80;fill-opacity:1"
             transform="translate(150.4935,759.7463)"
             id="g2538">
            <path
               inkscape:connector-curvature="0"
               id="path2540"
               style="fill:#283e80;fill-opacity:1;fill-rule:nonzero;stroke:none"
               d="m 0,0 c 0,-5.114 -4.041,-8.972 -9.018,-8.972 -4.977,0 -9.018,3.858 -9.018,8.972 0,4.931 4.087,8.972 9.018,8.972 C -4.087,8.972 0,4.931 0,0 m -2.146,0 c 0,3.79 -2.831,6.963 -6.872,6.963 -4.041,0 -6.872,-3.173 -6.872,-6.963 0,-3.927 3.151,-6.963 6.872,-6.963 3.721,0 6.872,3.036 6.872,6.963" />
          </g>
          <g
             style="fill:#283e80;fill-opacity:1"
             transform="translate(163.2785,751.1394)"
             id="g2542">
            <path
               inkscape:connector-curvature="0"
               id="path2544"
               style="fill:#283e80;fill-opacity:1;fill-rule:nonzero;stroke:none"
               d="m 0,0 -2.602,0 -5.069,7.283 -0.89,0 0,-7.283 -2.146,0 0,17.214 2.603,0 c 1.529,0 3.173,-0.023 4.543,-0.799 1.438,-0.845 2.26,-2.466 2.26,-4.11 0,-2.465 -1.644,-4.52 -4.132,-4.817 L 0,0 Z m -8.561,9.063 0.685,0 c 2.191,0 4.566,0.411 4.566,3.151 0,2.694 -2.557,3.082 -4.68,3.082 l -0.571,0 0,-6.233 z" />
          </g>
        </g>
      </g>
      <g
         style="fill:#283e80;fill-opacity:1"
         transform="matrix(1.25,0,0,-1.25,433.55974,393.96974)"
         id="g2546">
        <path
           inkscape:connector-curvature="0"
           id="path2548"
           style="fill:#283e80;fill-opacity:1;fill-rule:nonzero;stroke:none"
           d="m 0,0 12.922,-13.538 0,12.716 2.146,0 0,-17.921 -12.922,13.538 0,-12.831 -2.146,0 L 0,0 Z" />
      </g>
      <path
         inkscape:connector-curvature="0"
         id="path2550"
         style="fill:#283e80;fill-opacity:1;fill-rule:nonzero;stroke:none"
         d="m 458.81574,416.51474 -2.6825,0 0,-21.5175 2.6825,0 0,21.5175 z" />
      <g
         style="fill:#283e80;fill-opacity:1"
         transform="matrix(1.25,0,0,-1.25,465.89374,411.12062)"
         id="g2552">
        <path
           inkscape:connector-curvature="0"
           id="path2554"
           style="fill:#283e80;fill-opacity:1;fill-rule:nonzero;stroke:none"
           d="m 0,0 -1.963,-4.315 -2.306,0 8.218,17.944 8.219,-17.944 -2.305,0 L 7.899,0 0,0 Z M 3.949,8.926 0.89,1.963 l 6.119,0 -3.06,6.963 z" />
      </g>
    </g>
    <g
       id="g7935"
       transform="translate(-0.466,0)">
      <g
         style="fill:#283e80;fill-opacity:1"
         transform="matrix(1.25,0,0,-1.25,331.22374,430.81512)"
         id="g2556">
        <path
           inkscape:connector-curvature="0"
           id="path2558"
           style="fill:#283e80;fill-opacity:1;fill-rule:nonzero;stroke:none"
           d="m 0,0 0,3.891 1.926,0 0,-9.878 -1.926,0 0,4.415 -3.563,0 0,-4.415 -1.926,0 0,9.878 1.926,0 L -3.563,0 0,0 Z" />
      </g>
      <g
         style="fill:#283e80;fill-opacity:1"
         id="g2560"
         transform="matrix(1.25,0,0,-1.25,227.60574,1355.4385)">
        <g
           style="fill:#283e80;fill-opacity:1"
           clip-path="url(#clipPath2564)"
           id="g2562">
          <g
             style="fill:#283e80;fill-opacity:1"
             transform="translate(88.2771,742.8427)"
             id="g2568">
            <path
               inkscape:connector-curvature="0"
               id="path2570"
               style="fill:#283e80;fill-opacity:1;fill-rule:nonzero;stroke:none"
               d="m 0,0 c 0,-0.603 -0.485,-1.087 -1.087,-1.087 -0.603,0 -1.088,0.484 -1.088,1.087 0,0.589 0.485,1.087 1.088,1.087 C -0.485,1.087 0,0.589 0,0 m -0.17,-9.131 -1.834,0 0,6.432 1.834,0 0,-6.432 z" />
          </g>
          <g
             style="fill:#283e80;fill-opacity:1"
             transform="translate(95.547,734.1049)"
             id="g2572">
            <path
               inkscape:connector-curvature="0"
               id="path2574"
               style="fill:#283e80;fill-opacity:1;fill-rule:nonzero;stroke:none"
               d="m 0,0 c 0,-2.096 -0.707,-3.825 -3.118,-3.825 -1.572,0 -3.157,0.956 -3.249,2.672 l 1.939,0 c 0.092,-0.681 0.577,-1.126 1.271,-1.126 1.297,0 1.323,1.14 1.323,2.109 l 0,0.419 -0.026,0 c -0.393,-0.524 -1.074,-0.852 -1.756,-0.852 -1.886,0 -2.895,1.651 -2.895,3.38 0,1.769 1.074,3.472 2.987,3.472 0.642,0 1.297,-0.328 1.664,-0.825 l 0.026,0 0,0.615 L 0,6.039 0,0 Z m -1.611,2.817 c 0,0.864 -0.577,1.807 -1.52,1.807 -0.943,0 -1.52,-0.943 -1.52,-1.807 0,-0.865 0.577,-1.795 1.52,-1.795 0.943,0 1.52,0.93 1.52,1.795" />
          </g>
          <g
             style="fill:#283e80;fill-opacity:1"
             transform="translate(98.6897,744.8209)"
             id="g2576">
            <path
               inkscape:connector-curvature="0"
               id="path2578"
               style="fill:#283e80;fill-opacity:1;fill-rule:nonzero;stroke:none"
               d="m 0,0 0,-5.214 0.026,0 c 0.38,0.524 1.022,0.747 1.677,0.747 1.729,0 2.227,-1.219 2.227,-2.712 l 0,-3.93 -1.834,0 0,3.406 c 0,0.773 0.039,1.769 -0.996,1.769 -1.087,0 -1.1,-1.219 -1.1,-1.991 l 0,-3.184 -1.834,0 L -1.834,0 0,0 Z" />
          </g>
        </g>
      </g>
      <path
         inkscape:connector-curvature="0"
         id="path2580"
         style="fill:#283e80;fill-opacity:1;fill-rule:nonzero;stroke:none"
         d="m 361.39699,433.99224 -3.99625,0 0,-1.8825 3.99625,0 0,1.8825 z" />
      <g
         style="fill:#283e80;fill-opacity:1"
         id="g2582"
         transform="matrix(1.25,0,0,-1.25,227.60574,1355.4385)">
        <g
           style="fill:#283e80;fill-opacity:1"
           clip-path="url(#clipPath2586)"
           id="g2584">
          <g
             style="fill:#283e80;fill-opacity:1"
             transform="translate(112.9534,741.4147)"
             id="g2590">
            <path
               inkscape:connector-curvature="0"
               id="path2592"
               style="fill:#283e80;fill-opacity:1;fill-rule:nonzero;stroke:none"
               d="m 0,0 c -0.367,0.498 -0.838,0.812 -1.48,0.812 -0.616,0 -1.205,-0.471 -1.205,-1.113 0,-1.664 3.916,-0.97 3.916,-4.284 0,-1.978 -1.231,-3.38 -3.248,-3.38 -1.363,0 -2.358,0.786 -3.04,1.926 l 1.245,1.218 c 0.262,-0.759 0.956,-1.441 1.782,-1.441 0.786,0 1.27,0.669 1.27,1.428 0,1.022 -0.943,1.31 -1.716,1.611 -1.271,0.525 -2.201,1.166 -2.201,2.699 0,1.638 1.219,2.961 2.882,2.961 0.878,0 2.096,-0.433 2.699,-1.101 L 0,0 Z" />
          </g>
          <g
             style="fill:#283e80;fill-opacity:1"
             transform="translate(116.9738,739.5547)"
             id="g2594">
            <path
               inkscape:connector-curvature="0"
               id="path2596"
               style="fill:#283e80;fill-opacity:1;fill-rule:nonzero;stroke:none"
               d="m 0,0 c 0.419,0.498 1.1,0.799 1.781,0.799 1.821,0 2.935,-1.703 2.935,-3.393 0,-1.755 -1.074,-3.458 -2.974,-3.458 -0.655,0 -1.349,0.288 -1.716,0.812 l -0.026,0 0,-4.035 -1.834,0 0,9.865 L 0,0.59 0,0 Z m 2.856,-2.62 c 0,0.865 -0.577,1.795 -1.52,1.795 -0.943,0 -1.52,-0.93 -1.52,-1.795 0,-0.865 0.577,-1.808 1.52,-1.808 0.943,0 1.52,0.943 1.52,1.808" />
          </g>
          <g
             style="fill:#283e80;fill-opacity:1"
             transform="translate(124.0202,736.6332)"
             id="g2598">
            <path
               inkscape:connector-curvature="0"
               id="path2600"
               style="fill:#283e80;fill-opacity:1;fill-rule:nonzero;stroke:none"
               d="m 0,0 c 0,-0.812 0.314,-1.729 1.271,-1.729 0.602,0 0.982,0.367 1.231,0.878 l 1.69,-0.275 C 3.747,-2.41 2.62,-3.131 1.271,-3.131 c -1.991,0 -3.21,1.415 -3.21,3.367 0,1.952 1.035,3.484 3.118,3.484 2.109,0 3.052,-1.559 3.052,-3.497 L 4.231,0 0,0 Z M 2.502,1.14 C 2.41,1.795 1.991,2.437 1.284,2.437 0.55,2.437 0.144,1.808 0.052,1.14 l 2.45,0 z" />
          </g>
          <g
             style="fill:#283e80;fill-opacity:1"
             transform="translate(130.582,736.6332)"
             id="g2602">
            <path
               inkscape:connector-curvature="0"
               id="path2604"
               style="fill:#283e80;fill-opacity:1;fill-rule:nonzero;stroke:none"
               d="m 0,0 c 0,-0.812 0.315,-1.729 1.271,-1.729 0.602,0 0.982,0.367 1.231,0.878 l 1.69,-0.275 C 3.747,-2.41 2.62,-3.131 1.271,-3.131 c -1.992,0 -3.21,1.415 -3.21,3.367 0,1.952 1.035,3.484 3.118,3.484 2.109,0 3.053,-1.559 3.053,-3.497 L 4.232,0 0,0 Z M 2.502,1.14 C 2.41,1.795 1.991,2.437 1.284,2.437 0.55,2.437 0.144,1.808 0.053,1.14 l 2.449,0 z" />
          </g>
          <g
             style="fill:#283e80;fill-opacity:1"
             transform="translate(139.9212,734.3146)"
             id="g2606">
            <path
               inkscape:connector-curvature="0"
               id="path2608"
               style="fill:#283e80;fill-opacity:1;fill-rule:nonzero;stroke:none"
               d="m 0,0 -0.026,0 c -0.38,-0.524 -1.061,-0.812 -1.729,-0.812 -1.887,0 -2.961,1.716 -2.961,3.458 0,1.703 1.087,3.393 2.934,3.393 0.669,0 1.35,-0.288 1.756,-0.799 l 0.026,0 0,5.266 1.834,0 0,-11.109 L 0,-0.603 0,0 Z m 0.184,2.62 c 0,0.865 -0.577,1.795 -1.52,1.795 -0.943,0 -1.52,-0.93 -1.52,-1.795 0,-0.865 0.577,-1.808 1.52,-1.808 0.943,0 1.52,0.943 1.52,1.808" />
          </g>
          <g
             style="fill:#283e80;fill-opacity:1"
             transform="translate(153.5823,733.712)"
             id="g2610">
            <path
               inkscape:connector-curvature="0"
               id="path2612"
               style="fill:#283e80;fill-opacity:1;fill-rule:nonzero;stroke:none"
               d="m 0,0 -2.332,0 -2.397,3.982 -0.026,0 0,-3.982 -1.926,0 0,9.877 2.607,0 c 1.952,0 3.301,-0.864 3.301,-2.973 0,-1.258 -0.694,-2.515 -2.018,-2.738 L 0,0 Z m -4.755,5.332 0.248,0 c 1.062,0 1.808,0.314 1.808,1.519 0,1.218 -0.772,1.454 -1.794,1.454 l -0.262,0 0,-2.973 z" />
          </g>
          <g
             style="fill:#283e80;fill-opacity:1"
             transform="translate(160.2359,733.712)"
             id="g2614">
            <path
               inkscape:connector-curvature="0"
               id="path2616"
               style="fill:#283e80;fill-opacity:1;fill-rule:nonzero;stroke:none"
               d="m 0,0 -1.808,0 0,0.59 -0.026,0 c -0.393,-0.511 -1.074,-0.8 -1.742,-0.8 -1.886,0 -2.961,1.717 -2.961,3.459 0,1.703 1.088,3.393 2.935,3.393 0.668,0 1.349,-0.288 1.794,-0.812 l 0,0.602 L 0,6.432 0,0 Z m -1.624,3.223 c 0,0.864 -0.59,1.794 -1.533,1.794 -0.943,0 -1.52,-0.93 -1.52,-1.794 0,-0.865 0.577,-1.808 1.52,-1.808 0.943,0 1.533,0.943 1.533,1.808" />
          </g>
          <g
             style="fill:#283e80;fill-opacity:1"
             transform="translate(163.6537,742.8427)"
             id="g2618">
            <path
               inkscape:connector-curvature="0"
               id="path2620"
               style="fill:#283e80;fill-opacity:1;fill-rule:nonzero;stroke:none"
               d="m 0,0 c 0,-0.603 -0.485,-1.087 -1.087,-1.087 -0.603,0 -1.088,0.484 -1.088,1.087 0,0.589 0.485,1.087 1.088,1.087 C -0.485,1.087 0,0.589 0,0 m -0.17,-9.131 -1.834,0 0,6.432 1.834,0 0,-6.432 z" />
          </g>
        </g>
      </g>
      <path
         inkscape:connector-curvature="0"
         id="path2622"
         style="fill:#283e80;fill-opacity:1;fill-rule:nonzero;stroke:none"
         d="m 435.98699,438.29849 -2.2925,0 0,-13.88625 2.2925,0 0,13.88625 z" />
      <g
         style="fill:#283e80;fill-opacity:1"
         transform="matrix(1.25,0,0,-1.25,444.92661,435.69499)"
         id="g2624">
        <path
           inkscape:connector-curvature="0"
           id="path2626"
           style="fill:#283e80;fill-opacity:1;fill-rule:nonzero;stroke:none"
           d="m 0,0 -0.812,-2.083 -2.031,0 3.852,10.14 1.493,0 3.747,-10.14 -2.057,0 L 3.432,0 0,0 Z m 1.664,5.161 -0.027,0 -1.087,-3.589 2.345,0 -1.231,3.589 z" />
      </g>
      <g
         style="fill:#283e80;fill-opacity:1"
         id="g2628"
         transform="matrix(1.25,0,0,-1.25,227.60574,1355.4385)">
        <g
           style="fill:#283e80;fill-opacity:1"
           clip-path="url(#clipPath2632)"
           id="g2630">
          <g
             style="fill:#283e80;fill-opacity:1"
             transform="translate(182.4352,740.1442)"
             id="g2636">
            <path
               inkscape:connector-curvature="0"
               id="path2638"
               style="fill:#283e80;fill-opacity:1;fill-rule:nonzero;stroke:none"
               d="m 0,0 0,-3.485 c 0,-0.733 0.118,-1.611 1.048,-1.611 0.93,0 1.048,0.878 1.048,1.611 l 0,3.485 1.834,0 0,-3.786 c 0,-1.873 -0.969,-2.856 -2.882,-2.856 -1.913,0 -2.882,0.983 -2.882,2.856 L -1.834,0 0,0 Z" />
          </g>
        </g>
      </g>
      <g
         style="fill:#283e80;fill-opacity:1"
         transform="matrix(1.25,0,0,-1.25,464.73661,438.29849)"
         id="g2640">
        <path
           inkscape:connector-curvature="0"
           id="path2642"
           style="fill:#283e80;fill-opacity:1;fill-rule:nonzero;stroke:none"
           d="m 0,0 -1.834,0 0,4.886 -0.629,0 0,1.546 0.629,0 0,2.175 1.834,0 0,-2.175 1.126,0 0,-1.546 L 0,4.886 0,0 Z" />
      </g>
      <g
         style="fill:#283e80;fill-opacity:1"
         id="g2644"
         transform="matrix(1.25,0,0,-1.25,227.60574,1355.4385)">
        <g
           style="fill:#283e80;fill-opacity:1"
           clip-path="url(#clipPath2648)"
           id="g2646">
          <g
             style="fill:#283e80;fill-opacity:1"
             transform="translate(193.0707,744.8209)"
             id="g2652">
            <path
               inkscape:connector-curvature="0"
               id="path2654"
               style="fill:#283e80;fill-opacity:1;fill-rule:nonzero;stroke:none"
               d="m 0,0 0,-5.214 0.026,0 c 0.38,0.524 1.022,0.747 1.677,0.747 1.729,0 2.227,-1.219 2.227,-2.712 l 0,-3.93 -1.834,0 0,3.406 c 0,0.773 0.039,1.769 -0.996,1.769 -1.087,0 -1.1,-1.219 -1.1,-1.991 l 0,-3.184 -1.834,0 L -1.834,0 0,0 Z" />
          </g>
          <g
             style="fill:#283e80;fill-opacity:1"
             transform="translate(204.6233,736.9216)"
             id="g2656">
            <path
               inkscape:connector-curvature="0"
               id="path2658"
               style="fill:#283e80;fill-opacity:1;fill-rule:nonzero;stroke:none"
               d="m 0,0 c 0,-1.991 -1.362,-3.419 -3.38,-3.419 -2.017,0 -3.379,1.428 -3.379,3.419 0,2.004 1.375,3.432 3.379,3.432 C -1.375,3.432 0,2.004 0,0 m -4.899,0 c 0,-0.865 0.576,-1.795 1.519,-1.795 0.944,0 1.52,0.93 1.52,1.795 0,0.891 -0.576,1.808 -1.52,1.808 -0.943,0 -1.519,-0.917 -1.519,-1.808" />
          </g>
          <g
             style="fill:#283e80;fill-opacity:1"
             transform="translate(207.321,739.476)"
             id="g2660">
            <path
               inkscape:connector-curvature="0"
               id="path2662"
               style="fill:#283e80;fill-opacity:1;fill-rule:nonzero;stroke:none"
               d="m 0,0 0.026,0 c 0.367,0.563 0.917,0.878 1.598,0.878 0.263,0 0.524,-0.066 0.76,-0.158 L 2.161,-0.982 C 1.939,-0.825 1.677,-0.747 1.401,-0.747 0.131,-0.747 0,-1.873 0,-2.869 l 0,-2.895 -1.834,0 0,6.432 L 0,0.668 0,0 Z" />
          </g>
          <g
             style="fill:#283e80;fill-opacity:1"
             transform="translate(212.3895,742.8427)"
             id="g2664">
            <path
               inkscape:connector-curvature="0"
               id="path2666"
               style="fill:#283e80;fill-opacity:1;fill-rule:nonzero;stroke:none"
               d="m 0,0 c 0,-0.603 -0.485,-1.087 -1.087,-1.087 -0.603,0 -1.088,0.484 -1.088,1.087 0,0.589 0.485,1.087 1.088,1.087 C -0.485,1.087 0,0.589 0,0 m -0.17,-9.131 -1.834,0 0,6.432 1.834,0 0,-6.432 z" />
          </g>
        </g>
      </g>
      <g
         style="fill:#283e80;fill-opacity:1"
         transform="matrix(1.25,0,0,-1.25,497.18574,438.29849)"
         id="g2668">
        <path
           inkscape:connector-curvature="0"
           id="path2670"
           style="fill:#283e80;fill-opacity:1;fill-rule:nonzero;stroke:none"
           d="m 0,0 -1.834,0 0,4.886 -0.629,0 0,1.546 0.629,0 0,2.175 1.834,0 0,-2.175 1.126,0 0,-1.546 L 0,4.886 0,0 Z" />
      </g>
      <g
         style="fill:#283e80;fill-opacity:1"
         transform="matrix(1.25,0,0,-1.25,497.98711,430.25824)"
         id="g2672">
        <path
           inkscape:connector-curvature="0"
           id="path2674"
           style="fill:#283e80;fill-opacity:1;fill-rule:nonzero;stroke:none"
           d="M 0,0 2.083,0 3.616,-3.655 5.266,0 7.31,0 2.633,-9.865 0.616,-9.865 2.738,-5.45 0,0 Z" />
      </g>
    </g>
  </g>
</svg>
