<?xml version="1.0" encoding="utf-8"?>
<!-- Generator: Adobe Illustrator 25.2.0, SVG Export Plug-In . SVG Version: 6.00 Build 0)  -->
<svg version="1.1" id="Layer_1" xmlns="http://www.w3.org/2000/svg" xmlns:xlink="http://www.w3.org/1999/xlink" x="0px" y="0px"
	 viewBox="0 0 1000 700" style="enable-background:new 0 0 1000 700;" xml:space="preserve">
<style type="text/css">
	.st0{fill:none;stroke:#004676;stroke-width:2.0913;stroke-miterlimit:10;}
	.st1{fill:#F1F1F2;}
	.st2{filter:url(#Adobe_OpacityMaskFilter);}
	.st3{filter:url(#Adobe_OpacityMaskFilter_1_);}
	.st4{mask:url(#SVGID_1_);fill:url(#SVGID_2_);}
	.st5{fill:url(#SVGID_3_);}
	.st6{fill:#FFFFFF;}
	.st7{filter:url(#Adobe_OpacityMaskFilter_2_);}
	.st8{filter:url(#Adobe_OpacityMaskFilter_3_);}
	.st9{mask:url(#SVGID_4_);fill:url(#SVGID_5_);}
	.st10{fill:url(#SVGID_6_);}
	.st11{fill:#D71770;}
	.st12{fill:#00ADC6;}
	.st13{fill:#787677;}
	.st14{fill:#004676;}
	.st15{fill:#156684;}
	.st16{opacity:0.4;fill:#221F1F;}
	.st17{opacity:0.15;}
	.st18{filter:url(#Adobe_OpacityMaskFilter_4_);}
	.st19{filter:url(#Adobe_OpacityMaskFilter_5_);}
	.st20{mask:url(#SVGID_7_);fill:url(#SVGID_8_);}
	.st21{fill:url(#SVGID_9_);}
	.st22{fill:#F2F2F2;}
	.st23{clip-path:url(#SVGID_11_);}
	.st24{fill:#D0DFE8;}
</style>
<g>
	<circle class="st0" cx="509.2" cy="349.7" r="258.4"/>
	<line class="st0" x1="509.2" y1="91.3" x2="509.2" y2="608.2"/>
	<line class="st0" x1="767.6" y1="349.7" x2="250.8" y2="349.7"/>
	<line class="st0" x1="691.9" y1="167" x2="326.5" y2="532.5"/>
	<line class="st0" x1="326.5" y1="167" x2="691.9" y2="532.5"/>
</g>
<g>
	<g>
		<g>
			<circle class="st1" cx="509.7" cy="349.4" r="236.7"/>
		</g>
	</g>
	<defs>
		<filter id="Adobe_OpacityMaskFilter" filterUnits="userSpaceOnUse" x="272" y="358" width="475.6" height="247.7">
			<feFlood  style="flood-color:white;flood-opacity:1" result="back"/>
			<feBlend  in="SourceGraphic" in2="back" mode="normal"/>
		</filter>
	</defs>
	<mask maskUnits="userSpaceOnUse" x="272" y="358" width="475.6" height="247.7" id="SVGID_1_">
		<g class="st2">
			<defs>
				<filter id="Adobe_OpacityMaskFilter_1_" filterUnits="userSpaceOnUse" x="272" y="358" width="475.6" height="247.7">
					<feFlood  style="flood-color:white;flood-opacity:1" result="back"/>
					<feBlend  in="SourceGraphic" in2="back" mode="normal"/>
				</filter>
			</defs>
			<mask maskUnits="userSpaceOnUse" x="272" y="358" width="475.6" height="247.7" id="SVGID_1_">
				<g class="st3">
				</g>
			</mask>
			
				<radialGradient id="SVGID_2_" cx="1568.6833" cy="5036.0449" r="248.0466" gradientTransform="matrix(0.6779 0.6779 -0.6779 0.6779 2860.1477 -4109.2095)" gradientUnits="userSpaceOnUse">
				<stop  offset="0.9" style="stop-color:#FFFFFF"/>
				<stop  offset="0.9085" style="stop-color:#F6F6F6"/>
				<stop  offset="0.9223" style="stop-color:#DEDEDE"/>
				<stop  offset="0.9398" style="stop-color:#B6B6B6"/>
				<stop  offset="0.9603" style="stop-color:#7F7F7F"/>
				<stop  offset="0.983" style="stop-color:#393939"/>
				<stop  offset="1" style="stop-color:#000000"/>
			</radialGradient>
			<path class="st4" d="M747.3,358c-2.4,57.5-25.5,114.3-69.4,158.3c-92.9,92.9-243.4,92.9-336.3,0
				c-43.9-43.9-67.1-100.7-69.4-158.3c-2.7,64.1,20.5,129.1,69.4,178c92.9,92.9,243.4,92.9,336.3,0C726.8,487.1,750,422.1,747.3,358
				z"/>
		</g>
	</mask>
	
		<radialGradient id="SVGID_3_" cx="1568.6833" cy="5036.0449" r="248.0466" gradientTransform="matrix(0.6779 0.6779 -0.6779 0.6779 2860.1477 -4109.2095)" gradientUnits="userSpaceOnUse">
		<stop  offset="0.9" style="stop-color:#8C8C8C"/>
		<stop  offset="0.9153" style="stop-color:#959595"/>
		<stop  offset="0.9402" style="stop-color:#AEAEAE"/>
		<stop  offset="0.9714" style="stop-color:#D5D5D5"/>
		<stop  offset="1" style="stop-color:#FFFFFF"/>
	</radialGradient>
	<path class="st5" d="M747.3,358c-2.4,57.5-25.5,114.3-69.4,158.3c-92.9,92.9-243.4,92.9-336.3,0c-43.9-43.9-67.1-100.7-69.4-158.3
		c-2.7,64.1,20.5,129.1,69.4,178c92.9,92.9,243.4,92.9,336.3,0C726.8,487.1,750,422.1,747.3,358z"/>
</g>
<g>
	<g>
		<path class="st6" d="M443.4,349.2c0-36.2,29.3-65.5,65.5-65.5c17.9,0,34.2,7.2,46,18.9c-11.9-12-28.3-19.4-46.5-19.4
			c-36.2,0-65.5,29.3-65.5,65.5c0,18.2,7.4,34.7,19.4,46.5C450.6,383.4,443.4,367.2,443.4,349.2z"/>
		<defs>
			<filter id="Adobe_OpacityMaskFilter_2_" filterUnits="userSpaceOnUse" x="456.7" y="297.1" width="125" height="125">
				<feFlood  style="flood-color:white;flood-opacity:1" result="back"/>
				<feBlend  in="SourceGraphic" in2="back" mode="normal"/>
			</filter>
		</defs>
		<mask maskUnits="userSpaceOnUse" x="456.7" y="297.1" width="125" height="125" id="SVGID_4_">
			<g class="st7">
				<defs>
					<filter id="Adobe_OpacityMaskFilter_3_" filterUnits="userSpaceOnUse" x="456.7" y="297.1" width="125" height="125">
						<feFlood  style="flood-color:white;flood-opacity:1" result="back"/>
						<feBlend  in="SourceGraphic" in2="back" mode="normal"/>
					</filter>
				</defs>
				<mask maskUnits="userSpaceOnUse" x="456.7" y="297.1" width="125" height="125" id="SVGID_4_">
					<g class="st8">
					</g>
				</mask>
				
					<radialGradient id="SVGID_5_" cx="126.3274" cy="776.655" r="97.6863" gradientTransform="matrix(0.6398 0 0 0.6399 438.3714 -137.3321)" gradientUnits="userSpaceOnUse">
					<stop  offset="0.6" style="stop-color:#FFFFFF"/>
					<stop  offset="0.634" style="stop-color:#F6F6F6"/>
					<stop  offset="0.6894" style="stop-color:#DEDEDE"/>
					<stop  offset="0.7594" style="stop-color:#B6B6B6"/>
					<stop  offset="0.8412" style="stop-color:#7F7F7F"/>
					<stop  offset="0.9319" style="stop-color:#393939"/>
					<stop  offset="1" style="stop-color:#000000"/>
				</radialGradient>
				<ellipse class="st9" cx="519.2" cy="359.6" rx="62.5" ry="62.5"/>
			</g>
		</mask>
		
			<radialGradient id="SVGID_6_" cx="126.3274" cy="776.655" r="97.6863" gradientTransform="matrix(0.6398 0 0 0.6399 438.3714 -137.3321)" gradientUnits="userSpaceOnUse">
			<stop  offset="0.6" style="stop-color:#8C8C8C"/>
			<stop  offset="0.6611" style="stop-color:#959595"/>
			<stop  offset="0.7607" style="stop-color:#AEAEAE"/>
			<stop  offset="0.8856" style="stop-color:#D5D5D5"/>
			<stop  offset="1" style="stop-color:#FFFFFF"/>
		</radialGradient>
		<ellipse class="st10" cx="519.2" cy="359.6" rx="62.5" ry="62.5"/>
		<ellipse class="st1" cx="508.8" cy="349.1" rx="65.4" ry="65.4"/>
	</g>
	<g>
		<g>
			<g>
				<path class="st11" d="M526.1,356.2c2.1-5.1,2.1-11-0.5-16.3c-2.9-5.9-8.3-9.6-14.3-10.7l-1.3,2.2c5.6,0.7,10.7,4.1,13.4,9.5
					c0.4,0.9,0.8,1.8,1,2.7l-5.9-0.4"/>
			</g>
			<g>
				<path class="st12" d="M492.2,360.6c5.6,7.3,15.8,10,24.4,5.7c2.5-1.2,4.7-3,6.4-5l-1.3-2.2c-1.6,2.1-3.7,3.9-6.2,5.1
					c-3.8,1.8-7.9,2.2-11.7,1.3l3.3-4.9"/>
			</g>
			<g>
				<path class="st13" d="M505.4,329c-2.1,0.3-4.2,0.9-6.2,1.9c-9.1,4.5-13.2,15.1-9.8,24.4h2.6c-2.7-6.5-1.2-13.7,3.4-18.6l2.6,5.3
					"/>
			</g>
		</g>
		<g>
			<path class="st14" d="M473.8,382.8v-34.4h0c0.1-8.6,3.4-17.3,10-23.9c13.3-13.3,34.9-13.3,48.2,0c0.8,0.8,1.6,1.7,2.3,2.6
				l10.1-10.1c-8.8-10.2-21.9-16.7-36.5-16.7c-26.7,0-48.3,21.6-48.3,48.3C459.6,361.9,465,374,473.8,382.8z"/>
			<g>
				<path class="st14" d="M544.3,380.2l-10.1-10.1c-0.7,0.9-1.5,1.8-2.3,2.6c-12,12-30.9,13.2-44.2,3.4v16.4
					c6.1,2.8,12.9,4.4,20.1,4.4C522.4,396.9,535.5,390.4,544.3,380.2z"/>
			</g>
		</g>
	</g>
</g>
<g>
	<g>
		<path class="st12" d="M351,251.7c-29.2,47.3-34.4,102.7-19,151.9c0-0.3,13.8-75.7,89.8-115.9c65.6-34.7,121.5,4.1,121.5,4.1
			c31.3,19.3,41.1,60.4,21.8,91.7c-19.3,31.3-60.4,41.1-91.7,21.8c0,0,55.9,38.8,121.5,4.1c76-40.2,89.7-115.6,89.8-115.9
			c-12.8-41.1-39.9-77.9-79.5-102.3C518.3,137.8,404.5,164.8,351,251.7z"/>
		<path class="st15" d="M594.8,409.4c-65.6,34.7-121.5-4.1-121.5-4.1C442,386,432.2,345,451.5,313.6c19.3-31.3,60.4-41.1,91.7-21.8
			c0,0-55.9-38.8-121.5-4.1c-76,40.2-89.7,115.6-89.8,115.9c12.8,41.1,39.9,77.9,79.5,102.3c86.9,53.5,200.7,26.4,254.2-60.4
			c29.2-47.3,34.4-102.7,19-151.9C684.6,293.8,670.8,369.2,594.8,409.4z"/>
		<path class="st16" d="M575.9,332.5c-4.3-18-15.3-33.3-31.1-43.1c-0.8-0.5-7.5-5-18.6-9.5c-10.7-4.3-27.6-9.5-47.8-9.5
			c-20,0-39.5,5-58,14.8c-39.9,21.1-62.6,51.9-74.5,74.1c-7.3,13.5-11.6,25.3-14,33.3c0-0.1,0-0.2-0.1-0.3c-0.3,1.6-0.8,3.1-1.3,4.6
			c-0.1,0.3-0.1,0.6-0.2,0.9c0.5,1.9,1.1,3.9,1.7,5.8c0-0.3,13.8-75.7,89.8-115.9c20.3-10.7,39.6-14.4,56.7-14.4
			c38.1,0,64.8,18.5,64.8,18.5c31.3,19.3,41.1,60.4,21.8,91.7c-12.6,20.5-34.5,31.7-56.8,31.7c-11.9,0-24-3.2-34.9-9.9
			c0,0,6.6,4.5,17.8,9.1c1.3,0.4,2.6,0.8,3.9,1.3c0.7,0.2,1.3,0.4,2,0.6c1,0.2,2,0.4,3,0.7c1,0.2,2.1,0.4,3.1,0.6
			c0.2,0,0.3,0,0.5,0.1c1.5,0,3,0.1,4.4,0.2c1.1-0.1,2.2-0.1,3.4-0.1c0.8,0,1.5,0,2.3,0.1c22.1-1.7,41.9-13.7,53.7-32.9
			C577.2,369.2,580.2,350.6,575.9,332.5z"/>
		<path class="st16" d="M440.6,364.7c4.3,18,15.3,33.3,31.1,43.1c0.8,0.5,7.5,5,18.6,9.5c10.7,4.3,27.6,9.5,47.8,9.5
			c20,0,39.5-5,58-14.8c39.9-21.1,62.6-51.9,74.5-74.1c7.3-13.5,11.6-25.3,14-33.3c0,0.1,0.1,0.2,0.1,0.3c0.3-1.6,0.8-3.1,1.3-4.6
			c0.1-0.3,0.1-0.6,0.2-0.9c-0.5-1.9-1.1-3.9-1.7-5.8c0,0.3-13.8,75.7-89.8,115.9c-20.3,10.7-39.6,14.4-56.7,14.4
			c-38.1,0-64.8-18.5-64.8-18.5C442,386,432.2,345,451.5,313.6c12.6-20.5,34.5-31.7,56.8-31.7c11.9,0,24,3.2,34.9,9.9
			c0,0-6.6-4.5-17.8-9.1c-1.3-0.4-2.6-0.8-3.9-1.3c-0.7-0.2-1.3-0.4-2-0.6c-1-0.2-2-0.4-3-0.7c-1-0.2-2.1-0.4-3.1-0.6
			c-0.2,0-0.3,0-0.5-0.1c-1.5,0-3-0.1-4.4-0.2c-1.1,0.1-2.2,0.1-3.4,0.1c-0.8,0-1.5,0-2.3-0.1c-22.1,1.7-41.9,13.7-53.7,32.9
			C439.3,327.9,436.3,346.6,440.6,364.7z"/>
		<g class="st17">
			<g>
				<path d="M539.1,420.6c19.2,0,38-4.8,55.8-14.2c39.1-20.7,61.3-50.9,73.1-72.6c11-20.2,15.2-37,16.2-41.6
					c-13.4-42-41.5-77.8-79.1-100.9c-29.2-18-62.6-27.5-96.7-27.5c-64.7,0-123.6,32.9-157.5,87.9c-24.5,39.8-32.9,87.2-23.9,132.6
					c2.7-7.3,6.4-16.2,11.7-25.9c12.5-23.1,36.2-55.3,77.9-77.4c19.4-10.3,40-15.5,61-15.5c39.6,0,67.4,18.3,69.8,20
					c16.8,10.4,28.6,26.7,33.2,45.9c4.6,19.3,1.4,39.2-9,56.1c-10,16.2-25.4,27.7-43.2,32.6C531.7,420.4,535.3,420.6,539.1,420.6
					L539.1,420.6z"/>
				<path d="M421.7,290.8c-39.1,20.7-61.4,50.9-73.2,72.6c-10.9,20.1-15.2,36.9-16.2,41.6c13.4,42,41.5,77.8,79.1,100.9
					c29.2,18,62.6,27.5,96.7,27.5c64.7,0,123.6-32.9,157.5-87.9c24.5-39.8,32.9-87.1,24-132.6c-2.7,7.3-6.4,16.2-11.7,25.9
					c-12.5,23.1-36.2,55.3-77.8,77.4c-19.4,10.3-40,15.5-61,15.5c-39.6,0-67.4-18.3-69.8-20c-16.8-10.4-28.6-26.7-33.2-45.9
					c-4.6-19.3-1.4-39.2,9-56.1c10-16.3,25.4-27.7,43.2-32.6c-3.5-0.3-7.1-0.5-10.8-0.5C458.3,276.6,439.5,281.3,421.7,290.8z"/>
			</g>
		</g>
	</g>
	<defs>
		<filter id="Adobe_OpacityMaskFilter_4_" filterUnits="userSpaceOnUse" x="324.1" y="355.4" width="369.5" height="192.4">
			<feFlood  style="flood-color:white;flood-opacity:1" result="back"/>
			<feBlend  in="SourceGraphic" in2="back" mode="normal"/>
		</filter>
	</defs>
	<mask maskUnits="userSpaceOnUse" x="324.1" y="355.4" width="369.5" height="192.4" id="SVGID_7_">
		<g class="st18">
			<defs>
				<filter id="Adobe_OpacityMaskFilter_5_" filterUnits="userSpaceOnUse" x="324.1" y="355.4" width="369.5" height="192.4">
					<feFlood  style="flood-color:white;flood-opacity:1" result="back"/>
					<feBlend  in="SourceGraphic" in2="back" mode="normal"/>
				</filter>
			</defs>
			<mask maskUnits="userSpaceOnUse" x="324.1" y="355.4" width="369.5" height="192.4" id="SVGID_7_">
				<g class="st19">
				</g>
			</mask>
			
				<radialGradient id="SVGID_8_" cx="1564.4807" cy="5033.1729" r="192.724" gradientTransform="matrix(0.6779 0.6779 -0.6779 0.6779 2860.1477 -4109.2095)" gradientUnits="userSpaceOnUse">
				<stop  offset="0.9" style="stop-color:#FFFFFF"/>
				<stop  offset="0.9085" style="stop-color:#F6F6F6"/>
				<stop  offset="0.9223" style="stop-color:#DEDEDE"/>
				<stop  offset="0.9398" style="stop-color:#B6B6B6"/>
				<stop  offset="0.9603" style="stop-color:#7F7F7F"/>
				<stop  offset="0.983" style="stop-color:#393939"/>
				<stop  offset="1" style="stop-color:#000000"/>
			</radialGradient>
			<path class="st20" d="M693.4,355.4c-1.8,44.7-19.8,88.8-54,123c-72.2,72.2-189.1,72.2-261.3,0c-34.1-34.1-52.1-78.3-54-123
				c-2.1,49.8,15.9,100.3,54,138.3c72.2,72.2,189.1,72.2,261.3,0C677.5,455.7,695.5,405.2,693.4,355.4z"/>
		</g>
	</mask>
	
		<radialGradient id="SVGID_9_" cx="1564.4807" cy="5033.1729" r="192.724" gradientTransform="matrix(0.6779 0.6779 -0.6779 0.6779 2860.1477 -4109.2095)" gradientUnits="userSpaceOnUse">
		<stop  offset="0.9" style="stop-color:#8C8C8C"/>
		<stop  offset="0.9153" style="stop-color:#959595"/>
		<stop  offset="0.9402" style="stop-color:#AEAEAE"/>
		<stop  offset="0.9714" style="stop-color:#D5D5D5"/>
		<stop  offset="1" style="stop-color:#FFFFFF"/>
	</radialGradient>
	<path class="st21" d="M693.4,355.4c-1.8,44.7-19.8,88.8-54,123c-72.2,72.2-189.1,72.2-261.3,0c-34.1-34.1-52.1-78.3-54-123
		c-2.1,49.8,15.9,100.3,54,138.3c72.2,72.2,189.1,72.2,261.3,0C677.5,455.7,695.5,405.2,693.4,355.4z"/>
</g>
<g>
	<circle class="st14" cx="326.7" cy="167.4" r="6.7"/>
</g>
<g>
	<g>
		<g>
			<circle class="st14" cx="691.6" cy="167.4" r="6.7"/>
		</g>
		<g>
			<g>
				<path class="st14" d="M726.2,160.7c15,0,27.2-12.2,27.2-27.2c0-15-12.2-27.2-27.2-27.2c-15,0-27.2,12.2-27.2,27.2l0,26.5
					c0,0.4,0.3,0.8,0.8,0.8L726.2,160.7z"/>
				<g>
					<path d="M704.5,133.5c0-11.9,9.7-21.7,21.7-21.7c11.9,0,21.7,9.7,21.7,21.7c0,11.9-9.7,21.7-21.7,21.7
						C714.3,155.2,704.5,145.4,704.5,133.5L704.5,133.5z M747.2,133.5c0-11.6-9.4-20.9-20.9-20.9c-11.6,0-20.9,9.4-20.9,20.9
						c0,11.6,9.4,21,20.9,20.9C737.8,154.4,747.2,145.1,747.2,133.5z"/>
					<g>
						<path class="st22" d="M726.2,154.4c-11.6,0-20.9-9.4-20.9-20.9c0-11.6,9.4-20.9,20.9-20.9c11.6,0,20.9,9.4,20.9,20.9
							C747.2,145.1,737.8,154.4,726.2,154.4z"/>
					</g>
				</g>
			</g>
		</g>
	</g>
	<g id="Page-1_1_">
		<g id="_x30_34---Online-Reading_1_">
			<path id="Shape_1_" class="st14" d="M737.9,140.1C737.9,140.1,737.9,140.1,737.9,140.1c0.3-0.3,0.3-0.6,0.2-0.9l-3.1-8.7
				c-0.1-0.2-0.3-0.4-0.5-0.5c-0.3-0.1-0.5-0.2-0.8-0.3c0.3-1.9-0.1-3.8-1.1-5.4c0,0,0,0,0,0c0,0,0,0,0,0c-1.4-2.2-3.8-3.5-6.4-3.5
				s-5,1.3-6.4,3.5c0,0,0,0,0,0c0,0,0,0,0,0c-1,1.6-1.4,3.5-1.1,5.4c-0.3,0.1-0.5,0.2-0.8,0.3c-0.2,0.1-0.4,0.3-0.5,0.5l-3.1,8.7
				c-0.1,0.3,0,0.6,0.2,0.9c0,0,0,0,0,0l-1,2.7c-0.1,0.4-0.1,0.8,0.2,1.2c0.2,0.3,0.6,0.5,1,0.5h8.1c0.3,1,1.7,1.7,3.3,1.7
				s3-0.7,3.3-1.7h8.1c0.4,0,0.8-0.2,1-0.5s0.3-0.8,0.2-1.2L737.9,140.1z M726.6,135.1v-3.3c0.8,0,1.6,0.1,2.4,0.2
				C728.5,133.7,727.7,134.9,726.6,135.1z M722.8,128.4c0-0.9,0.1-1.8,0.3-2.7c0.9,0.1,1.8,0.2,2.7,0.2v5.1c-0.9,0-1.8,0.1-2.7,0.2
				C722.9,130.2,722.8,129.3,722.8,128.4z M729.6,128.4c0,0.9-0.1,1.8-0.3,2.7c-0.9-0.1-1.8-0.2-2.7-0.2v-5.1c0.9,0,1.8-0.1,2.7-0.2
				C729.5,126.6,729.6,127.5,729.6,128.4z M725.8,131.8v3.3c-1-0.3-1.9-1.5-2.4-3.2C724.2,131.9,725,131.8,725.8,131.8z M726.6,125
				v-3.3c1,0.3,1.9,1.5,2.4,3.2C728.3,124.9,727.5,125,726.6,125z M725.8,121.7v3.3c-0.8,0-1.6-0.1-2.4-0.2
				C723.9,123.1,724.8,121.9,725.8,121.7z M723.8,134.7c-1.2-0.4-2.2-1.2-3-2.2c0.5-0.2,1.1-0.3,1.7-0.4
				C722.8,133.1,723.2,134,723.8,134.7z M729.9,132.1c0.6,0.1,1.1,0.2,1.7,0.4c-0.8,1-1.8,1.8-3,2.2
				C729.2,134,729.7,133.1,729.9,132.1z M732.1,131.8c-0.6-0.2-1.3-0.4-1.9-0.5c0.2-0.9,0.3-1.9,0.3-2.9c0-1-0.1-1.9-0.3-2.9
				c0.7-0.1,1.3-0.3,1.9-0.5C733.3,127.1,733.3,129.7,732.1,131.8L732.1,131.8z M731.6,124.3c-0.5,0.2-1.1,0.3-1.7,0.4
				c-0.3-1-0.7-1.9-1.3-2.6C729.8,122.5,730.8,123.3,731.6,124.3L731.6,124.3z M723.8,122.1c-0.6,0.8-1.1,1.7-1.3,2.6
				c-0.6-0.1-1.1-0.2-1.7-0.4C721.6,123.3,722.6,122.5,723.8,122.1z M720.3,125c0.6,0.2,1.3,0.4,1.9,0.5c-0.4,1.9-0.4,3.9,0,5.8
				c-0.7,0.1-1.3,0.3-1.9,0.5C719.1,129.7,719.1,127.1,720.3,125L720.3,125z M718.2,130.7c0.2-0.1,0.5-0.2,0.7-0.2
				c0.2,0.7,0.5,1.4,0.9,2c0,0,0,0,0,0c0,0,0,0,0,0c1.4,2.2,3.8,3.5,6.4,3.5c2.6,0,5-1.3,6.4-3.4c0,0,0.1-0.1,0.1-0.1c0,0,0,0,0,0
				c0.4-0.6,0.7-1.3,0.9-2c0.2,0.1,0.5,0.1,0.7,0.2l3.1,8.7c-2.6-0.9-7.4-1.8-10.4,1.8c-0.1,0.1-0.2,0.2-0.3,0.4v-4.3
				c0-0.2-0.2-0.4-0.4-0.4s-0.4,0.2-0.4,0.4v4.3c-0.1-0.1-0.2-0.2-0.3-0.4c-1.3-1.5-4.4-3.8-10.4-1.8L718.2,130.7z M735.9,142h-8.4
				c0-0.1,0.1-0.1,0.1-0.2c1.2-1.5,3.5-2.9,7.5-2.1L735.9,142z M716.6,142l0.8-2.2c4-0.8,6.3,0.6,7.5,2.1c0,0.1,0.1,0.1,0.1,0.2
				H716.6z M714.4,143.5c-0.1-0.1-0.1-0.3-0.1-0.4l1-2.8h0c0.3-0.1,0.7-0.2,1-0.3l-0.8,2.3c0,0.1,0,0.3,0.1,0.4
				c0.1,0.1,0.2,0.2,0.3,0.2h7.2l-0.2,0.8h-8.2C714.6,143.7,714.5,143.6,714.4,143.5z M726.2,145.4c-1.5,0-2.5-0.6-2.5-1.2l0.3-1.3
				h1.5c0.1,0.2,0.2,0.4,0.3,0.6c0.1,0.2,0.2,0.3,0.4,0.3s0.3-0.1,0.4-0.3c0.1-0.2,0.2-0.4,0.3-0.6h1.5l0.3,1.3
				C728.7,144.7,727.7,145.4,726.2,145.4L726.2,145.4z M738,143.5c-0.1,0.1-0.2,0.2-0.3,0.2h-8.2l-0.2-0.8h7.2
				c0.1,0,0.3-0.1,0.3-0.2s0.1-0.3,0.1-0.4l-0.8-2.3c0.3,0.1,0.7,0.2,1,0.3h0l1,2.8C738.1,143.2,738.1,143.4,738,143.5L738,143.5z"
				/>
		</g>
	</g>
</g>
<g>
	<path class="st14" d="M766.5,114.9h4.4c1.5,0,2.2,0.1,2.8,0.4c1.4,0.6,2.3,1.9,2.3,3.8c0,1.7-0.9,3.2-2.3,3.8v0
		c0,0,0.2,0.2,0.5,0.7l2.8,5.1h-2.8l-2.7-5.1H769v5.1h-2.5V114.9z M771.2,121.3c1.3,0,2.2-0.8,2.2-2.2c0-1.3-0.6-2.1-2.5-2.1H769
		v4.3H771.2z"/>
	<path class="st14" d="M778.8,114.9h8.3v2.2h-5.7v3.6h4.6v2.2h-4.6v3.7h6.1v2.2h-8.6V114.9z"/>
	<path class="st14" d="M789.8,125.1c0,0,1.5,1.5,3.4,1.5c1,0,2-0.5,2-1.7c0-2.5-6.5-2-6.5-6.3c0-2.3,2-4,4.6-4
		c2.7,0,4.1,1.5,4.1,1.5l-1.1,2c0,0-1.3-1.2-3-1.2c-1.2,0-2.1,0.7-2.1,1.7c0,2.4,6.5,1.8,6.5,6.3c0,2.2-1.7,4-4.5,4
		c-3.1,0-4.8-1.9-4.8-1.9L789.8,125.1z"/>
	<path class="st14" d="M799.7,114.9h8.3v2.2h-5.7v3.6h4.6v2.2h-4.6v3.7h6.1v2.2h-8.6V114.9z"/>
	<path class="st14" d="M817.3,125.1h-4.8l-1.2,3.5h-2.6l4.9-13.8h2.6l4.9,13.8h-2.6L817.3,125.1z M814.8,117.3c0,0-0.3,1.4-0.6,2.1
		l-1.2,3.7h3.6l-1.2-3.7C815.2,118.6,814.9,117.3,814.8,117.3L814.8,117.3z"/>
	<path class="st14" d="M822.3,114.9h4.4c1.5,0,2.2,0.1,2.8,0.4c1.4,0.6,2.3,1.9,2.3,3.8c0,1.7-0.9,3.2-2.3,3.8v0
		c0,0,0.2,0.2,0.5,0.7l2.8,5.1h-2.8l-2.7-5.1h-2.4v5.1h-2.5V114.9z M827,121.3c1.3,0,2.2-0.8,2.2-2.2c0-1.3-0.6-2.1-2.5-2.1h-1.9
		v4.3H827z"/>
	<path class="st14" d="M840.6,114.6c3.4,0,5.1,1.9,5.1,1.9l-1.2,1.9c0,0-1.6-1.5-3.8-1.5c-2.9,0-4.6,2.2-4.6,4.7
		c0,2.6,1.8,4.9,4.6,4.9c2.4,0,4-1.7,4-1.7l1.3,1.8c0,0-1.9,2.2-5.4,2.2c-4.2,0-7.1-3.1-7.1-7.2
		C833.6,117.7,836.6,114.6,840.6,114.6z"/>
	<path class="st14" d="M847.9,114.9h2.5v5.8h6.3v-5.8h2.5v13.8h-2.5v-5.8h-6.3v5.8h-2.5V114.9z"/>
	<path class="st14" d="M772.6,137.9c4.1,0,7.1,3.1,7.1,7c0,4.1-3.1,7.2-7.1,7.2s-7.1-3.2-7.1-7.2C765.5,141,768.6,137.9,772.6,137.9
		z M772.6,149.9c2.5,0,4.5-2.1,4.5-4.9c0-2.7-2-4.7-4.5-4.7s-4.5,2-4.5,4.7C768.1,147.8,770.1,149.9,772.6,149.9z"/>
	<path class="st14" d="M781.8,138.2h2.5l5.2,8c0.5,0.8,1.1,2.1,1.1,2.1h0c0,0-0.1-1.3-0.1-2.1v-8h2.5V152h-2.5l-5.2-7.9
		c-0.5-0.8-1.1-2.1-1.1-2.1h0c0,0,0.1,1.3,0.1,2.1v7.9h-2.5V138.2z"/>
	<path class="st14" d="M795.7,145.3h5.8v2.2h-5.8V145.3z"/>
	<path class="st14" d="M804.1,138.2h4.7c4.3,0,7,2.5,7,6.9c0,4.4-2.8,6.9-7,6.9h-4.7V138.2z M808.6,149.8c2.8,0,4.6-1.7,4.6-4.8
		c0-3.1-1.8-4.7-4.6-4.7h-2.1v9.5H808.6z"/>
	<path class="st14" d="M817.9,138.2h8.3v2.2h-5.7v3.6h4.6v2.2h-4.6v3.7h6.1v2.2h-8.6V138.2z"/>
	<path class="st14" d="M829.3,138.2h2.7l2.7,6.8c0.3,0.8,0.7,2,0.7,2h0c0,0,0.4-1.2,0.7-2l2.7-6.8h2.7l1.1,13.8h-2.5l-0.6-7.7
		c-0.1-0.9,0-2.1,0-2.1h0c0,0-0.4,1.3-0.7,2.1l-2.2,5.3h-2.2l-2.2-5.3c-0.3-0.8-0.8-2.2-0.8-2.2h0c0,0,0,1.2,0,2.2l-0.6,7.7h-2.5
		L829.3,138.2z"/>
	<path class="st14" d="M852,148.4h-4.8L846,152h-2.6l4.9-13.8h2.6l4.9,13.8h-2.6L852,148.4z M849.6,140.6c0,0-0.3,1.4-0.6,2.1
		l-1.2,3.7h3.6l-1.2-3.7C849.9,141.9,849.7,140.6,849.6,140.6L849.6,140.6z"/>
	<path class="st14" d="M857.1,138.2h2.5l5.2,8c0.5,0.8,1.1,2.1,1.1,2.1h0c0,0-0.1-1.3-0.1-2.1v-8h2.5V152h-2.5l-5.2-7.9
		c-0.5-0.8-1.1-2.1-1.1-2.1h0c0,0,0.1,1.3,0.1,2.1v7.9h-2.5V138.2z"/>
	<path class="st14" d="M871.3,138.2h4.7c4.3,0,7,2.5,7,6.9c0,4.4-2.8,6.9-7,6.9h-4.7V138.2z M875.9,149.8c2.8,0,4.6-1.7,4.6-4.8
		c0-3.1-1.8-4.7-4.6-4.7h-2.1v9.5H875.9z"/>
</g>
<g>
	<path class="st14" d="M74.7,114.9h4.4c1.5,0,2.2,0.1,2.8,0.4c1.4,0.6,2.3,1.9,2.3,3.8c0,1.7-0.9,3.2-2.3,3.8v0c0,0,0.2,0.2,0.5,0.7
		l2.8,5.1h-2.8l-2.7-5.1h-2.4v5.1h-2.5V114.9z M79.5,121.3c1.3,0,2.2-0.8,2.2-2.2c0-1.3-0.6-2.1-2.5-2.1h-1.9v4.3H79.5z"/>
	<path class="st14" d="M87,114.9h2.5v13.8H87V114.9z"/>
	<path class="st14" d="M92.8,125.1c0,0,1.5,1.5,3.4,1.5c1,0,2-0.5,2-1.7c0-2.5-6.5-2-6.5-6.3c0-2.3,2-4,4.6-4c2.7,0,4.1,1.5,4.1,1.5
		l-1.1,2c0,0-1.3-1.2-3-1.2c-1.2,0-2.1,0.7-2.1,1.7c0,2.4,6.5,1.8,6.5,6.3c0,2.2-1.7,4-4.5,4c-3.1,0-4.8-1.9-4.8-1.9L92.8,125.1z"/>
	<path class="st14" d="M102.8,114.9h2.5v5.6h1.8l3.2-5.6h2.7l-3.9,6.6v0l4.1,7.2h-2.8l-3.4-6h-1.8v6h-2.5V114.9z"/>
	<path class="st14" d="M119.8,114.9h2.7l2.7,6.8c0.3,0.8,0.7,2,0.7,2h0c0,0,0.4-1.2,0.7-2l2.7-6.8h2.7l1.1,13.8h-2.5l-0.6-7.7
		c-0.1-0.9,0-2.1,0-2.1h0c0,0-0.4,1.3-0.7,2.1l-2.2,5.3h-2.2l-2.2-5.3c-0.3-0.8-0.8-2.2-0.8-2.2h0c0,0,0,1.2,0,2.2l-0.6,7.7h-2.5
		L119.8,114.9z"/>
	<path class="st14" d="M142.5,125.1h-4.8l-1.2,3.5h-2.6l4.9-13.8h2.6l4.9,13.8h-2.6L142.5,125.1z M140.1,117.3c0,0-0.3,1.4-0.6,2.1
		l-1.2,3.7h3.6l-1.2-3.7C140.4,118.6,140.1,117.3,140.1,117.3L140.1,117.3z"/>
	<path class="st14" d="M147.6,114.9h2.5l5.2,8c0.5,0.8,1.1,2.1,1.1,2.1h0c0,0-0.1-1.3-0.1-2.1v-8h2.5v13.8h-2.5l-5.2-7.9
		c-0.5-0.8-1.1-2.1-1.1-2.1h0c0,0,0.1,1.3,0.1,2.1v7.9h-2.5V114.9z"/>
	<path class="st14" d="M168.7,125.1h-4.8l-1.2,3.5h-2.6l4.9-13.8h2.6l4.9,13.8h-2.6L168.7,125.1z M166.3,117.3c0,0-0.3,1.4-0.6,2.1
		l-1.2,3.7h3.6l-1.2-3.7C166.6,118.6,166.3,117.3,166.3,117.3L166.3,117.3z"/>
	<path class="st14" d="M179.8,114.6c3.4,0,5.1,1.7,5.1,1.7l-1.2,1.9c0,0-1.5-1.3-3.7-1.3c-3.1,0-4.7,2.1-4.7,4.7c0,3,2,4.9,4.6,4.9
		c2.1,0,3.5-1.4,3.5-1.4v-1.6h-2.1v-2.2h4.4v7.3h-2.1V128c0-0.3,0-0.6,0-0.6h0c0,0-1.4,1.5-4,1.5c-3.6,0-6.8-2.8-6.8-7.1
		C172.7,117.7,175.7,114.6,179.8,114.6z"/>
	<path class="st14" d="M187.9,114.9h8.3v2.2h-5.7v3.6h4.6v2.2h-4.6v3.7h6.1v2.2h-8.6V114.9z"/>
	<path class="st14" d="M199.3,114.9h2.7l2.7,6.8c0.3,0.8,0.7,2,0.7,2h0c0,0,0.4-1.2,0.7-2l2.7-6.8h2.7l1.1,13.8h-2.5l-0.6-7.7
		c-0.1-0.9,0-2.1,0-2.1h0c0,0-0.4,1.3-0.7,2.1l-2.2,5.3h-2.2l-2.2-5.3c-0.3-0.8-0.8-2.2-0.8-2.2h0c0,0,0,1.2,0,2.2l-0.6,7.7h-2.5
		L199.3,114.9z"/>
	<path class="st14" d="M215.2,114.9h8.3v2.2h-5.7v3.6h4.6v2.2h-4.6v3.7h6.1v2.2h-8.6V114.9z"/>
	<path class="st14" d="M225.9,114.9h2.5l5.2,8c0.5,0.8,1.1,2.1,1.1,2.1h0c0,0-0.1-1.3-0.1-2.1v-8h2.5v13.8h-2.5l-5.2-7.9
		c-0.5-0.8-1.1-2.1-1.1-2.1h0c0,0,0.1,1.3,0.1,2.1v7.9h-2.5V114.9z"/>
	<path class="st14" d="M243,117h-4.5v-2.2H250v2.2h-4.5v11.6H243V117z"/>
	<path class="st14" d="M250.3,118.7h2.4v2.5h-2.4V118.7z M250.3,126.2h2.4v2.5h-2.4V126.2z"/>
	<path class="st14" d="M5.2,138.2h8.3v2.2H7.7v3.6h4.6v2.2H7.7v3.7h6.1v2.2H5.2V138.2z"/>
	<path class="st14" d="M15.9,138.2h2.5l5.2,8c0.5,0.8,1.1,2.1,1.1,2.1h0c0,0-0.1-1.3-0.1-2.1v-8h2.5V152h-2.5l-5.2-7.9
		c-0.5-0.8-1.1-2.1-1.1-2.1h0c0,0,0.1,1.3,0.1,2.1v7.9h-2.5V138.2z"/>
	<path class="st14" d="M33,140.3h-4.5v-2.2H40v2.2h-4.5V152H33V140.3z"/>
	<path class="st14" d="M41.4,138.2h8.3v2.2h-5.7v3.6h4.6v2.2h-4.6v3.7h6.1v2.2h-8.6V138.2z"/>
	<path class="st14" d="M52,138.2h4.4c1.5,0,2.2,0.1,2.8,0.4c1.4,0.6,2.3,1.9,2.3,3.8c0,1.7-0.9,3.2-2.3,3.8v0c0,0,0.2,0.2,0.5,0.7
		l2.8,5.1h-2.8l-2.7-5.1h-2.4v5.1H52V138.2z M56.8,144.6c1.3,0,2.2-0.8,2.2-2.2c0-1.3-0.6-2.1-2.5-2.1h-1.9v4.3H56.8z"/>
	<path class="st14" d="M64.3,138.2h5.3c2.6,0,4.4,1.8,4.4,4.5c0,2.7-1.8,4.5-4.4,4.5h-2.8v4.8h-2.5V138.2z M69.2,145
		c1.5,0,2.3-0.9,2.3-2.4c0-1.4-0.9-2.3-2.3-2.3h-2.4v4.7H69.2z"/>
	<path class="st14" d="M75.8,138.2h4.4c1.5,0,2.2,0.1,2.8,0.4c1.4,0.6,2.3,1.9,2.3,3.8c0,1.7-0.9,3.2-2.3,3.8v0c0,0,0.2,0.2,0.5,0.7
		l2.8,5.1h-2.8l-2.7-5.1h-2.4v5.1h-2.5V138.2z M80.5,144.6c1.3,0,2.2-0.8,2.2-2.2c0-1.3-0.6-2.1-2.5-2.1h-1.9v4.3H80.5z"/>
	<path class="st14" d="M88.1,138.2h2.5V152h-2.5V138.2z"/>
	<path class="st14" d="M93.9,148.4c0,0,1.5,1.5,3.4,1.5c1,0,2-0.5,2-1.7c0-2.5-6.5-2-6.5-6.3c0-2.3,2-4,4.6-4c2.7,0,4.1,1.5,4.1,1.5
		l-1.1,2c0,0-1.3-1.2-3-1.2c-1.2,0-2.1,0.7-2.1,1.7c0,2.4,6.5,1.8,6.5,6.3c0,2.2-1.7,4-4.5,4c-3.1,0-4.8-1.9-4.8-1.9L93.9,148.4z"/>
	<path class="st14" d="M103.9,138.2h8.3v2.2h-5.7v3.6h4.6v2.2h-4.6v3.7h6.1v2.2h-8.6V138.2z"/>
	<path class="st14" d="M120.3,144.6L120.3,144.6c0,0-1.7-0.7-1.7-3c0-2.4,2-3.6,4.4-3.6c0.9,0,1.8,0.2,1.8,0.2l-0.6,2
		c0,0-0.5-0.1-0.9-0.1c-1.2,0-2.1,0.6-2.1,1.8c0,0.8,0.4,1.8,2.1,1.8h2.2v-1.8h2.5v1.8h1.8v2.2h-1.8v1.6c0,2.8-1.8,4.7-5,4.7
		c-3,0-4.9-1.8-4.9-4.1C117.9,146.6,118.8,145.1,120.3,144.6z M122.8,149.9c1.6,0,2.5-0.9,2.5-2.5v-1.5H123c-1.5,0-2.5,0.7-2.5,2
		C120.5,149,121.4,149.9,122.8,149.9z"/>
	<path class="st14" d="M138.7,140.3h-4.5v-2.2h11.6v2.2h-4.5V152h-2.5V140.3z"/>
	<path class="st14" d="M147.1,138.2h2.5v5.8h6.3v-5.8h2.5V152h-2.5v-5.8h-6.3v5.8h-2.5V138.2z"/>
	<path class="st14" d="M161.4,138.2h2.5V152h-2.5V138.2z"/>
	<path class="st14" d="M166.9,138.2h4.4c1.5,0,2.2,0.1,2.8,0.4c1.4,0.6,2.3,1.9,2.3,3.8c0,1.7-0.9,3.2-2.3,3.8v0
		c0,0,0.2,0.2,0.5,0.7l2.8,5.1h-2.8l-2.7-5.1h-2.4v5.1h-2.5V138.2z M171.7,144.6c1.3,0,2.2-0.8,2.2-2.2c0-1.3-0.6-2.1-2.5-2.1h-1.9
		v4.3H171.7z"/>
	<path class="st14" d="M179.2,138.2h4.7c4.3,0,7,2.5,7,6.9c0,4.4-2.8,6.9-7,6.9h-4.7V138.2z M183.8,149.8c2.8,0,4.6-1.7,4.6-4.8
		c0-3.1-1.8-4.7-4.6-4.7h-2.1v9.5H183.8z"/>
	<path class="st14" d="M197.3,138.2h5.3c2.6,0,4.4,1.8,4.4,4.5c0,2.7-1.8,4.5-4.4,4.5h-2.8v4.8h-2.5V138.2z M202.2,145
		c1.5,0,2.3-0.9,2.3-2.4c0-1.4-0.9-2.3-2.3-2.3h-2.4v4.7H202.2z"/>
	<path class="st14" d="M215.2,148.4h-4.8l-1.2,3.5h-2.6l4.9-13.8h2.6L219,152h-2.6L215.2,148.4z M212.8,140.6c0,0-0.3,1.4-0.6,2.1
		l-1.2,3.7h3.6l-1.2-3.7C213.1,141.9,212.8,140.6,212.8,140.6L212.8,140.6z"/>
	<path class="st14" d="M220.3,138.2h4.4c1.5,0,2.2,0.1,2.8,0.4c1.4,0.6,2.3,1.9,2.3,3.8c0,1.7-0.9,3.2-2.3,3.8v0
		c0,0,0.2,0.2,0.5,0.7l2.8,5.1h-2.8l-2.7-5.1h-2.4v5.1h-2.5V138.2z M225,144.6c1.3,0,2.2-0.8,2.2-2.2c0-1.3-0.6-2.1-2.5-2.1h-1.9
		v4.3H225z"/>
	<path class="st14" d="M235.4,140.3h-4.5v-2.2h11.6v2.2h-4.5V152h-2.5V140.3z"/>
	<path class="st14" d="M247.2,146.2l-4.6-8h2.8l2.2,4.1c0.4,0.9,0.8,1.9,0.8,1.8h0c0,0,0.4-1,0.8-1.8l2.1-4.1h2.8l-4.6,8v5.8h-2.5
		V146.2z"/>
</g>
<g>
	<g>
		<g>
			<path class="st14" d="M320.1,132.7c0-15-12.2-27.2-27.2-27.2c-15,0-27.2,12.2-27.2,27.2c0,15,12.2,27.2,27.2,27.2l26.5,0
				c0.4,0,0.8-0.3,0.8-0.8L320.1,132.7z"/>
			<g>
				<path d="M292.9,154.4c-11.9,0-21.7-9.7-21.7-21.7c0-11.9,9.7-21.7,21.7-21.7c11.9,0,21.7,9.7,21.7,21.7
					C314.5,144.7,304.8,154.4,292.9,154.4L292.9,154.4z M292.9,111.8c-11.6,0-20.9,9.4-20.9,20.9c0,11.6,9.4,20.9,20.9,20.9
					c11.6,0,21-9.4,20.9-20.9C313.8,121.2,304.4,111.8,292.9,111.8z"/>
				<g>
					<path class="st22" d="M313.8,132.7c0,11.6-9.4,20.9-20.9,20.9c-11.6,0-20.9-9.4-20.9-20.9c0-11.6,9.4-20.9,20.9-20.9
						C304.4,111.8,313.8,121.2,313.8,132.7z"/>
				</g>
			</g>
		</g>
	</g>
	<g>
		<path class="st14" d="M299.9,143.8c0.8,0,1.4-0.6,1.4-1.4v-7.5h-0.9v7.5c0,0.3-0.2,0.5-0.5,0.5h-18.4c-0.3,0-0.5-0.2-0.5-0.5
			v-14.6c0-0.3,0.2-0.5,0.5-0.5h10.9v-0.9h-10.9c-0.8,0-1.4,0.6-1.4,1.4v14.6c0,0.8,0.6,1.4,1.4,1.4"/>
		<path class="st14" d="M290.3,137.2c0.9,0,1.6-0.7,1.6-1.6c0-0.3-0.1-0.5-0.2-0.8l-2.7-5c-0.5-1-1.8-1.4-2.8-0.8
			c-0.4,0.2-0.6,0.5-0.8,0.8l-2.7,5c-0.4,0.8-0.1,1.7,0.6,2.2c0.2,0.1,0.5,0.2,0.8,0.2H290.3z M283.4,135.6c0-0.1,0-0.2,0.1-0.3
			l2.7-5c0.3-0.5,1-0.7,1.5-0.4c0.2,0.1,0.3,0.3,0.4,0.4l2.7,5c0.2,0.3,0.1,0.7-0.3,0.9c-0.1,0.1-0.2,0.1-0.3,0.1h-6.2
			C283.7,136.2,283.4,136,283.4,135.6z"/>
		<rect x="286.7" y="131.1" class="st14" width="0.9" height="2.8"/>
		<circle class="st14" cx="287.2" cy="134.8" r="0.5"/>
		<path class="st14" d="M293.4,131.1h-1.9v0.9h1.4v8.5h-2.8v-2.4h-0.9v2.4h-2.8v-2.4h-0.9v2.4h-1.4v0.9H299v-0.9h-1.4v-5.6
			c0-0.3-0.2-0.5-0.5-0.5h-3.3v-2.8C293.8,131.3,293.6,131.1,293.4,131.1z M296.6,135.3v5.2h-2.8v-5.2H296.6z"/>
		<path class="st14" d="M305.1,125.9l-1.1,0l0.8-0.8c0.2-0.2,0.2-0.5,0-0.7l-2-2c-0.2-0.2-0.5-0.2-0.7,0l-0.8,0.8l0,0v-1.1
			c0-0.3-0.2-0.5-0.5-0.5h-2.8c-0.3,0-0.5,0.2-0.5,0.5l0,1.1l-0.8-0.8c-0.2-0.2-0.5-0.2-0.7,0l-2,2c-0.2,0.2-0.2,0.5,0,0.7l0.8,0.8
			h-1.1c-0.3,0-0.5,0.2-0.5,0.5v2.8c0,0.3,0.2,0.5,0.5,0.5l1.1,0l-0.8,0.8c-0.2,0.2-0.2,0.5,0,0.7l2,2c0.2,0.2,0.5,0.2,0.7,0
			l0.8-0.8v1.1c0,0.3,0.2,0.5,0.5,0.5h2.8c0.3,0,0.5-0.2,0.5-0.5l0-1.1l0.8,0.8c0.2,0.2,0.5,0.2,0.7,0l2-2c0.2-0.2,0.2-0.5,0-0.7
			l-0.8-0.8h1.1c0.3,0,0.5-0.2,0.5-0.5v-2.8C305.6,126.1,305.4,125.9,305.1,125.9z M304.6,128.7H304c-0.5,0-0.9,0.4-0.9,0.9
			c0,0.3,0.1,0.5,0.3,0.7l0.4,0.4l-1.3,1.3l-0.4-0.4c-0.4-0.4-1-0.4-1.3,0c-0.2,0.2-0.3,0.4-0.3,0.7v0.6h-1.9v-0.6
			c0-0.5-0.4-0.9-0.9-0.9c-0.3,0-0.5,0.1-0.7,0.3l-0.4,0.4l-1.3-1.3l0.4-0.4c0.4-0.4,0.4-1,0-1.3c-0.2-0.2-0.4-0.3-0.7-0.3h-0.6
			v-1.9h0.6c0.5,0,0.9-0.4,0.9-0.9c0-0.3-0.1-0.5-0.3-0.7l-0.4-0.4l1.3-1.3l0.4,0.4c0.4,0.4,1,0.4,1.3,0c0.2-0.2,0.3-0.4,0.3-0.7
			v-0.6h1.9v0.6c0,0.5,0.4,0.9,0.9,0.9c0.3,0,0.5-0.1,0.7-0.3l0.4-0.4l1.3,1.3l-0.4,0.4c-0.4,0.4-0.4,1,0,1.3
			c0.2,0.2,0.4,0.3,0.7,0.3h0.6V128.7z"/>
		<path class="st14" d="M299.5,125.4c-1.3,0-2.4,1.1-2.4,2.4c0,1.3,1.1,2.4,2.4,2.4c1.3,0,2.4-1.1,2.4-2.4
			C301.8,126.5,300.8,125.4,299.5,125.4z M299.5,129.2c-0.8,0-1.4-0.6-1.4-1.4c0-0.8,0.6-1.4,1.4-1.4c0.8,0,1.4,0.6,1.4,1.4
			C300.9,128.6,300.2,129.2,299.5,129.2z"/>
	</g>
</g>
<g>
	<path class="st14" d="M766.5,549.1h4.7c4.3,0,7,2.5,7,6.9s-2.8,6.9-7,6.9h-4.7V549.1z M771,560.7c2.8,0,4.6-1.7,4.6-4.8
		c0-3.1-1.8-4.7-4.6-4.7H769v9.5H771z"/>
	<path class="st14" d="M787.1,559.4h-4.8l-1.2,3.5h-2.6l4.9-13.8h2.6l4.9,13.8h-2.6L787.1,559.4z M784.7,551.5c0,0-0.3,1.4-0.6,2.1
		l-1.2,3.7h3.6l-1.2-3.7C785,552.8,784.7,551.5,784.7,551.5L784.7,551.5z"/>
	<path class="st14" d="M794.2,551.3h-4.5v-2.2h11.6v2.2h-4.5v11.6h-2.5V551.3z"/>
	<path class="st14" d="M808.6,559.4h-4.8l-1.2,3.5H800l4.9-13.8h2.6l4.9,13.8h-2.6L808.6,559.4z M806.2,551.5c0,0-0.3,1.4-0.6,2.1
		l-1.2,3.7h3.6l-1.2-3.7C806.5,552.8,806.2,551.5,806.2,551.5L806.2,551.5z"/>
	<path class="st14" d="M818.2,559.4c0,0,1.5,1.5,3.4,1.5c1,0,2-0.5,2-1.7c0-2.5-6.5-2-6.5-6.3c0-2.3,2-4,4.6-4
		c2.7,0,4.1,1.5,4.1,1.5l-1.1,2c0,0-1.3-1.2-3-1.2c-1.2,0-2.1,0.7-2.1,1.7c0,2.4,6.5,1.8,6.5,6.3c0,2.2-1.7,4-4.5,4
		c-3.1,0-4.8-1.9-4.8-1.9L818.2,559.4z"/>
	<path class="st14" d="M828,549.1h2.5v8.8c0,1.8,1.2,2.9,3,2.9s3.1-1,3.1-2.9v-8.8h2.5v8.8c0,3.1-2.2,5.2-5.6,5.2
		c-3.3,0-5.6-2.1-5.6-5.2V549.1z"/>
	<path class="st14" d="M841.9,549.1h4.9c2.5,0,4.3,1.3,4.3,3.6c0,1.3-0.6,2.4-1.7,3v0c1.5,0.4,2.2,1.8,2.2,3.2c0,2.8-2.2,4-4.8,4h-5
		V549.1z M846.9,554.7c1.1,0,1.7-0.8,1.7-1.8s-0.6-1.7-1.7-1.7h-2.4v3.5H846.9z M847.1,560.7c1.3,0,2-0.8,2-2c0-1.1-0.7-2-2-2h-2.7
		v4H847.1z"/>
	<path class="st14" d="M852.6,558h2.5v0.6c0,1.6,0.9,2.2,1.8,2.2c0.9,0,1.8-0.6,1.8-2.1v-7.5h-3.6v-2.2h6.1v9.7c0,3-2.2,4.3-4.3,4.3
		c-2.1,0-4.3-1.3-4.3-4.3V558z"/>
	<path class="st14" d="M864,549.1h8.3v2.2h-5.7v3.6h4.6v2.2h-4.6v3.7h6.1v2.2H864V549.1z"/>
	<path class="st14" d="M880.8,548.9c3.4,0,5.1,1.9,5.1,1.9l-1.2,1.9c0,0-1.6-1.5-3.8-1.5c-2.9,0-4.6,2.2-4.6,4.7
		c0,2.6,1.8,4.9,4.6,4.9c2.4,0,4-1.7,4-1.7l1.3,1.8c0,0-1.9,2.2-5.4,2.2c-4.2,0-7.1-3.1-7.1-7.2
		C873.7,551.9,876.7,548.9,880.8,548.9z"/>
	<path class="st14" d="M890.9,551.3h-4.5v-2.2H898v2.2h-4.5v11.6h-2.5V551.3z"/>
	<path class="st14" d="M903.5,549.1h4.4c1.5,0,2.2,0.1,2.8,0.4c1.4,0.6,2.3,1.9,2.3,3.8c0,1.7-0.9,3.2-2.3,3.8v0
		c0,0,0.2,0.2,0.5,0.7l2.8,5.1h-2.8l-2.7-5.1H906v5.1h-2.5V549.1z M908.3,555.6c1.3,0,2.2-0.8,2.2-2.2c0-1.3-0.6-2.1-2.5-2.1H906
		v4.3H908.3z"/>
	<path class="st14" d="M915.8,549.1h8.3v2.2h-5.7v3.6h4.6v2.2h-4.6v3.7h6.1v2.2h-8.6V549.1z"/>
	<path class="st14" d="M932.6,548.9c4.1,0,7.1,3.1,7.1,7c0,1.7-0.6,3.2-1.5,4.4l1.6,1.4l-1.4,1.6l-1.5-1.5c-1.1,0.9-2.6,1.4-4.2,1.4
		c-4,0-7.1-3.2-7.1-7.2C925.5,552,928.6,548.9,932.6,548.9z M932.6,560.8c0.8,0,1.7-0.3,2.4-0.7l-1.5-1.5l1.4-1.6l1.5,1.5
		c0.5-0.8,0.8-1.7,0.8-2.7c0-2.7-2-4.8-4.6-4.8c-2.5,0-4.5,2-4.5,4.8C928.1,558.7,930.1,560.8,932.6,560.8z"/>
	<path class="st14" d="M941.8,549.1h2.5v8.8c0,1.8,1.2,2.9,3,2.9c1.8,0,3.1-1,3.1-2.9v-8.8h2.5v8.8c0,3.1-2.2,5.2-5.6,5.2
		c-3.3,0-5.6-2.1-5.6-5.2V549.1z"/>
	<path class="st14" d="M955.7,549.1h8.3v2.2h-5.7v3.6h4.6v2.2h-4.6v3.7h6.1v2.2h-8.6V549.1z"/>
	<path class="st14" d="M966.7,559.4c0,0,1.5,1.5,3.4,1.5c1,0,2-0.5,2-1.7c0-2.5-6.5-2-6.5-6.3c0-2.3,2-4,4.6-4
		c2.7,0,4.1,1.5,4.1,1.5l-1.1,2c0,0-1.3-1.2-3-1.2c-1.2,0-2.1,0.7-2.1,1.7c0,2.4,6.5,1.8,6.5,6.3c0,2.2-1.7,4-4.5,4
		c-3.1,0-4.8-1.9-4.8-1.9L966.7,559.4z"/>
	<path class="st14" d="M979.6,551.3H975v-2.2h11.6v2.2h-4.5v11.6h-2.5V551.3z"/>
	<path class="st14" d="M767.2,572.4h2.7l2.7,6.8c0.3,0.8,0.7,2,0.7,2h0c0,0,0.4-1.2,0.7-2l2.7-6.8h2.7l1.1,13.8H778l-0.6-7.7
		c-0.1-0.9,0-2.1,0-2.1h0c0,0-0.4,1.3-0.7,2.1l-2.2,5.3h-2.2l-2.2-5.3c-0.3-0.8-0.8-2.2-0.8-2.2h0c0,0,0,1.2,0,2.2l-0.6,7.7H766
		L767.2,572.4z"/>
	<path class="st14" d="M789.9,582.7h-4.8l-1.2,3.5h-2.6l4.9-13.8h2.6l4.9,13.8h-2.6L789.9,582.7z M787.5,574.8c0,0-0.3,1.4-0.6,2.1
		l-1.2,3.7h3.6l-1.2-3.7C787.8,576.2,787.5,574.8,787.5,574.8L787.5,574.8z"/>
	<path class="st14" d="M794.9,572.4h2.5l5.2,8c0.5,0.8,1.1,2.1,1.1,2.1h0c0,0-0.1-1.3-0.1-2.1v-8h2.5v13.8h-2.5l-5.2-7.9
		c-0.5-0.8-1.1-2.1-1.1-2.1h0c0,0,0.1,1.3,0.1,2.1v7.9h-2.5V572.4z"/>
	<path class="st14" d="M816.1,582.7h-4.8l-1.2,3.5h-2.6l4.9-13.8h2.6l4.9,13.8h-2.6L816.1,582.7z M813.6,574.8c0,0-0.3,1.4-0.6,2.1
		l-1.2,3.7h3.6l-1.2-3.7C814,576.2,813.7,574.8,813.6,574.8L813.6,574.8z"/>
	<path class="st14" d="M827.2,572.2c3.4,0,5.1,1.7,5.1,1.7l-1.2,1.9c0,0-1.5-1.3-3.7-1.3c-3.1,0-4.7,2.1-4.7,4.7c0,3,2,4.9,4.6,4.9
		c2.1,0,3.5-1.4,3.5-1.4v-1.6h-2.1v-2.2h4.4v7.3h-2.1v-0.7c0-0.3,0-0.6,0-0.6h0c0,0-1.4,1.5-4,1.5c-3.6,0-6.8-2.8-6.8-7.1
		C820.1,575.3,823.1,572.2,827.2,572.2z"/>
	<path class="st14" d="M835.3,572.4h8.3v2.2h-5.7v3.6h4.6v2.2h-4.6v3.7h6.1v2.2h-8.6V572.4z"/>
	<path class="st14" d="M846.7,572.4h2.7l2.7,6.8c0.3,0.8,0.7,2,0.7,2h0c0,0,0.4-1.2,0.7-2l2.7-6.8h2.7l1.1,13.8h-2.5l-0.6-7.7
		c-0.1-0.9,0-2.1,0-2.1h0c0,0-0.4,1.3-0.7,2.1l-2.2,5.3h-2.2l-2.2-5.3c-0.3-0.8-0.8-2.2-0.8-2.2h0c0,0,0,1.2,0,2.2l-0.6,7.7h-2.5
		L846.7,572.4z"/>
	<path class="st14" d="M862.5,572.4h8.3v2.2H865v3.6h4.6v2.2H865v3.7h6.1v2.2h-8.6V572.4z"/>
	<path class="st14" d="M873.2,572.4h2.5l5.2,8c0.5,0.8,1.1,2.1,1.1,2.1h0c0,0-0.1-1.3-0.1-2.1v-8h2.5v13.8H882l-5.2-7.9
		c-0.5-0.8-1.1-2.1-1.1-2.1h0c0,0,0.1,1.3,0.1,2.1v7.9h-2.5V572.4z"/>
	<path class="st14" d="M890.3,574.6h-4.5v-2.2h11.6v2.2h-4.5v11.6h-2.5V574.6z"/>
</g>
<g>
	<path class="st14" d="M863.5,342h-4.8l-1.2,3.5h-2.6l4.9-13.8h2.6l4.9,13.8h-2.6L863.5,342z M861.1,334.1c0,0-0.3,1.4-0.6,2.1
		l-1.2,3.7h3.6l-1.2-3.7C861.4,335.5,861.1,334.1,861.1,334.1L861.1,334.1z"/>
	<path class="st14" d="M868.2,331.7h2.5v8.8c0,1.8,1.2,2.9,3,2.9c1.8,0,3.1-1,3.1-2.9v-8.8h2.5v8.8c0,3.1-2.2,5.2-5.6,5.2
		c-3.3,0-5.6-2.1-5.6-5.2V331.7z"/>
	<path class="st14" d="M882.1,331.7h4.7c4.3,0,7,2.5,7,6.9c0,4.4-2.8,6.9-7,6.9h-4.7V331.7z M886.7,343.4c2.8,0,4.6-1.7,4.6-4.8
		c0-3.1-1.8-4.7-4.6-4.7h-2.1v9.5H886.7z"/>
	<path class="st14" d="M896,331.7h2.5v13.8H896V331.7z"/>
	<path class="st14" d="M904.4,333.9h-4.5v-2.2h11.6v2.2h-4.5v11.6h-2.5V333.9z"/>
	<path class="st14" d="M858.1,361.5L858.1,361.5c0,0-1.7-0.7-1.7-3c0-2.4,2-3.6,4.4-3.6c0.9,0,1.8,0.2,1.8,0.2l-0.6,2
		c0,0-0.5-0.1-0.9-0.1c-1.2,0-2.1,0.6-2.1,1.8c0,0.8,0.4,1.8,2.1,1.8h2.2v-1.8h2.5v1.8h1.8v2.2h-1.8v1.6c0,2.8-1.8,4.7-5,4.7
		c-3,0-4.9-1.8-4.9-4.1C855.8,363.4,856.7,362,858.1,361.5z M860.7,366.8c1.6,0,2.5-0.9,2.5-2.5v-1.5h-2.3c-1.5,0-2.5,0.7-2.5,2
		C858.3,365.9,859.3,366.8,860.7,366.8z"/>
	<path class="st14" d="M879.9,354.8c3.4,0,5.1,1.9,5.1,1.9l-1.2,1.9c0,0-1.6-1.5-3.8-1.5c-2.9,0-4.6,2.2-4.6,4.7
		c0,2.6,1.8,4.9,4.6,4.9c2.4,0,4-1.7,4-1.7l1.3,1.8c0,0-1.9,2.2-5.4,2.2c-4.2,0-7.1-3.1-7.1-7.2
		C872.8,357.9,875.8,354.8,879.9,354.8z"/>
	<path class="st14" d="M893.3,354.8c4.1,0,7.1,3.1,7.1,7c0,4.1-3.1,7.2-7.1,7.2s-7.1-3.2-7.1-7.2
		C886.1,357.9,889.2,354.8,893.3,354.8z M893.3,366.8c2.5,0,4.5-2.1,4.5-4.9c0-2.7-2-4.7-4.5-4.7s-4.5,2-4.5,4.7
		C888.7,364.7,890.7,366.8,893.3,366.8z"/>
	<path class="st14" d="M903.1,355h2.7l2.7,6.8c0.3,0.8,0.7,2,0.7,2h0c0,0,0.4-1.2,0.7-2l2.7-6.8h2.7l1.1,13.8h-2.5l-0.6-7.7
		c-0.1-0.9,0-2.1,0-2.1h0c0,0-0.4,1.3-0.7,2.1l-2.2,5.3h-2.2l-2.2-5.3c-0.3-0.8-0.8-2.2-0.8-2.2h0c0,0,0,1.2,0,2.2l-0.6,7.7H902
		L903.1,355z"/>
	<path class="st14" d="M919,355h5.3c2.6,0,4.4,1.8,4.4,4.5c0,2.7-1.8,4.5-4.4,4.5h-2.8v4.8H919V355z M923.9,361.9
		c1.5,0,2.3-0.9,2.3-2.4c0-1.4-0.9-2.3-2.3-2.3h-2.4v4.7H923.9z"/>
	<path class="st14" d="M930.5,355h2.5v11.6h6v2.2h-8.5V355z"/>
	<path class="st14" d="M940.4,355h2.5v13.8h-2.5V355z"/>
	<path class="st14" d="M952.8,365.3H948l-1.2,3.5h-2.6l4.9-13.8h2.6l4.9,13.8H954L952.8,365.3z M950.4,357.4c0,0-0.3,1.4-0.6,2.1
		l-1.2,3.7h3.6l-1.2-3.7C950.7,358.8,950.4,357.4,950.4,357.4L950.4,357.4z"/>
	<path class="st14" d="M957.8,355h2.5l5.2,8c0.5,0.8,1.1,2.1,1.1,2.1h0c0,0-0.1-1.3-0.1-2.1v-8h2.5v13.8h-2.5l-5.2-7.9
		c-0.5-0.8-1.1-2.1-1.1-2.1h0c0,0,0.1,1.3,0.1,2.1v7.9h-2.5V355z"/>
	<path class="st14" d="M978.3,354.8c3.4,0,5.1,1.9,5.1,1.9l-1.2,1.9c0,0-1.6-1.5-3.8-1.5c-2.9,0-4.6,2.2-4.6,4.7
		c0,2.6,1.8,4.9,4.6,4.9c2.4,0,4-1.7,4-1.7l1.3,1.8c0,0-1.9,2.2-5.4,2.2c-4.2,0-7.1-3.1-7.1-7.2
		C971.2,357.9,974.2,354.8,978.3,354.8z"/>
	<path class="st14" d="M985.5,355h8.3v2.2H988v3.6h4.6v2.2H988v3.7h6.1v2.2h-8.6V355z"/>
</g>
<g>
	<path class="st14" d="M80.5,331.5c3.4,0,5.1,1.9,5.1,1.9l-1.2,1.9c0,0-1.6-1.5-3.8-1.5c-2.9,0-4.6,2.2-4.6,4.7
		c0,2.6,1.8,4.9,4.6,4.9c2.4,0,4-1.7,4-1.7l1.3,1.8c0,0-1.9,2.2-5.4,2.2c-4.2,0-7.1-3.1-7.1-7.2C73.4,334.6,76.5,331.5,80.5,331.5z"
		/>
	<path class="st14" d="M93.9,331.5c4.1,0,7.1,3.1,7.1,7c0,4.1-3.1,7.2-7.1,7.2c-4.1,0-7.1-3.2-7.1-7.2
		C86.8,334.6,89.9,331.5,93.9,331.5z M93.9,343.5c2.5,0,4.5-2.1,4.5-4.9c0-2.7-2-4.7-4.5-4.7c-2.5,0-4.5,2-4.5,4.7
		C89.4,341.4,91.4,343.5,93.9,343.5z"/>
	<path class="st14" d="M103.1,331.7h2.5l5.2,8c0.5,0.8,1.1,2.1,1.1,2.1h0c0,0-0.1-1.3-0.1-2.1v-8h2.5v13.8h-2.5l-5.2-7.9
		c-0.5-0.8-1.1-2.1-1.1-2.1h0c0,0,0.1,1.3,0.1,2.1v7.9h-2.5V331.7z"/>
	<path class="st14" d="M117.7,342c0,0,1.5,1.5,3.4,1.5c1,0,2-0.5,2-1.7c0-2.5-6.5-2-6.5-6.3c0-2.3,2-4,4.6-4c2.7,0,4.1,1.5,4.1,1.5
		l-1.1,2c0,0-1.3-1.2-3-1.2c-1.2,0-2.1,0.7-2.1,1.7c0,2.4,6.5,1.8,6.5,6.3c0,2.2-1.7,4-4.5,4c-3.1,0-4.8-1.9-4.8-1.9L117.7,342z"/>
	<path class="st14" d="M127.7,331.7h8.3v2.2h-5.7v3.6h4.6v2.2h-4.6v3.7h6.1v2.2h-8.6V331.7z"/>
	<path class="st14" d="M138.3,331.7h2.5l5.2,8c0.5,0.8,1.1,2.1,1.1,2.1h0c0,0-0.1-1.3-0.1-2.1v-8h2.5v13.8h-2.5l-5.2-7.9
		c-0.5-0.8-1.1-2.1-1.1-2.1h0c0,0,0.1,1.3,0.1,2.1v7.9h-2.5V331.7z"/>
	<path class="st14" d="M155.5,333.9h-4.5v-2.2h11.6v2.2H158v11.6h-2.5V333.9z"/>
	<path class="st14" d="M32.3,355H35l2.7,6.8c0.3,0.8,0.7,2,0.7,2h0c0,0,0.4-1.2,0.7-2l2.7-6.8h2.7l1.1,13.8h-2.5l-0.6-7.7
		c-0.1-0.9,0-2.1,0-2.1h0c0,0-0.4,1.3-0.7,2.1l-2.2,5.3h-2.2l-2.2-5.3c-0.3-0.8-0.8-2.2-0.8-2.2h0c0,0,0,1.2,0,2.2l-0.6,7.7h-2.5
		L32.3,355z"/>
	<path class="st14" d="M55,365.3h-4.8l-1.2,3.5h-2.6l4.9-13.8h2.6l4.9,13.8h-2.6L55,365.3z M52.6,357.4c0,0-0.3,1.4-0.6,2.1
		l-1.2,3.7h3.6l-1.2-3.7C52.9,358.8,52.6,357.4,52.6,357.4L52.6,357.4z"/>
	<path class="st14" d="M60,355h2.5l5.2,8c0.5,0.8,1.1,2.1,1.1,2.1h0c0,0-0.1-1.3-0.1-2.1v-8h2.5v13.8h-2.5l-5.2-7.9
		c-0.5-0.8-1.1-2.1-1.1-2.1h0c0,0,0.1,1.3,0.1,2.1v7.9H60V355z"/>
	<path class="st14" d="M81.2,365.3h-4.8l-1.2,3.5h-2.6l4.9-13.8h2.6l4.9,13.8h-2.6L81.2,365.3z M78.8,357.4c0,0-0.3,1.4-0.6,2.1
		l-1.2,3.7h3.6l-1.2-3.7C79.1,358.8,78.8,357.4,78.8,357.4L78.8,357.4z"/>
	<path class="st14" d="M92.3,354.8c3.4,0,5.1,1.7,5.1,1.7l-1.2,1.9c0,0-1.5-1.3-3.7-1.3c-3.1,0-4.7,2.1-4.7,4.7c0,3,2,4.9,4.6,4.9
		c2.1,0,3.5-1.4,3.5-1.4v-1.6h-2.1v-2.2h4.4v7.3H96v-0.7c0-0.3,0-0.6,0-0.6h0c0,0-1.4,1.5-4,1.5c-3.6,0-6.8-2.8-6.8-7.1
		C85.2,357.9,88.2,354.8,92.3,354.8z"/>
	<path class="st14" d="M100.4,355h8.3v2.2h-5.7v3.6h4.6v2.2h-4.6v3.7h6.1v2.2h-8.6V355z"/>
	<path class="st14" d="M111.8,355h2.7l2.7,6.8c0.3,0.8,0.7,2,0.7,2h0c0,0,0.4-1.2,0.7-2l2.7-6.8h2.7l1.1,13.8h-2.5l-0.6-7.7
		c-0.1-0.9,0-2.1,0-2.1h0c0,0-0.4,1.3-0.7,2.1l-2.2,5.3h-2.2l-2.2-5.3c-0.3-0.8-0.8-2.2-0.8-2.2h0c0,0,0,1.2,0,2.2l-0.6,7.7h-2.5
		L111.8,355z"/>
	<path class="st14" d="M127.7,355h8.3v2.2h-5.7v3.6h4.6v2.2h-4.6v3.7h6.1v2.2h-8.6V355z"/>
	<path class="st14" d="M138.3,355h2.5l5.2,8c0.5,0.8,1.1,2.1,1.1,2.1h0c0,0-0.1-1.3-0.1-2.1v-8h2.5v13.8h-2.5l-5.2-7.9
		c-0.5-0.8-1.1-2.1-1.1-2.1h0c0,0,0.1,1.3,0.1,2.1v7.9h-2.5V355z"/>
	<path class="st14" d="M155.5,357.2h-4.5V355h11.6v2.2H158v11.6h-2.5V357.2z"/>
</g>
<g>
	<path class="st14" d="M97.6,549.1h4.7c4.3,0,7,2.5,7,6.9s-2.8,6.9-7,6.9h-4.7V549.1z M102.2,560.7c2.8,0,4.6-1.7,4.6-4.8
		c0-3.1-1.8-4.7-4.6-4.7h-2.1v9.5H102.2z"/>
	<path class="st14" d="M118.3,559.4h-4.8l-1.2,3.5h-2.6l4.9-13.8h2.6l4.9,13.8h-2.6L118.3,559.4z M115.8,551.5c0,0-0.3,1.4-0.6,2.1
		l-1.2,3.7h3.6l-1.2-3.7C116.2,552.8,115.9,551.5,115.8,551.5L115.8,551.5z"/>
	<path class="st14" d="M125.3,551.3h-4.5v-2.2h11.6v2.2h-4.5v11.6h-2.5V551.3z"/>
	<path class="st14" d="M139.8,559.4h-4.8l-1.2,3.5h-2.6l4.9-13.8h2.6l4.9,13.8h-2.6L139.8,559.4z M137.3,551.5c0,0-0.3,1.4-0.6,2.1
		l-1.2,3.7h3.6l-1.2-3.7C137.7,552.8,137.4,551.5,137.3,551.5L137.3,551.5z"/>
	<path class="st14" d="M149,549.1h2.5v13.8H149V549.1z"/>
	<path class="st14" d="M154.6,549.1h2.5l5.2,8c0.5,0.8,1.1,2.1,1.1,2.1h0c0,0-0.1-1.3-0.1-2.1v-8h2.5v13.8h-2.5l-5.2-7.9
		c-0.5-0.8-1.1-2.1-1.1-2.1h0c0,0,0.1,1.3,0.1,2.1v7.9h-2.5V549.1z"/>
	<path class="st14" d="M167.1,549.1h2.7l3,9c0.3,0.8,0.5,2,0.5,2h0c0,0,0.3-1.2,0.5-2l3-9h2.7l-5,13.8h-2.5L167.1,549.1z"/>
	<path class="st14" d="M180.9,549.1h8.3v2.2h-5.7v3.6h4.6v2.2h-4.6v3.7h6.1v2.2h-8.6V549.1z"/>
	<path class="st14" d="M191.5,549.1h2.5l5.2,8c0.5,0.8,1.1,2.1,1.1,2.1h0c0,0-0.1-1.3-0.1-2.1v-8h2.5v13.8h-2.5l-5.2-7.9
		c-0.5-0.8-1.1-2.1-1.1-2.1h0c0,0,0.1,1.3,0.1,2.1v7.9h-2.5V549.1z"/>
	<path class="st14" d="M208.7,551.3h-4.5v-2.2h11.6v2.2h-4.5v11.6h-2.5V551.3z"/>
	<path class="st14" d="M223.1,548.9c4.1,0,7.1,3.1,7.1,7c0,4.1-3.1,7.2-7.1,7.2c-4.1,0-7.1-3.2-7.1-7.2
		C216,552,219,548.9,223.1,548.9z M223.1,560.8c2.5,0,4.5-2.1,4.5-4.9c0-2.7-2-4.7-4.5-4.7c-2.5,0-4.5,2-4.5,4.7
		C218.6,558.7,220.6,560.8,223.1,560.8z"/>
	<path class="st14" d="M232.3,549.1h4.4c1.5,0,2.2,0.1,2.8,0.4c1.4,0.6,2.3,1.9,2.3,3.8c0,1.7-0.9,3.2-2.3,3.8v0
		c0,0,0.2,0.2,0.5,0.7l2.8,5.1h-2.8l-2.7-5.1h-2.4v5.1h-2.5V549.1z M237,555.6c1.3,0,2.2-0.8,2.2-2.2c0-1.3-0.6-2.1-2.5-2.1h-1.9
		v4.3H237z"/>
	<path class="st14" d="M247.2,557.1l-4.6-8h2.8l2.2,4.1c0.4,0.9,0.8,1.9,0.8,1.8h0c0,0,0.4-1,0.8-1.8l2.1-4.1h2.8l-4.6,8v5.8h-2.5
		V557.1z"/>
	<path class="st14" d="M154.6,578.9L154.6,578.9c0,0-1.7-0.7-1.7-3c0-2.4,2-3.6,4.4-3.6c0.9,0,1.8,0.2,1.8,0.2l-0.6,2
		c0,0-0.5-0.1-0.9-0.1c-1.2,0-2.1,0.6-2.1,1.8c0,0.8,0.4,1.8,2.1,1.8h2.2v-1.8h2.5v1.8h1.8v2.2h-1.8v1.6c0,2.8-1.8,4.7-5,4.7
		c-3,0-4.9-1.8-4.9-4.1C152.2,580.8,153.1,579.4,154.6,578.9z M157.2,584.1c1.6,0,2.5-0.9,2.5-2.5v-1.5h-2.3c-1.5,0-2.5,0.7-2.5,2
		C154.8,583.2,155.8,584.1,157.2,584.1z"/>
	<path class="st14" d="M170.9,572.4h2.7l2.7,6.8c0.3,0.8,0.7,2,0.7,2h0c0,0,0.4-1.2,0.7-2l2.7-6.8h2.7l1.1,13.8h-2.5l-0.6-7.7
		c-0.1-0.9,0-2.1,0-2.1h0c0,0-0.4,1.3-0.7,2.1l-2.2,5.3h-2.2l-2.2-5.3c-0.3-0.8-0.8-2.2-0.8-2.2h0c0,0,0,1.2,0,2.2l-0.6,7.7h-2.5
		L170.9,572.4z"/>
	<path class="st14" d="M193.6,582.7h-4.8l-1.2,3.5h-2.6l4.9-13.8h2.6l4.9,13.8h-2.6L193.6,582.7z M191.2,574.8c0,0-0.3,1.4-0.6,2.1
		l-1.2,3.7h3.6l-1.2-3.7C191.5,576.2,191.2,574.8,191.2,574.8L191.2,574.8z"/>
	<path class="st14" d="M198.7,572.4h5.3c2.6,0,4.4,1.8,4.4,4.5c0,2.7-1.8,4.5-4.4,4.5h-2.8v4.8h-2.5V572.4z M203.5,579.3
		c1.5,0,2.3-0.9,2.3-2.4c0-1.4-0.9-2.3-2.3-2.3h-2.4v4.7H203.5z"/>
	<path class="st14" d="M210.1,572.4h5.3c2.6,0,4.4,1.8,4.4,4.5c0,2.7-1.8,4.5-4.4,4.5h-2.8v4.8h-2.5V572.4z M215,579.3
		c1.5,0,2.3-0.9,2.3-2.4c0-1.4-0.9-2.3-2.3-2.3h-2.4v4.7H215z"/>
	<path class="st14" d="M221.5,572.4h2.5v13.8h-2.5V572.4z"/>
	<path class="st14" d="M227.1,572.4h2.5l5.2,8c0.5,0.8,1.1,2.1,1.1,2.1h0c0,0-0.1-1.3-0.1-2.1v-8h2.5v13.8h-2.5l-5.2-7.9
		c-0.5-0.8-1.1-2.1-1.1-2.1h0c0,0,0.1,1.3,0.1,2.1v7.9h-2.5V572.4z"/>
	<path class="st14" d="M247.5,572.2c3.4,0,5.1,1.7,5.1,1.7l-1.2,1.9c0,0-1.5-1.3-3.7-1.3c-3.1,0-4.7,2.1-4.7,4.7c0,3,2,4.9,4.6,4.9
		c2.1,0,3.5-1.4,3.5-1.4v-1.6H249v-2.2h4.4v7.3h-2.1v-0.7c0-0.3,0-0.6,0-0.6h0c0,0-1.4,1.5-4,1.5c-3.6,0-6.8-2.8-6.8-7.1
		C240.4,575.3,243.4,572.2,247.5,572.2z"/>
</g>
<g>
	<path class="st14" d="M393.6,639.4h5.3c2.6,0,4.4,1.8,4.4,4.5c0,2.7-1.8,4.5-4.4,4.5h-2.8v4.8h-2.5V639.4z M398.5,646.3
		c1.5,0,2.3-0.9,2.3-2.4c0-1.4-0.9-2.3-2.3-2.3h-2.4v4.7H398.5z"/>
	<path class="st14" d="M405,639.4h4.4c1.5,0,2.2,0.1,2.8,0.4c1.4,0.6,2.3,1.9,2.3,3.8c0,1.7-0.9,3.2-2.3,3.8v0c0,0,0.2,0.2,0.5,0.7
		l2.8,5.1h-2.8l-2.7-5.1h-2.4v5.1H405V639.4z M409.8,645.9c1.3,0,2.2-0.8,2.2-2.2c0-1.3-0.6-2.1-2.5-2.1h-1.9v4.3H409.8z"/>
	<path class="st14" d="M417.3,639.4h2.5v13.8h-2.5V639.4z"/>
	<path class="st14" d="M421.1,639.4h2.7l3,9c0.3,0.8,0.5,2,0.5,2h0c0,0,0.3-1.2,0.5-2l3-9h2.7l-5,13.8h-2.5L421.1,639.4z"/>
	<path class="st14" d="M441.2,649.7h-4.8l-1.2,3.5h-2.6l4.9-13.8h2.6l4.9,13.8h-2.6L441.2,649.7z M438.8,641.8c0,0-0.3,1.4-0.6,2.1
		l-1.2,3.7h3.6l-1.2-3.7C439.1,643.2,438.8,641.8,438.8,641.8L438.8,641.8z"/>
	<path class="st14" d="M452.3,639.2c3.4,0,5.1,1.9,5.1,1.9l-1.2,1.9c0,0-1.6-1.5-3.8-1.5c-2.9,0-4.6,2.2-4.6,4.7
		c0,2.6,1.8,4.9,4.6,4.9c2.4,0,4-1.7,4-1.7l1.3,1.8c0,0-1.9,2.2-5.4,2.2c-4.2,0-7.1-3.1-7.1-7.2
		C445.2,642.3,448.2,639.2,452.3,639.2z"/>
	<path class="st14" d="M462.4,647.5l-4.6-8h2.8l2.2,4.1c0.4,0.9,0.8,1.9,0.8,1.8h0c0,0,0.4-1,0.8-1.8l2.1-4.1h2.8l-4.6,8v5.8h-2.5
		V647.5z"/>
	<path class="st14" d="M351,673h-4.8l-1.2,3.5h-2.6l4.9-13.8h2.6l4.9,13.8h-2.6L351,673z M348.6,665.1c0,0-0.3,1.4-0.6,2.1l-1.2,3.7
		h3.6l-1.2-3.7C348.9,666.5,348.6,665.1,348.6,665.1L348.6,665.1z"/>
	<path class="st14" d="M356.3,673c0,0,1.5,1.5,3.4,1.5c1,0,2-0.5,2-1.7c0-2.5-6.5-2-6.5-6.3c0-2.3,2-4,4.6-4c2.7,0,4.1,1.5,4.1,1.5
		l-1.1,2c0,0-1.3-1.2-3-1.2c-1.2,0-2.1,0.7-2.1,1.7c0,2.4,6.5,1.8,6.5,6.3c0,2.2-1.7,4-4.5,4c-3.1,0-4.8-1.9-4.8-1.9L356.3,673z"/>
	<path class="st14" d="M366.6,673c0,0,1.5,1.5,3.4,1.5c1,0,2-0.5,2-1.7c0-2.5-6.5-2-6.5-6.3c0-2.3,2-4,4.6-4c2.7,0,4.1,1.5,4.1,1.5
		l-1.1,2c0,0-1.3-1.2-3-1.2c-1.2,0-2.1,0.7-2.1,1.7c0,2.4,6.5,1.8,6.5,6.3c0,2.2-1.7,4-4.5,4c-3.1,0-4.8-1.9-4.8-1.9L366.6,673z"/>
	<path class="st14" d="M376.6,662.7h8.3v2.2h-5.7v3.6h4.6v2.2h-4.6v3.7h6.1v2.2h-8.6V662.7z"/>
	<path class="st14" d="M387.6,673c0,0,1.5,1.5,3.4,1.5c1,0,2-0.5,2-1.7c0-2.5-6.5-2-6.5-6.3c0-2.3,2-4,4.6-4c2.7,0,4.1,1.5,4.1,1.5
		l-1.1,2c0,0-1.3-1.2-3-1.2c-1.2,0-2.1,0.7-2.1,1.7c0,2.4,6.5,1.8,6.5,6.3c0,2.2-1.7,4-4.5,4c-3.1,0-4.8-1.9-4.8-1.9L387.6,673z"/>
	<path class="st14" d="M397.8,673c0,0,1.5,1.5,3.4,1.5c1,0,2-0.5,2-1.7c0-2.5-6.5-2-6.5-6.3c0-2.3,2-4,4.6-4c2.7,0,4.1,1.5,4.1,1.5
		l-1.1,2c0,0-1.3-1.2-3-1.2c-1.2,0-2.1,0.7-2.1,1.7c0,2.4,6.5,1.8,6.5,6.3c0,2.2-1.7,4-4.5,4c-3.1,0-4.8-1.9-4.8-1.9L397.8,673z"/>
	<path class="st14" d="M408.5,662.7h2.7l2.7,6.8c0.3,0.8,0.7,2,0.7,2h0c0,0,0.4-1.2,0.7-2l2.7-6.8h2.7l1.1,13.8h-2.5l-0.6-7.7
		c-0.1-0.9,0-2.1,0-2.1h0c0,0-0.4,1.3-0.7,2.1l-2.2,5.3h-2.2l-2.2-5.3c-0.3-0.8-0.8-2.2-0.8-2.2h0c0,0,0,1.2,0,2.2l-0.6,7.7h-2.5
		L408.5,662.7z"/>
	<path class="st14" d="M424.4,662.7h8.3v2.2h-5.7v3.6h4.6v2.2h-4.6v3.7h6.1v2.2h-8.6V662.7z"/>
	<path class="st14" d="M435.1,662.7h2.5l5.2,8c0.5,0.8,1.1,2.1,1.1,2.1h0c0,0-0.1-1.3-0.1-2.1v-8h2.5v13.8h-2.5l-5.2-7.9
		c-0.5-0.8-1.1-2.1-1.1-2.1h0c0,0,0.1,1.3,0.1,2.1v7.9h-2.5V662.7z"/>
	<path class="st14" d="M452.2,664.9h-4.5v-2.2h11.6v2.2h-4.5v11.6h-2.5V664.9z"/>
	<path class="st14" d="M460.9,673c0,0,1.5,1.5,3.4,1.5c1,0,2-0.5,2-1.7c0-2.5-6.5-2-6.5-6.3c0-2.3,2-4,4.6-4c2.7,0,4.1,1.5,4.1,1.5
		l-1.1,2c0,0-1.3-1.2-3-1.2c-1.2,0-2.1,0.7-2.1,1.7c0,2.4,6.5,1.8,6.5,6.3c0,2.2-1.7,4-4.5,4c-3.1,0-4.8-1.9-4.8-1.9L460.9,673z"/>
</g>
<g>
	<path class="st14" d="M551.2,21.7h5.3c2.6,0,4.4,1.8,4.4,4.5c0,2.7-1.8,4.5-4.4,4.5h-2.8v4.8h-2.5V21.7z M556.1,28.6
		c1.5,0,2.3-0.9,2.3-2.4c0-1.4-0.9-2.3-2.3-2.3h-2.4v4.7H556.1z"/>
	<path class="st14" d="M562.6,21.7h4.4c1.5,0,2.2,0.1,2.8,0.4c1.4,0.6,2.3,1.9,2.3,3.8c0,1.7-0.9,3.2-2.3,3.8v0c0,0,0.2,0.2,0.5,0.7
		l2.8,5.1h-2.8l-2.7-5.1h-2.4v5.1h-2.5V21.7z M567.4,28.2c1.3,0,2.2-0.8,2.2-2.2c0-1.3-0.6-2.1-2.5-2.1h-1.9v4.3H567.4z"/>
	<path class="st14" d="M574.9,21.7h2.5v13.8h-2.5V21.7z"/>
	<path class="st14" d="M578.7,21.7h2.7l3,9c0.3,0.8,0.5,2,0.5,2h0c0,0,0.3-1.2,0.5-2l3-9h2.7l-5,13.8h-2.5L578.7,21.7z"/>
	<path class="st14" d="M598.8,32H594l-1.2,3.5h-2.6l4.9-13.8h2.6l4.9,13.8H600L598.8,32z M596.4,24.1c0,0-0.3,1.4-0.6,2.1l-1.2,3.7
		h3.6l-1.2-3.7C596.7,25.5,596.4,24.1,596.4,24.1L596.4,24.1z"/>
	<path class="st14" d="M609.9,21.5c3.4,0,5.1,1.9,5.1,1.9l-1.2,1.9c0,0-1.6-1.5-3.8-1.5c-2.9,0-4.6,2.2-4.6,4.7
		c0,2.6,1.8,4.9,4.6,4.9c2.4,0,4-1.7,4-1.7l1.3,1.8c0,0-1.9,2.2-5.4,2.2c-4.2,0-7.1-3.1-7.1-7.2C602.8,24.6,605.8,21.5,609.9,21.5z"
		/>
	<path class="st14" d="M620,29.7l-4.6-8h2.8l2.2,4.1c0.4,0.9,0.8,1.9,0.8,1.8h0c0,0,0.4-1,0.8-1.8l2.1-4.1h2.8l-4.6,8v5.8H620V29.7z
		"/>
	<path class="st14" d="M551.9,45h2.7l2.7,6.8c0.3,0.8,0.7,2,0.7,2h0c0,0,0.4-1.2,0.7-2l2.7-6.8h2.7l1.1,13.8h-2.5l-0.6-7.7
		c-0.1-0.9,0-2.1,0-2.1h0c0,0-0.4,1.3-0.7,2.1l-2.2,5.3h-2.2l-2.2-5.3c-0.3-0.8-0.8-2.2-0.8-2.2h0c0,0,0,1.2,0,2.2l-0.6,7.7h-2.5
		L551.9,45z"/>
	<path class="st14" d="M574.6,55.3h-4.8l-1.2,3.5H566l4.9-13.8h2.6l4.9,13.8h-2.6L574.6,55.3z M572.2,47.4c0,0-0.3,1.4-0.6,2.1
		l-1.2,3.7h3.6l-1.2-3.7C572.5,48.8,572.2,47.4,572.2,47.4L572.2,47.4z"/>
	<path class="st14" d="M579.7,45h2.5l5.2,8c0.5,0.8,1.1,2.1,1.1,2.1h0c0,0-0.1-1.3-0.1-2.1v-8h2.5v13.8h-2.5l-5.2-7.9
		c-0.5-0.8-1.1-2.1-1.1-2.1h0c0,0,0.1,1.3,0.1,2.1v7.9h-2.5V45z"/>
	<path class="st14" d="M600.8,55.3H596l-1.2,3.5h-2.6l4.9-13.8h2.6l4.9,13.8H602L600.8,55.3z M598.4,47.4c0,0-0.3,1.4-0.6,2.1
		l-1.2,3.7h3.6l-1.2-3.7C598.7,48.8,598.4,47.4,598.4,47.4L598.4,47.4z"/>
	<path class="st14" d="M611.9,44.8c3.4,0,5.1,1.7,5.1,1.7l-1.2,1.9c0,0-1.5-1.3-3.7-1.3c-3.1,0-4.7,2.1-4.7,4.7c0,3,2,4.9,4.6,4.9
		c2.1,0,3.5-1.4,3.5-1.4v-1.6h-2.1v-2.2h4.4v7.3h-2.1v-0.7c0-0.3,0-0.6,0-0.6h0c0,0-1.4,1.5-4,1.5c-3.6,0-6.8-2.8-6.8-7.1
		C604.8,47.9,607.8,44.8,611.9,44.8z"/>
	<path class="st14" d="M620,45h8.3v2.2h-5.7v3.6h4.6V53h-4.6v3.7h6.1v2.2H620V45z"/>
	<path class="st14" d="M631.4,45h2.7l2.7,6.8c0.3,0.8,0.7,2,0.7,2h0c0,0,0.4-1.2,0.7-2l2.7-6.8h2.7l1.1,13.8h-2.5l-0.6-7.7
		c-0.1-0.9,0-2.1,0-2.1h0c0,0-0.4,1.3-0.7,2.1l-2.2,5.3h-2.2l-2.2-5.3c-0.3-0.8-0.8-2.2-0.8-2.2h0c0,0,0,1.2,0,2.2l-0.6,7.7h-2.5
		L631.4,45z"/>
	<path class="st14" d="M647.3,45h8.3v2.2h-5.7v3.6h4.6V53h-4.6v3.7h6.1v2.2h-8.6V45z"/>
	<path class="st14" d="M658,45h2.5l5.2,8c0.5,0.8,1.1,2.1,1.1,2.1h0c0,0-0.1-1.3-0.1-2.1v-8h2.5v13.8h-2.5l-5.2-7.9
		c-0.5-0.8-1.1-2.1-1.1-2.1h0c0,0,0.1,1.3,0.1,2.1v7.9H658V45z"/>
	<path class="st14" d="M675.1,47.2h-4.5V45h11.6v2.2h-4.5v11.6h-2.5V47.2z"/>
</g>
<g>
	<g>
		<g>
			<circle class="st14" cx="508.8" cy="91.3" r="6.7"/>
		</g>
		<g>
			<g>
				<path class="st14" d="M528.6,62.1c10.6-10.6,10.6-27.9,0-38.5C518,13,500.8,13,490.1,23.6c-10.6,10.6-10.6,27.9,0,38.5
					l18.7,18.7c0.3,0.3,0.8,0.3,1.1,0L528.6,62.1z"/>
				<g>
					<path d="M494.1,58.2c-8.4-8.4-8.4-22.2,0-30.6c8.4-8.4,22.2-8.4,30.6,0c8.4,8.4,8.4,22.2,0,30.6
						C516.3,66.6,502.5,66.6,494.1,58.2L494.1,58.2z M524.2,28.1c-8.2-8.2-21.4-8.2-29.6,0c-8.2,8.2-8.2,21.4,0,29.6
						c8.2,8.2,21.4,8.2,29.6,0C532.4,49.5,532.4,36.2,524.2,28.1z"/>
					<g>
						<path class="st22" d="M524.2,57.7c-8.2,8.2-21.4,8.2-29.6,0c-8.2-8.2-8.2-21.4,0-29.6c8.2-8.2,21.4-8.2,29.6,0
							C532.4,36.2,532.4,49.5,524.2,57.7z"/>
					</g>
				</g>
			</g>
		</g>
	</g>
	<g>
		<g>
			<g>
				<g>
					<g>
						<g>
							<g>
								<g>
									<g>
										<path class="st14" d="M509.4,55.3c-0.8,0-1.6-0.1-2.3-0.2c-0.2,0-0.3-0.2-0.4-0.4l-0.3-1.2c-0.9-0.2-1.7-0.6-2.5-1l-1,0.7
											c-0.2,0.1-0.4,0.1-0.5,0c-1.3-0.9-2.5-2.1-3.4-3.4c-0.1-0.2-0.1-0.4,0-0.5l0.7-1.1c-0.4-0.8-0.8-1.6-1-2.5l-1.2-0.3
											c-0.2,0-0.3-0.2-0.4-0.4c-0.1-0.8-0.2-1.5-0.2-2.3c0-0.8,0.1-1.6,0.2-2.3c0-0.2,0.2-0.3,0.4-0.4l1.2-0.3
											c0.2-0.9,0.6-1.7,1-2.5l-0.7-1c-0.1-0.2-0.1-0.4,0-0.5c0.9-1.3,2-2.5,3.4-3.4c0.2-0.1,0.4-0.1,0.5,0l1,0.7
											c0.8-0.4,1.6-0.8,2.5-1l0.3-1.2c0-0.2,0.2-0.3,0.4-0.4c1.5-0.3,3.1-0.3,4.7,0c0.2,0,0.3,0.2,0.4,0.4l0.3,1.2
											c0.9,0.2,1.7,0.6,2.5,1l1-0.7c0.2-0.1,0.4-0.1,0.5,0c1.3,0.9,2.5,2.1,3.4,3.4c0.1,0.2,0.1,0.4,0,0.5l-0.7,1.1
											c0.4,0.8,0.8,1.6,1,2.5l1.2,0.3c0.2,0,0.3,0.2,0.4,0.4c0.1,0.8,0.2,1.5,0.2,2.3s-0.1,1.6-0.2,2.3c0,0.2-0.2,0.3-0.4,0.4
											l-1.2,0.3c-0.2,0.9-0.6,1.7-1,2.5l0.7,1.1c0.1,0.2,0.1,0.4,0,0.5c-0.9,1.3-2,2.5-3.4,3.4c-0.2,0.1-0.4,0.1-0.5,0l-1-0.7
											c-0.8,0.4-1.6,0.8-2.5,1l-0.3,1.2c0,0.2-0.2,0.3-0.4,0.4C511,55.2,510.2,55.3,509.4,55.3L509.4,55.3z M507.5,54.2
											c1.2,0.2,2.5,0.2,3.7,0l0.3-1.2c0-0.2,0.2-0.3,0.4-0.4c1-0.2,1.9-0.6,2.8-1.2c0.2-0.1,0.4-0.1,0.5,0l1,0.7
											c1-0.7,1.9-1.6,2.7-2.7l-0.7-1c-0.1-0.2-0.1-0.4,0-0.5c0.5-0.9,0.9-1.8,1.2-2.8c0-0.2,0.2-0.3,0.4-0.4l1.2-0.3
											c0.1-0.6,0.1-1.2,0.1-1.8c0-0.6,0-1.2-0.1-1.8l-1.2-0.3c-0.2,0-0.3-0.2-0.4-0.4c-0.2-1-0.6-1.9-1.2-2.8
											c-0.1-0.2-0.1-0.4,0-0.5l0.7-1c-0.7-1-1.6-1.9-2.7-2.7l-1,0.7c-0.2,0.1-0.4,0.1-0.5,0c-0.9-0.5-1.8-0.9-2.8-1.2
											c-0.2,0-0.3-0.2-0.4-0.4l-0.3-1.2c-1.2-0.2-2.5-0.2-3.7,0l-0.3,1.2c0,0.2-0.2,0.3-0.4,0.4c-1,0.2-1.9,0.6-2.8,1.2
											c-0.2,0.1-0.4,0.1-0.5,0l-1-0.7c-1,0.7-1.9,1.6-2.7,2.7l0.7,1c0.1,0.2,0.1,0.4,0,0.5c-0.5,0.9-0.9,1.8-1.2,2.8
											c0,0.2-0.2,0.3-0.4,0.4l-1.2,0.3c-0.1,0.6-0.1,1.2-0.1,1.8c0,0.6,0,1.2,0.1,1.8l1.2,0.3c0.2,0,0.3,0.2,0.4,0.4
											c0.2,1,0.6,1.9,1.2,2.8c0.1,0.2,0.1,0.4,0,0.5l-0.7,1c0.7,1,1.6,1.9,2.7,2.7l1-0.7c0.2-0.1,0.4-0.1,0.5,0
											c0.9,0.5,1.8,0.9,2.8,1.2c0.2,0,0.3,0.2,0.4,0.4L507.5,54.2z M521.4,44.8L521.4,44.8L521.4,44.8z"/>
									</g>
								</g>
							</g>
						</g>
					</g>
				</g>
			</g>
			<g>
				<g>
					<g>
						<g>
							<path class="st14" d="M518.1,43.3c-0.2,0-0.4-0.1-0.5-0.3c-0.1-0.2,0-0.4,0.1-0.6c0.2-0.1,0.4-0.1,0.6,0
								c0.2,0.1,0.3,0.3,0.2,0.5C518.6,43.1,518.4,43.3,518.1,43.3z"/>
						</g>
					</g>
				</g>
			</g>
		</g>
		<g>
			<path class="st14" d="M509.4,36.4c-2.1,0-3.8,1.7-3.8,3.8c0,2.1,1.7,3.8,3.8,3.8c2.1,0,3.8-1.7,3.8-3.8
				C513.2,38.1,511.5,36.4,509.4,36.4z M509.4,43.1c-1.6,0-2.9-1.3-2.9-2.9c0-1.6,1.3-2.9,2.9-2.9v0c1.6,0,2.9,1.3,2.9,2.9
				C512.2,41.8,511,43.1,509.4,43.1z"/>
			<path class="st14" d="M509.4,33.6c-4.9,0-8.9,4-8.9,8.9s4,8.9,8.9,8.9c4.9,0,8.9-4,8.9-8.9S514.3,33.6,509.4,33.6z M513,49.6
				c-1.1,0.6-2.3,0.9-3.6,0.9c-1.3,0-2.5-0.3-3.6-0.9v-3.2c0-0.3,0.3-0.6,0.6-0.6h5.9c0.3,0,0.6,0.3,0.6,0.6V49.6z M513.9,49.1v-2.6
				c0-0.9-0.7-1.6-1.6-1.6h-5.9c-0.9,0-1.6,0.7-1.6,1.6v2.6c-2-1.4-3.4-3.8-3.4-6.5c0-4.4,3.6-7.9,7.9-7.9c4.4,0,7.9,3.6,7.9,7.9
				C517.3,45.3,516,47.6,513.9,49.1z"/>
		</g>
	</g>
</g>
<g>
	<g>
		<g>
			<circle class="st14" cx="250.8" cy="349.7" r="6.7"/>
		</g>
		<g>
			<g>
				<path class="st14" d="M221.6,329.9c-10.6-10.6-27.9-10.6-38.5,0c-10.6,10.6-10.6,27.9,0,38.5c10.6,10.6,27.9,10.6,38.5,0
					l18.7-18.7c0.3-0.3,0.3-0.8,0-1.1L221.6,329.9z"/>
				<g>
					<path d="M217.6,364.5c-8.4,8.4-22.2,8.4-30.6,0c-8.4-8.4-8.4-22.2,0-30.6c8.4-8.4,22.2-8.4,30.6,0
						C226.1,342.3,226.1,356,217.6,364.5L217.6,364.5z M187.5,334.3c-8.2,8.2-8.2,21.4,0,29.6c8.2,8.2,21.4,8.2,29.6,0
						c8.2-8.2,8.2-21.4,0-29.6C208.9,326.2,195.7,326.2,187.5,334.3z"/>
					<g>
						<path class="st22" d="M217.1,334.3c8.2,8.2,8.2,21.4,0,29.6c-8.2,8.2-21.4,8.2-29.6,0c-8.2-8.2-8.2-21.4,0-29.6
							C195.7,326.2,208.9,326.2,217.1,334.3z"/>
					</g>
				</g>
			</g>
		</g>
	</g>
	<g>
		<path class="st14" d="M213.7,337.8h-22.4c-0.8,0-1.5,0.7-1.5,1.5v19.3c0,0.8,0.7,1.5,1.5,1.5h22.4c0.8,0,1.5-0.7,1.5-1.5v-19.3
			C215.2,338.4,214.5,337.8,213.7,337.8z M191.3,338.8h22.4c0.3,0,0.5,0.2,0.5,0.5v1.5h-23.4v-1.5C190.8,339,191,338.8,191.3,338.8z
			 M213.7,359.1h-22.4c-0.3,0-0.5-0.2-0.5-0.5v-16.8h23.4v16.8C214.2,358.9,214,359.1,213.7,359.1z"/>
		<path class="st14" d="M197.2,345.9c-2.4,0-4.3,1.9-4.3,4.3s1.9,4.3,4.3,4.3c2.4,0,4.3-1.9,4.3-4.3
			C201.5,347.8,199.5,345.9,197.2,345.9z M197.2,353.5c-1.8,0-3.3-1.5-3.3-3.3c0-1.8,1.5-3.3,3.3-3.3c1.8,0,3.3,1.5,3.3,3.3
			C200.5,352.1,199,353.5,197.2,353.5z"/>
		<path class="st14" d="M207.8,345.9c-2.4,0-4.3,1.9-4.3,4.3s1.9,4.3,4.3,4.3s4.3-1.9,4.3-4.3C212.2,347.8,210.2,345.9,207.8,345.9z
			 M207.8,353.5c-1.8,0-3.3-1.5-3.3-3.3c0-1.8,1.5-3.3,3.3-3.3s3.3,1.5,3.3,3.3C211.2,352.1,209.7,353.5,207.8,353.5z"/>
		<path class="st14" d="M198.1,349.1l-1.2,1.2l-0.7-0.7c-0.2-0.2-0.5-0.2-0.7,0c-0.2,0.2-0.2,0.5,0,0.7l1,1c0.2,0.2,0.5,0.2,0.7,0
			l1.5-1.5c0.2-0.2,0.2-0.5,0-0.7C198.6,348.9,198.3,348.9,198.1,349.1z"/>
		<path class="st14" d="M209.2,348.9c-0.2-0.2-0.5-0.2-0.7,0l-0.7,0.7l-0.7-0.7c-0.2-0.2-0.5-0.2-0.7,0c-0.2,0.2-0.2,0.5,0,0.7
			l0.7,0.7l-0.7,0.7c-0.2,0.2-0.2,0.5,0,0.7c0.2,0.2,0.5,0.2,0.7,0l0.7-0.7l0.7,0.7c0.2,0.2,0.5,0.2,0.7,0c0.2-0.2,0.2-0.5,0-0.7
			l-0.7-0.7l0.7-0.7C209.4,349.4,209.4,349.1,209.2,348.9z"/>
	</g>
</g>
<g>
	<g>
		<g>
			<circle class="st14" cx="326.7" cy="531.8" r="6.7"/>
		</g>
		<g>
			<g>
				<g>
					<path class="st14" d="M292.1,538.5c-15,0-27.2,12.2-27.2,27.2c0,15,12.2,27.2,27.2,27.2c15,0,27.2-12.2,27.2-27.2l0-26.5
						c0-0.4-0.3-0.8-0.8-0.8L292.1,538.5z"/>
					<g>
						<path d="M313.8,565.7c0,11.9-9.7,21.7-21.7,21.7c-11.9,0-21.7-9.7-21.7-21.7c0-11.9,9.7-21.7,21.7-21.7
							C304,544.1,313.8,553.8,313.8,565.7L313.8,565.7z M271.1,565.7c0,11.6,9.4,20.9,20.9,20.9c11.6,0,20.9-9.4,20.9-20.9
							c0-11.6-9.4-21-20.9-20.9C280.5,544.8,271.1,554.2,271.1,565.7z"/>
						<g>
							<path class="st22" d="M292.1,544.8c11.6,0,20.9,9.4,20.9,20.9c0,11.6-9.4,20.9-20.9,20.9c-11.6,0-20.9-9.4-20.9-20.9
								C271.1,554.2,280.5,544.8,292.1,544.8z"/>
						</g>
					</g>
				</g>
			</g>
		</g>
	</g>
	<g>
		<path class="st14" d="M303.6,560.2c-0.7-0.8-1.7-1.4-2.8-1.6c-0.9-3.2-3.9-5.6-7.4-5.6c-2.6,0-5,1.3-6.4,3.5
			c-1.6-0.4-3.2,0.5-3.7,2.1c0,0,0,0.1,0,0.1c-2.7,0.7-4.4,3.4-3.8,6.1c0.2,0.8,0.5,1.5,1,2.1l0.7-0.5c-1.5-1.8-1.2-4.5,0.6-6
			c0.8-0.6,1.7-1,2.7-1c0.1,0,0.3,0,0.4,0l0.1-0.8c-0.2,0-0.3,0-0.5,0c-0.1,0-0.2,0-0.2,0c0.4-0.9,1.3-1.4,2.3-1.2
			c-0.1,0.2-0.2,0.4-0.3,0.7l0.8,0.3c1.3-3.5,5.2-5.3,8.7-4c2.6,1,4.4,3.5,4.4,6.4h0.8c0-0.4,0-0.7-0.1-1.1c1.8,0.5,3,2.2,3,4.1
			c0,0.9-0.3,1.7-0.8,2.4l0.7,0.5C305.2,564.6,305.1,562,303.6,560.2L303.6,560.2z"/>
		<path class="st14" d="M289.5,562.3h-6.4c-0.9,0-1.7,0.8-1.7,1.7v0.8c0,0.5,0.2,1,0.6,1.3c-0.4,0.3-0.6,0.8-0.6,1.3v0.8
			c0,0.5,0.2,1,0.6,1.3c-0.4,0.3-0.6,0.8-0.6,1.3v0.8c0,0.9,0.8,1.7,1.7,1.7h6.4c0.9,0,1.7-0.8,1.7-1.7v-0.8c0-0.5-0.2-1-0.6-1.3
			c0.4-0.3,0.6-0.8,0.6-1.3v-0.8c0-0.5-0.2-1-0.6-1.3c0.4-0.3,0.6-0.8,0.6-1.3V564C291.2,563.1,290.5,562.3,289.5,562.3z
			 M290.4,570.8v0.8c0,0.5-0.4,0.8-0.8,0.8h-6.4c-0.5,0-0.8-0.4-0.8-0.8v-0.8c0-0.5,0.4-0.8,0.8-0.8h6.4
			C290,570,290.4,570.3,290.4,570.8z M290.4,567.4v0.8c0,0.5-0.4,0.8-0.8,0.8h-6.4c-0.5,0-0.8-0.4-0.8-0.8v-0.8
			c0-0.5,0.4-0.8,0.8-0.8h6.4C290,566.6,290.4,566.9,290.4,567.4z M283.2,565.7c-0.5,0-0.8-0.4-0.8-0.8V564c0-0.5,0.4-0.8,0.8-0.8
			h6.4c0.5,0,0.8,0.4,0.8,0.8v0.8c0,0.5-0.4,0.8-0.8,0.8H283.2z"/>
		<path class="st14" d="M301,564.4h-3.4c-0.9,0-1.7,0.8-1.7,1.7v2.5c0,0.9,0.8,1.7,1.7,1.7h3.4c0.9,0,1.7-0.8,1.7-1.7v-2.5
			C302.7,565.2,301.9,564.4,301,564.4z M301.8,566.1v0.2c-0.3-0.1-0.6-0.2-0.8-0.2h-0.9c-0.3,0-0.6-0.2-0.8-0.5l-0.1-0.3
			c0,0,0-0.1,0-0.1h1.9C301.5,565.3,301.8,565.7,301.8,566.1z M301.8,568.7c0,0.5-0.4,0.8-0.8,0.8h-3.4c-0.5,0-0.8-0.4-0.8-0.8v-2.5
			c0-0.5,0.4-0.8,0.8-0.8h0.1c0.3,0,0.6,0.2,0.8,0.5l0.1,0.3c0.3,0.6,0.9,0.9,1.5,0.9h0.9c0.5,0,0.8,0.4,0.8,0.8V568.7z"/>
		<path class="st14" d="M301,572.5h-3.4c-0.9,0-1.7,0.8-1.7,1.7v2.5c0,0.9,0.8,1.7,1.7,1.7h3.4c0.9,0,1.7-0.8,1.7-1.7v-2.5
			C302.7,573.3,301.9,572.5,301,572.5z M301.8,574.2v0.2c-0.3-0.1-0.6-0.2-0.8-0.2h-0.9c-0.3,0-0.6-0.2-0.8-0.5l-0.1-0.3
			c0,0,0-0.1,0-0.1h1.9C301.5,573.4,301.8,573.7,301.8,574.2z M301.8,576.8c0,0.5-0.4,0.8-0.8,0.8h-3.4c-0.5,0-0.8-0.4-0.8-0.8v-2.5
			c0-0.5,0.4-0.8,0.8-0.8h0.1c0.3,0,0.6,0.2,0.8,0.5l0.1,0.3c0.3,0.6,0.9,0.9,1.5,0.9h0.9c0.5,0,0.8,0.4,0.8,0.8V576.8z"/>
		<path class="st14" d="M291.7,567v0.8h1.3v8.1c0,0.2,0.2,0.4,0.4,0.4h1.7v-0.8h-1.3v-7.6h1.3V567H291.7z"/>
	</g>
</g>
<g>
	<g>
		<g>
			<circle class="st14" cx="691.6" cy="531.8" r="6.7"/>
		</g>
		<g>
			<g>
				<path class="st14" d="M698.2,566.5c0,15,12.2,27.2,27.2,27.2c15,0,27.2-12.2,27.2-27.2c0-15-12.2-27.2-27.2-27.2l-26.5,0
					c-0.4,0-0.8,0.3-0.8,0.8L698.2,566.5z"/>
				<g>
					<path d="M725.4,544.8c11.9,0,21.7,9.7,21.7,21.7c0,11.9-9.7,21.7-21.7,21.7c-11.9,0-21.7-9.7-21.7-21.7
						C703.8,554.5,713.5,544.8,725.4,544.8L725.4,544.8z M725.4,587.4c11.6,0,20.9-9.4,20.9-20.9c0-11.6-9.4-20.9-20.9-20.9
						c-11.6,0-21,9.4-20.9,20.9C704.5,578.1,713.9,587.4,725.4,587.4z"/>
					<g>
						<path class="st22" d="M704.5,566.5c0-11.6,9.4-20.9,20.9-20.9c11.6,0,20.9,9.4,20.9,20.9c0,11.6-9.4,20.9-20.9,20.9
							C713.9,587.4,704.5,578.1,704.5,566.5z"/>
					</g>
				</g>
			</g>
		</g>
	</g>
	<g>
		<g>
			<g>
				<rect x="734.3" y="568.3" class="st14" width="1.1" height="6"/>
				<path class="st14" d="M716.6,574.3h-1.1v-12c0-0.7,0.5-1.2,1.2-1.2h3.8v1.1h-3.8c-0.1,0-0.1,0-0.1,0.1V574.3z"/>
				<path class="st14" d="M736.2,576.6h-21.4c-0.8,0-1.6-0.6-1.8-0.7l-0.2-0.2v-2h25.5v2l-0.2,0.2
					C737.8,575.9,736.9,576.6,736.2,576.6z M713.8,575.1c0.3,0.2,0.7,0.4,0.9,0.4h21.4c0.2,0,0.6-0.2,0.9-0.4v-0.3h-23.3V575.1z"/>
			</g>
			<g>
				<path class="st14" d="M729.9,570.1l-1.6-2.9h-5.4c-0.7,0-1.3-0.6-1.3-1.4v-7.9c0-0.8,0.6-1.4,1.3-1.4h14c0.7,0,1.3,0.6,1.3,1.4
					v7.9c0,0.8-0.6,1.4-1.3,1.4h-5.4L729.9,570.1z M722.9,557.5c-0.1,0-0.2,0.1-0.2,0.3v7.9c0,0.2,0.1,0.3,0.2,0.3h6.1l0.9,1.7
					l0.9-1.7h6.1c0.1,0,0.2-0.1,0.2-0.3v-7.9c0-0.2-0.1-0.3-0.2-0.3H722.9z"/>
			</g>
		</g>
	</g>
</g>
<g>
	<g>
		<g>
			<circle class="st14" cx="509.9" cy="607.9" r="6.7"/>
		</g>
		<g>
			<g>
				<path class="st14" d="M490.1,637.1c-10.6,10.6-10.6,27.9,0,38.5c10.6,10.6,27.9,10.6,38.5,0c10.6-10.6,10.6-27.9,0-38.5
					l-18.7-18.7c-0.3-0.3-0.8-0.3-1.1,0L490.1,637.1z"/>
				<g>
					<path d="M524.7,641c8.4,8.4,8.4,22.2,0,30.6c-8.4,8.4-22.2,8.4-30.6,0c-8.4-8.4-8.4-22.2,0-30.6
						C502.5,632.6,516.3,632.6,524.7,641L524.7,641z M494.6,671.2c8.2,8.2,21.4,8.2,29.6,0c8.2-8.2,8.2-21.4,0-29.6
						c-8.2-8.2-21.4-8.2-29.6,0C486.4,649.7,486.4,663,494.6,671.2z"/>
					<g>
						<path class="st22" d="M494.6,641.5c8.2-8.2,21.4-8.2,29.6,0c8.2,8.2,8.2,21.4,0,29.6c-8.2,8.2-21.4,8.2-29.6,0
							C486.4,663,486.4,649.7,494.6,641.5z"/>
					</g>
				</g>
			</g>
		</g>
	</g>
	<g>
		<path class="st14" d="M505.1,651.7c0.1,0.1,0.2,0.1,0.4,0.1c0.1,0,0.3,0,0.4-0.1l1.8-1.8c0.2-0.2,0.2-0.5,0-0.7
			c-0.2-0.2-0.5-0.2-0.7,0l-1.4,1.4l-0.4-0.4c-0.2-0.2-0.5-0.2-0.7,0c-0.2,0.2-0.2,0.5,0,0.7L505.1,651.7z"/>
		<path class="st14" d="M505.1,656.2c0.1,0.1,0.2,0.1,0.4,0.1c0.1,0,0.3,0,0.4-0.1l1.8-1.8c0.2-0.2,0.2-0.5,0-0.7
			c-0.2-0.2-0.5-0.2-0.7,0l-1.4,1.4l-0.4-0.4c-0.2-0.2-0.5-0.2-0.7,0c-0.2,0.2-0.2,0.5,0,0.7L505.1,656.2z"/>
		<path class="st14" d="M505.1,660.8c0.1,0.1,0.2,0.1,0.4,0.1c0.1,0,0.3,0,0.4-0.1l1.8-1.8c0.2-0.2,0.2-0.5,0-0.7
			c-0.2-0.2-0.5-0.2-0.7,0l-1.4,1.4l-0.4-0.4c-0.2-0.2-0.5-0.2-0.7,0c-0.2,0.2-0.2,0.5,0,0.7L505.1,660.8z"/>
		<path class="st14" d="M509,651.9h5.2c0.3,0,0.5-0.2,0.5-0.5s-0.2-0.5-0.5-0.5H509c-0.3,0-0.5,0.2-0.5,0.5S508.7,651.9,509,651.9z"
			/>
		<path class="st14" d="M509,656.4h5.2c0.3,0,0.5-0.2,0.5-0.5s-0.2-0.5-0.5-0.5H509c-0.3,0-0.5,0.2-0.5,0.5S508.7,656.4,509,656.4z"
			/>
		<path class="st14" d="M509,660.9h5.2c0.3,0,0.5-0.2,0.5-0.5s-0.2-0.5-0.5-0.5H509c-0.3,0-0.5,0.2-0.5,0.5S508.7,660.9,509,660.9z"
			/>
		<path class="st14" d="M521.6,665h-1.5v-10.4c0-0.8-0.7-1.5-1.5-1.5h-1.8v-4.5c0-0.1-0.1-0.3-0.1-0.4l-4-4
			c-0.1-0.1-0.2-0.1-0.4-0.1h-9.9c-0.3,0-0.5,0.2-0.5,0.5v8.5h-1.8c-0.8,0-1.5,0.7-1.5,1.5V665h-1.5c-0.3,0-0.5,0.2-0.5,0.5
			c0,1.4,1.1,2.5,2.5,2.5h7h1h4.5h2.4h5.6c1.4,0,2.5-1.1,2.5-2.5C522.1,665.2,521.9,665,521.6,665z M512.9,645.8l2.3,2.3h-2.3V645.8
			z M502.9,645.1h8.9v3.5c0,0.3,0.2,0.5,0.5,0.5h3.5V663h-12.9V645.1z M499.6,654.6c0-0.3,0.2-0.5,0.5-0.5h1.8v9.4
			c0,0.3,0.2,0.5,0.5,0.5h13.9c0.3,0,0.5-0.2,0.5-0.5v-9.4h1.8c0.3,0,0.5,0.2,0.5,0.5V665h-19.5V654.6z M519.6,667H514h-2.4h-4.5h-1
			h-7c-0.6,0-1.2-0.4-1.4-1H521C520.8,666.6,520.3,667,519.6,667z"/>
	</g>
</g>
<g>
	<g>
		<g>
			<circle class="st14" cx="767.6" cy="349.5" r="6.7"/>
		</g>
		<g>
			<g>
				<path class="st14" d="M796.8,369.3c10.6,10.6,27.9,10.6,38.5,0c10.6-10.6,10.6-27.9,0-38.5c-10.6-10.6-27.9-10.6-38.5,0
					l-18.7,18.7c-0.3,0.3-0.3,0.8,0,1.1L796.8,369.3z"/>
				<g>
					<path d="M800.7,334.8c8.4-8.4,22.2-8.4,30.6,0c8.4,8.4,8.4,22.2,0,30.6c-8.4,8.4-22.2,8.4-30.6,0
						C792.3,357,792.3,343.2,800.7,334.8L800.7,334.8z M830.9,364.9c8.2-8.2,8.2-21.4,0-29.6c-8.2-8.2-21.4-8.2-29.6,0
						c-8.2,8.2-8.2,21.4,0,29.6C809.4,373.1,822.7,373.1,830.9,364.9z"/>
					<g>
						<path class="st22" d="M801.3,364.9c-8.2-8.2-8.2-21.4,0-29.6c8.2-8.2,21.4-8.2,29.6,0c8.2,8.2,8.2,21.4,0,29.6
							C822.7,373.1,809.4,373.1,801.3,364.9z"/>
					</g>
				</g>
			</g>
		</g>
	</g>
	<g>
		<g>
			<path class="st14" d="M816.6,349.8c0-2.5-2-4.5-4.5-4.5c-0.9,0-1.7,0.2-2.4,0.7c-0.2,0.1-0.3,0.5-0.2,0.7
				c0.1,0.2,0.5,0.3,0.7,0.2c0.4-0.3,0.9-0.4,1.4-0.5v3.3l-2.3,2.3c-0.4-0.5-0.6-1.2-0.7-1.8c0-0.3-0.3-0.5-0.5-0.5
				c-0.3,0-0.5,0.3-0.5,0.5c0,0.1,0,0.3,0.1,0.4c0.1,0.8,0.5,1.6,1.1,2.3c0,0,0.1,0.1,0.1,0.1c0,0,0,0,0,0c0.9,0.9,2,1.3,3.2,1.3
				C814.6,354.3,816.6,352.3,816.6,349.8L816.6,349.8z M812.4,350.1c0.1-0.1,0.1-0.2,0.1-0.4v-3.5c1.7,0.2,3,1.7,3,3.5
				c0,2-1.6,3.5-3.5,3.5c-0.8,0-1.5-0.3-2.1-0.7L812.4,350.1z"/>
			<path class="st14" d="M815,355.8c-0.1-0.2-0.5-0.3-0.7-0.1c-0.2,0.1-0.3,0.5-0.1,0.7C814.5,356.9,815.3,356.3,815,355.8
				L815,355.8z"/>
			<path class="st14" d="M817,358c-0.1-0.3-0.4-0.4-0.6-0.3c-0.3,0.1-0.4,0.4-0.3,0.6C816.4,358.9,817.3,358.6,817,358z"/>
			<path class="st14" d="M816.3,355.7l-2.1,2.1c-0.2,0.2-0.2,0.5,0,0.7c0.1,0.1,0.2,0.1,0.4,0.1c0.1,0,0.3,0,0.4-0.1l2.1-2.1
				c0.2-0.2,0.2-0.5,0-0.7C816.8,355.5,816.4,355.5,816.3,355.7z"/>
			<path class="st14" d="M822.9,340.2c-2.8,0-4.1,2.2-4.1,2.3c-0.1,0.2-0.1,0.3,0,0.5c0.1,0.1,1.3,2.3,4.1,2.3
				c2.8,0,4.1-2.2,4.1-2.3c0.1-0.2,0.1-0.3,0-0.5C826.9,342.4,825.7,340.2,822.9,340.2z M822.9,343.6c-0.5,0-0.9-0.4-0.9-0.9
				c0-0.5,0.4-0.9,0.9-0.9c0.5,0,0.9,0.4,0.9,0.9C823.8,343.2,823.4,343.6,822.9,343.6z M819.8,342.7c0.2-0.3,0.7-0.8,1.5-1.2
				c-0.2,0.3-0.4,0.7-0.4,1.1c0,0.5,0.2,1,0.5,1.3C820.6,343.7,820,343.1,819.8,342.7z M824.3,344c0.3-0.3,0.5-0.8,0.5-1.3
				c0-0.4-0.1-0.8-0.4-1.1c0.8,0.3,1.3,0.9,1.5,1.2C825.7,343.1,825.2,343.7,824.3,344z"/>
			<path class="st14" d="M808,348.2c0.1,0.2,0.4,0.4,0.6,0.3c0.3-0.1,0.4-0.4,0.3-0.7c-0.1-0.2-0.4-0.4-0.6-0.3
				C808,347.6,807.9,347.9,808,348.2L808,348.2z"/>
			<path class="st14" d="M826.6,337.4h-7.3c-1.1,0-2,0.9-2,2v2.5l0,0h-10.6c-1.1,0-2,0.9-2,2v0.8h-0.5c-0.3,0-0.5,0.2-0.5,0.5
				c0,0.3,0.2,0.5,0.5,0.5h0.5v2h-0.5c-0.3,0-0.5,0.2-0.5,0.5s0.2,0.5,0.5,0.5h0.5v2h-0.5c-0.3,0-0.5,0.2-0.5,0.5s0.2,0.5,0.5,0.5
				h0.5v2h-0.5c-0.3,0-0.5,0.2-0.5,0.5s0.2,0.5,0.5,0.5h0.5v2h-0.5c-0.3,0-0.5,0.2-0.5,0.5c0,0.3,0.2,0.5,0.5,0.5h0.5v0.9
				c0,1.1,0.9,2,2,2h0.5v0.3c0,1,0.8,1.9,1.9,1.9h11.8c0.3,0,0.5-0.2,0.5-0.5v-5.1c0,0,0,0,0,0v-4.4c0,0,0,0,0,0v-4.2h5.3
				c1.1,0,2-0.9,2-2v-7.3C828.6,338.3,827.7,337.4,826.6,337.4z M806.6,359.7c-0.6,0-1-0.5-1-1v-0.9h0.6c0.3,0,0.5-0.2,0.5-0.5
				c0-0.3-0.2-0.5-0.5-0.5h-0.6v-2h0.6c0.3,0,0.5-0.2,0.5-0.5s-0.2-0.5-0.5-0.5h-0.6v-2h0.6c0.3,0,0.5-0.2,0.5-0.5s-0.2-0.5-0.5-0.5
				h-0.6v-2h0.6c0.3,0,0.5-0.2,0.5-0.5s-0.2-0.5-0.5-0.5h-0.6v-2h0.6c0.3,0,0.5-0.2,0.5-0.5s-0.2-0.5-0.5-0.5h-0.6v-0.8
				c0-0.6,0.5-1,1-1h9.6l-1.2,1.2c-0.3,0.3-0.1,0.8,0.4,0.8h1.8v1.8c0,0.7,0.4,1.4,1,1.7v11.3H806.6z M820.3,361.8H809
				c-0.5,0-0.9-0.4-0.9-0.9v-0.3h10.5c0.3,0,0.5-0.2,0.5-0.5v-11.5c0,0,0,0,0,0c0,0,0,0,0,0h1v4.2c0,0,0,0,0,0v4.4c0,0,0,0,0,0
				V361.8z M827.6,346.7L827.6,346.7c0,0.6-0.5,1-1,1l-7.3,0c-0.6,0-1-0.5-1-1v-2.3c0-0.3-0.2-0.5-0.5-0.5h-1.2l1.5-1.6
				c0.1-0.1,0.1-0.2,0.1-0.3v-2.7c0-0.6,0.5-1,1-1h7.3c0.6,0,1,0.5,1,1V346.7z"/>
		</g>
	</g>
</g>
<g>
	<defs>
		<path id="SVGID_10_" d="M509.9,572.3c-30.1,0-59.3-5.9-86.8-17.5c-26.5-11.2-50.4-27.3-70.9-47.8s-36.5-44.3-47.8-70.9
			c-11.6-27.5-17.5-56.7-17.5-86.8c0-30.1,5.9-59.3,17.5-86.8c11.2-26.5,27.3-50.4,47.8-70.9s44.3-36.5,70.9-47.8
			c27.5-11.6,56.7-17.5,86.8-17.5s59.3,5.9,86.8,17.5c26.5,11.2,50.4,27.3,70.9,47.8c20.5,20.5,36.5,44.3,47.8,70.9
			c11.6,27.5,17.5,56.7,17.5,86.8c0,30.1-5.9,59.3-17.5,86.8c-11.2,26.5-27.3,50.4-47.8,70.9c-20.5,20.5-44.3,36.5-70.9,47.8
			C569.2,566.4,540,572.3,509.9,572.3z M509.9,152.8c-26.5,0-52.3,5.2-76.5,15.4c-23.4,9.9-44.4,24.1-62.5,42.1
			c-18.1,18.1-32.2,39.1-42.1,62.5c-10.2,24.2-15.4,50-15.4,76.5c0,26.5,5.2,52.3,15.4,76.5c9.9,23.4,24.1,44.4,42.1,62.5
			c18.1,18.1,39.1,32.2,62.5,42.1c24.2,10.2,50,15.4,76.5,15.4s52.3-5.2,76.5-15.4c23.4-9.9,44.4-24.1,62.5-42.1
			c18.1-18.1,32.2-39.1,42.1-62.5c10.2-24.2,15.4-50,15.4-76.5c0-26.5-5.2-52.3-15.4-76.5c-9.9-23.4-24.1-44.4-42.1-62.5
			c-18.1-18.1-39.1-32.2-62.5-42.1C562.2,158,536.5,152.8,509.9,152.8z"/>
	</defs>
	<clipPath id="SVGID_11_">
		<use xlink:href="#SVGID_10_"  style="overflow:visible;"/>
	</clipPath>
	<g class="st23">
		<path class="st24" d="M478.5,170.9C478.5,170.9,478.5,170.9,478.5,170.9L478.5,170.9L478.5,170.9z"/>
		<path class="st24" d="M541.4,170.9L541.4,170.9L541.4,170.9C541.4,170.9,541.4,170.9,541.4,170.9z"/>
		<polygon class="st24" points="551.4,114 551.4,114 551.4,114 551.4,114 		"/>
		<path class="st24" d="M546.7,141l-15.9-29.6h0c-6.9-0.6-13.8-0.9-20.8-0.9l18.4,28.1l1.2,1.9l-1.6,2.2l-18.1,25.5
			c5.3,0,10.6,0.2,15.8,0.7l0,0l0,0L546,145l1.8-2.1L546.7,141z"/>
		<path class="st24" d="M509.9,137.7l-20.8-26.4l0,0c-6.9,0.6-13.8,1.5-20.7,2.7l23,24.5l1.5,1.6l-1.2,2.5l-13.4,28.3
			c5.2-0.9,10.5-1.6,15.7-2.1l0,0l0,0l15.8-27l1.4-2.4L509.9,137.7z"/>
		<path class="st24" d="M473.2,141l-25.1-22.4l0,0c-6.7,1.8-13.3,3.9-19.9,6.3l27,20.1l1.8,1.3l-0.7,2.7l-8.3,30.2
			c5-1.8,10-3.4,15.1-4.7l0,0v0l10.9-29.4l0.9-2.6L473.2,141z"/>
		<path class="st24" d="M437.6,150.5L409,132.8c0,0,0,0,0,0c-6.2,2.9-12.4,6.1-18.5,9.6l30,15.1l2,1l-0.3,2.7l-2.9,31.2
			c4.6-2.7,9.3-5.1,14-7.3l0,0l0,0l5.6-30.8l0.5-2.7L437.6,150.5z"/>
		<path class="st24" d="M404.1,166.1l-31.2-12.5c0,0,0,0,0,0c-5.6,4-11.2,8.2-16.5,12.7l32.2,9.7l2.1,0.6l0.2,2.7l2.6,31.2
			c4.1-3.4,8.3-6.6,12.5-9.6l0,0h0l0.2-31.3l0-2.7L404.1,166.1z"/>
		<path class="st24" d="M373.9,187.3l-32.9-6.9c0,0,0,0,0,0c-4.9,4.9-9.6,10-14.1,15.4l33.4,3.9l2.2,0.3l0.7,2.7l7.9,30.3
			c3.4-4.1,7-8,10.7-11.6l0,0l0,0l-5.3-30.9l-0.5-2.7L373.9,187.3z"/>
		<path class="st24" d="M347.8,213.3l-33.6-1c0,0,0,0,0,0c-3.9,5.7-7.7,11.5-11.2,17.6l33.6-1.9l2.2-0.1l1.1,2.5l13.1,28.4
			c2.7-4.6,5.5-9,8.5-13.3l0,0l0,0L351,216l-0.9-2.6L347.8,213.3z"/>
		<path class="st24" d="M326.7,243.6l-33.3,4.8c0,0,0,0,0,0c-2.9,6.2-5.6,12.7-8,19.3l32.7-7.7l2.2-0.5l1.6,2.3l17.8,25.7
			c1.8-5,3.8-9.9,6-14.6c0,0,0,0,0,0h0l-15.5-27.2l-1.4-2.4L326.7,243.6z"/>
		<path class="st24" d="M311.1,277l-31.9,10.5c0,0,0,0,0,0c-1.8,6.7-3.3,13.4-4.5,20.3l30.9-13.3l2.1-0.9l1.9,1.9l22,22.2
			c0.9-5.2,2.1-10.4,3.4-15.4c0,0,0,0,0,0h0l-20-24.1l-1.8-2.1L311.1,277z"/>
		<path class="st24" d="M301.5,312.6l-29.6,15.9c0,0,0,0,0,0c-0.6,6.9-0.9,13.8-0.9,20.8l28.1-18.4l1.9-1.2l2.2,1.6l25.5,18.1
			c0-5.3,0.2-10.6,0.7-15.8l0,0h0l-23.9-20.2l-2.1-1.8L301.5,312.6z"/>
		<path class="st24" d="M298.3,349.4l-26.4,20.8l0,0c0.6,6.9,1.5,13.8,2.7,20.7l24.5-23l1.6-1.5l2.5,1.2l28.3,13.4
			c-0.9-5.2-1.6-10.5-2.1-15.7l0,0h0l-27-15.8l-2.4-1.4L298.3,349.4z"/>
		<path class="st24" d="M301.5,386.1l-22.4,25.1c0,0,0,0,0,0c1.8,6.6,3.9,13.3,6.3,19.9l20.1-27l1.3-1.8l2.6,0.7l30.2,8.3
			c-1.8-5-3.4-10-4.7-15.1l0,0h0l-29.4-10.9l-2.6-0.9L301.5,386.1z"/>
		<path class="st24" d="M311.1,421.7l-17.7,28.6l0,0c2.9,6.2,6.1,12.4,9.6,18.5l15.1-30l1-2l2.7,0.3l31.2,2.9
			c-2.7-4.6-5.1-9.3-7.3-14l0,0l0,0l-30.8-5.6l-2.7-0.5L311.1,421.7z"/>
		<path class="st24" d="M326.7,455.2l-12.5,31.2c0,0,0,0,0,0c4,5.6,8.2,11.2,12.7,16.5l9.7-32.2l0.6-2.1l2.7-0.2l31.2-2.6
			c-3.4-4.1-6.6-8.3-9.6-12.5l0,0l0,0l-31.3-0.2l-2.7,0L326.7,455.2z"/>
		<path class="st24" d="M347.8,485.4l-6.9,32.9l0,0c4.9,4.9,10,9.6,15.4,14.1l3.9-33.4l0.3-2.2l2.7-0.7l30.3-7.9
			c-4.1-3.4-7.9-7-11.7-10.7c0,0,0,0,0,0l0,0l-30.9,5.3l-2.7,0.5L347.8,485.4z"/>
		<path class="st24" d="M373.9,511.5l-1,33.6l0,0c5.7,3.9,11.5,7.7,17.6,11.2l-1.9-33.6l-0.1-2.2l2.5-1.1l28.4-13.1
			c-4.6-2.7-9-5.5-13.3-8.5c0,0,0,0,0,0l0,0l-29.5,10.6l-2.6,0.9L373.9,511.5z"/>
		<path class="st24" d="M404.1,532.6l4.8,33.3l0,0c6.2,2.9,12.7,5.6,19.3,8l-7.7-32.7L420,539l2.3-1.6l25.7-17.8
			c-5-1.8-9.9-3.8-14.6-6.1l0,0l0,0l-27.2,15.5l-2.4,1.4L404.1,532.6z"/>
		<path class="st24" d="M437.6,548.2l10.5,31.9l0,0c6.7,1.8,13.4,3.3,20.3,4.5l-13.3-30.9l-0.9-2.1l1.9-1.9l22.2-22
			c-5.2-0.9-10.4-2.1-15.4-3.4l0,0v0l-24.1,20l-2.1,1.8L437.6,548.2z"/>
		<path class="st24" d="M473.2,557.8l15.9,29.6c0,0,0,0,0,0c6.9,0.6,13.8,0.9,20.8,0.9l-18.4-28.1l-1.2-1.9l1.6-2.2l18.1-25.5
			c-5.3,0-10.6-0.2-15.8-0.7c0,0,0,0,0,0h0l-20.2,23.9l-1.8,2.1L473.2,557.8z"/>
		<path class="st24" d="M509.9,561l20.8,26.4l0,0c6.9-0.6,13.8-1.5,20.7-2.7l-23-24.5l-1.5-1.6l1.2-2.5l13.4-28.3
			c-5.2,0.9-10.5,1.6-15.7,2.1l0,0l0,0l-15.8,27l-1.4,2.4L509.9,561z"/>
		<path class="st24" d="M546.7,557.8l25.1,22.4l0,0c6.7-1.8,13.3-3.9,19.9-6.3l-27-20.1l-1.8-1.3l0.7-2.7l8.3-30.2
			c-5,1.8-10,3.4-15.1,4.7c0,0,0,0,0,0l0,0L546,553.7l-1,2.6L546.7,557.8z"/>
		<path class="st24" d="M582.3,548.2l28.6,17.7l0,0c6.2-2.9,12.4-6.1,18.5-9.6l-30-15.1l-2-1l0.3-2.7l2.9-31.2
			c-4.6,2.7-9.3,5.1-14,7.3l0,0l0,0l-5.6,30.8l-0.5,2.7L582.3,548.2z"/>
		<path class="st24" d="M615.7,532.6l31.2,12.5l0,0c5.6-4,11.2-8.2,16.5-12.7l-32.2-9.7l-2.1-0.6l-0.2-2.7l-2.6-31.2
			c-4.1,3.4-8.3,6.6-12.5,9.6c0,0,0,0,0,0h0l-0.2,31.3l0,2.7L615.7,532.6z"/>
		<path class="st24" d="M646,511.5l32.9,6.9c0,0,0,0,0,0c4.9-4.9,9.6-10,14.1-15.4l-33.4-3.9l-2.2-0.3l-0.7-2.7l-7.9-30.3
			c-3.4,4.1-7,8-10.7,11.7c0,0,0,0,0,0h0l5.3,30.9l0.5,2.7L646,511.5z"/>
		<path class="st24" d="M672,485.4l33.6,1c0,0,0,0,0,0c3.9-5.7,7.7-11.5,11.2-17.6l-33.6,1.9l-2.2,0.1l-1.1-2.5l-13.1-28.4
			c-2.7,4.6-5.5,9-8.5,13.3c0,0,0,0,0,0h0l10.6,29.5l0.9,2.6L672,485.4z"/>
		<path class="st24" d="M693.2,455.2l33.3-4.8l0,0c2.9-6.3,5.6-12.7,8-19.3l-32.7,7.7l-2.2,0.5L698,437l-17.8-25.7
			c-1.8,5-3.8,9.9-6.1,14.6c0,0,0,0,0,0h0l15.5,27.2l1.4,2.4L693.2,455.2z"/>
		<path class="st24" d="M708.8,421.7l31.9-10.5l0,0c1.8-6.7,3.3-13.4,4.5-20.4l-30.9,13.3l-2.1,0.9l-1.9-1.9l-22-22.2
			c-0.9,5.2-2.1,10.4-3.4,15.4l0,0h0l20,24.1l1.8,2.1L708.8,421.7z"/>
		<path class="st24" d="M718.3,386.1l29.6-15.9l0,0c0.6-6.9,0.9-13.8,0.9-20.8l-28.1,18.4l-1.9,1.2l-2.2-1.6l-25.5-18.1
			c0,5.3-0.2,10.6-0.7,15.8c0,0,0,0,0,0h0l23.9,20.2l2.1,1.8L718.3,386.1z"/>
		<path class="st24" d="M721.5,349.4l26.4-20.8l0,0c-0.6-6.9-1.5-13.8-2.7-20.7l-24.5,23.1l-1.6,1.5l-2.5-1.2l-28.3-13.4
			c0.9,5.2,1.6,10.5,2.1,15.7c0,0,0,0,0,0h0l27,15.8l2.4,1.4L721.5,349.4z"/>
		<path class="st24" d="M718.3,312.6l22.4-25.1l0,0c-1.8-6.7-3.9-13.3-6.3-19.9l-20.1,27l-1.3,1.8l-2.7-0.7l-30.2-8.3
			c1.8,5,3.4,10,4.7,15.1c0,0,0,0,0,0l0,0l29.4,10.9l2.6,0.9L718.3,312.6z"/>
		<path class="st24" d="M708.8,277l17.7-28.6l0,0c-2.9-6.2-6.1-12.4-9.6-18.5l-15.1,30l-1,2l-2.7-0.2l-31.2-2.9
			c2.7,4.6,5.1,9.3,7.3,14c0,0,0,0,0,0v0l30.8,5.6l2.7,0.5L708.8,277z"/>
		<path class="st24" d="M693.2,243.6l12.5-31.2l0,0c-4-5.6-8.2-11.2-12.7-16.5l-9.7,32.2l-0.6,2.1l-2.7,0.2l-31.2,2.6
			c3.4,4.1,6.6,8.3,9.6,12.5c0,0,0,0,0,0l0,0l31.3,0.2l2.7,0L693.2,243.6z"/>
		<path class="st24" d="M672,213.3l6.8-32.9l0,0c-4.9-4.9-10-9.6-15.4-14.1l-4,33.4l-0.3,2.2l-2.7,0.7l-30.3,7.9
			c4.1,3.4,7.9,7,11.7,10.7c0,0,0,0,0,0v0l30.9-5.3l2.7-0.5L672,213.3z"/>
		<path class="st24" d="M646,187.3l1-33.6l0,0c-5.6-3.9-11.5-7.7-17.6-11.2l1.9,33.6l0.1,2.2l-2.5,1.1l-28.4,13.1
			c4.6,2.7,9,5.5,13.3,8.5c0,0,0,0,0,0l0,0l29.5-10.5l2.6-0.9L646,187.3z"/>
		<path class="st24" d="M615.7,166.1l-4.8-33.3l0,0c-6.2-2.9-12.7-5.6-19.3-8l7.7,32.7l0.5,2.2l-2.3,1.6l-25.7,17.8
			c5,1.8,9.9,3.8,14.6,6.1l0,0l0,0l27.2-15.5l2.4-1.4L615.7,166.1z"/>
		<path class="st24" d="M582.3,150.5l-10.5-31.9c0,0,0,0,0,0c-6.7-1.8-13.4-3.3-20.3-4.5l13.3,30.9l0.9,2.1l-2,1.9l-22.2,22
			c5.2,0.9,10.4,2.1,15.4,3.4c0,0,0,0,0,0v0l24.1-20l2.1-1.8L582.3,150.5z"/>
	</g>
</g>
<g>
	<path class="st6" d="M434.9,214.4H431l-1,3h-1.5l3.7-10.3h1.5l3.7,10.3h-1.5L434.9,214.4z M432.9,208.5c0,0-0.2,0.9-0.4,1.5
		l-1.2,3.3h3.1l-1.1-3.3C433.2,209.4,432.9,208.5,432.9,208.5L432.9,208.5z"/>
	<path class="st6" d="M447.2,206.9c2.5,0,3.8,1.4,3.8,1.4l-0.7,1.1c0,0-1.2-1.1-3-1.1c-2.3,0-3.8,1.8-3.8,4c0,2.2,1.5,4.1,3.8,4.1
		c1.9,0,3.2-1.3,3.2-1.3l0.8,1c0,0-1.4,1.6-4,1.6c-3.1,0-5.3-2.4-5.3-5.4C442,209.2,444.2,206.9,447.2,206.9z"/>
	<path class="st6" d="M456.4,209.8c2.2,0,4,1.6,4,3.9c0,2.3-1.8,3.9-4,3.9c-2.2,0-4-1.6-4-3.9C452.4,211.4,454.2,209.8,456.4,209.8z
		 M456.4,216.3c1.4,0,2.5-1.1,2.5-2.7c0-1.5-1.1-2.6-2.5-2.6c-1.4,0-2.5,1.1-2.5,2.6C453.9,215.2,455,216.3,456.4,216.3z"/>
	<path class="st6" d="M462.1,210h1.4v1c0,0.3,0,0.5,0,0.5h0c0.4-0.9,1.4-1.7,2.5-1.7c1.2,0,2,0.6,2.2,1.7h0c0.4-0.9,1.4-1.7,2.6-1.7
		c1.7,0,2.4,1,2.4,2.8v4.7h-1.4V213c0-1-0.2-1.9-1.3-1.9c-1,0-1.8,0.9-2.1,1.9c-0.1,0.3-0.1,0.6-0.1,1v3.4H467V213
		c0-1-0.1-1.9-1.3-1.9c-1.1,0-1.8,0.9-2.1,1.9c-0.1,0.3-0.1,0.6-0.1,1v3.4h-1.4V210z"/>
	<path class="st6" d="M475.5,207.1h1.4v3.4c0,0.4,0,0.6,0,0.6h0c0,0,0.6-1.3,2.4-1.3c2,0,3.3,1.6,3.3,3.9c0,2.4-1.4,3.9-3.4,3.9
		c-1.7,0-2.3-1.3-2.3-1.3h0c0,0,0,0.2,0,0.6v0.5h-1.3V207.1z M479,216.4c1.2,0,2.1-1,2.1-2.7c0-1.6-0.9-2.6-2.1-2.6
		c-1.1,0-2.1,0.8-2.1,2.7C476.9,215,477.6,216.4,479,216.4z"/>
	<path class="st6" d="M484.3,207.1h1.4v1.4h-1.4V207.1z M484.3,210h1.4v7.4h-1.4V210z"/>
	<path class="st6" d="M487.9,210h1.4v1c0,0.3,0,0.5,0,0.5h0c0.3-0.6,1.2-1.7,2.8-1.7c1.7,0,2.5,1,2.5,2.8v4.7h-1.4V213
		c0-1-0.2-1.9-1.4-1.9c-1.1,0-2,0.7-2.3,1.8c-0.1,0.3-0.1,0.6-0.1,1v3.5h-1.4V210z"/>
	<path class="st6" d="M500.6,212.8h0.3v-0.1c0-1.2-0.7-1.6-1.6-1.6c-1.1,0-2.1,0.7-2.1,0.7l-0.6-1c0,0,1.1-0.9,2.8-0.9
		c1.9,0,2.9,1,2.9,2.9v4.7H501v-0.7c0-0.3,0-0.6,0-0.6h0c0,0-0.6,1.5-2.4,1.5c-1.3,0-2.5-0.8-2.5-2.3
		C496.1,212.9,499.4,212.8,500.6,212.8z M499,216.4c1.2,0,2-1.3,2-2.4v-0.2h-0.4c-1.1,0-3,0.1-3,1.4
		C497.6,215.8,498,216.4,499,216.4z"/>
	<path class="st6" d="M504.7,211.2h-1v-1.1h1v-2.1h1.4v2.1h1.8v1.1h-1.8v3.3c0,1.5,1,1.7,1.6,1.7c0.2,0,0.3,0,0.3,0v1.3
		c0,0-0.2,0-0.5,0c-1,0-2.8-0.3-2.8-2.8V211.2z"/>
	<path class="st6" d="M509.7,207.1h1.4v1.4h-1.4V207.1z M509.7,210h1.4v7.4h-1.4V210z"/>
	<path class="st6" d="M516.8,209.8c2.2,0,4,1.6,4,3.9c0,2.3-1.8,3.9-4,3.9c-2.2,0-4-1.6-4-3.9C512.8,211.4,514.6,209.8,516.8,209.8z
		 M516.8,216.3c1.4,0,2.5-1.1,2.5-2.7c0-1.5-1.1-2.6-2.5-2.6c-1.4,0-2.5,1.1-2.5,2.6C514.2,215.2,515.4,216.3,516.8,216.3z"/>
	<path class="st6" d="M522.4,210h1.4v1c0,0.3,0,0.5,0,0.5h0c0.3-0.6,1.2-1.7,2.8-1.7c1.7,0,2.5,1,2.5,2.8v4.7h-1.4V213
		c0-1-0.2-1.9-1.4-1.9c-1.1,0-2,0.7-2.3,1.8c-0.1,0.3-0.1,0.6-0.1,1v3.5h-1.4V210z"/>
	<path class="st6" d="M538.5,209.8c2.2,0,4,1.6,4,3.9c0,2.3-1.8,3.9-4,3.9c-2.2,0-4-1.6-4-3.9C534.5,211.4,536.3,209.8,538.5,209.8z
		 M538.5,216.3c1.4,0,2.5-1.1,2.5-2.7c0-1.5-1.1-2.6-2.5-2.6c-1.4,0-2.5,1.1-2.5,2.6C535.9,215.2,537.1,216.3,538.5,216.3z"/>
	<path class="st6" d="M544.5,211.2h-0.9v-1.1h0.9v-0.4c0-2.4,1.8-2.8,2.8-2.8c0.3,0,0.5,0,0.5,0v1.2c0,0-0.1,0-0.4,0
		c-0.5,0-1.6,0.2-1.6,1.6v0.3h1.8v1.1h-1.8v6.2h-1.4V211.2z"/>
	<path class="st6" d="M553.1,207.1h3.4c3.2,0,5.2,1.9,5.2,5.2c0,3.3-2.1,5.2-5.2,5.2h-3.4V207.1z M556.4,216.1
		c2.3,0,3.9-1.4,3.9-3.9c0-2.5-1.5-3.9-3.9-3.9h-1.9v7.8H556.4z"/>
	<path class="st6" d="M566.8,209.8c2.1,0,3.2,1.6,3.2,3.5c0,0.2,0,0.6,0,0.6h-5.4c0.1,1.6,1.2,2.4,2.5,2.4c1.3,0,2.2-0.9,2.2-0.9
		l0.6,1c0,0-1.1,1.1-2.9,1.1c-2.3,0-3.9-1.7-3.9-3.9C563.1,211.3,564.7,209.8,566.8,209.8z M568.6,212.8c0-1.3-0.8-1.9-1.8-1.9
		c-1.1,0-2,0.7-2.2,1.9H568.6z"/>
	<path class="st6" d="M575,209.8c2.1,0,3.2,1.6,3.2,3.5c0,0.2,0,0.6,0,0.6h-5.4c0.1,1.6,1.2,2.4,2.5,2.4c1.3,0,2.2-0.9,2.2-0.9
		l0.6,1c0,0-1.1,1.1-2.9,1.1c-2.3,0-3.9-1.7-3.9-3.9C571.3,211.3,572.9,209.8,575,209.8z M576.7,212.8c0-1.3-0.8-1.9-1.8-1.9
		c-1.1,0-2,0.7-2.2,1.9H576.7z"/>
	<path class="st6" d="M579.9,210h1.3v0.6c0,0.3,0,0.5,0,0.5h0c0,0,0.6-1.3,2.5-1.3c2,0,3.3,1.6,3.3,3.9c0,2.4-1.4,3.9-3.4,3.9
		c-1.6,0-2.3-1.2-2.3-1.2h0c0,0,0,0.3,0,0.6v3.3h-1.4V210z M583.4,216.4c1.2,0,2.1-1,2.1-2.7c0-1.6-0.9-2.6-2.1-2.6
		c-1.1,0-2.1,0.8-2.1,2.7C581.3,215,582,216.4,583.4,216.4z"/>
	<path class="st6" d="M429.3,228.7h12.9v2.7h-9.8v6.9h7.9v2.7h-7.9v7.1h10.3v2.7h-13.4V228.7z"/>
	<path class="st6" d="M452.7,239.4l-6.6-10.7h3.6l3.5,6c0.7,1.2,1.4,2.6,1.4,2.6h0.1c0,0,0.6-1.4,1.3-2.6l3.5-6h3.6l-6.6,10.7
		l7,11.4H460l-4-6.8c-0.7-1.3-1.4-2.5-1.4-2.5h-0.1c0,0-0.6,1.3-1.3,2.5l-4,6.8h-3.5L452.7,239.4z"/>
	<path class="st6" d="M468,228.7h8.1c4,0,7,2.7,7,6.9c0,4.2-2.9,7-7,7h-5v8.2H468V228.7z M475.6,240c2.7,0,4.3-1.7,4.3-4.3
		c0-2.7-1.6-4.2-4.3-4.2h-4.5v8.6H475.6z"/>
	<path class="st6" d="M487.8,228.7h12.9v2.7h-9.8v6.9h7.9v2.7h-7.9v7.1h10.3v2.7h-13.4V228.7z"/>
	<path class="st6" d="M506.6,228.7h6.8c2.3,0,3.3,0.2,4.1,0.5c2.3,0.8,3.7,3.1,3.7,6c0,2.8-1.6,5.2-4,6v0.1c0,0,0.3,0.3,0.7,1
		l4.7,8.6h-3.5l-4.7-8.8h-4.7v8.8h-3.1V228.7z M514.1,239.3c2.4,0,3.9-1.5,3.9-4c0-1.6-0.6-2.8-1.8-3.4c-0.6-0.3-1.3-0.5-3-0.5h-3.6
		v7.9H514.1z"/>
	<path class="st6" d="M532.2,231.4h-7.6v-2.7h18.3v2.7h-7.6v19.4h-3.1V231.4z"/>
	<path class="st6" d="M546.9,228.7h3.1v22.1h-3.1V228.7z"/>
	<path class="st6" d="M556.8,246c0,0,2.4,2.4,5.6,2.4c2.1,0,3.8-1.2,3.8-3.3c0-4.8-10.7-3.8-10.7-10.6c0-3.5,3-6.2,7.2-6.2
		c4.1,0,6.3,2.2,6.3,2.2l-1.4,2.6c0,0-2-1.9-4.9-1.9c-2.4,0-4,1.5-4,3.2c0,4.6,10.7,3.4,10.7,10.5c0,3.4-2.6,6.2-7,6.2
		c-4.7,0-7.3-2.9-7.3-2.9L556.8,246z"/>
	<path class="st6" d="M574.7,228.7h12.9v2.7h-9.8v6.9h7.9v2.7h-7.9v7.1h10.3v2.7h-13.4V228.7z"/>
</g>
<g>
	<path class="st6" d="M474.8,447.3h0.3v-0.1c0-1.2-0.7-1.6-1.6-1.6c-1.1,0-2.1,0.7-2.1,0.7l-0.6-1c0,0,1.1-0.9,2.8-0.9
		c1.9,0,2.9,1,2.9,2.9v4.7h-1.3v-0.7c0-0.3,0-0.6,0-0.6h0c0,0-0.6,1.5-2.4,1.5c-1.3,0-2.5-0.8-2.5-2.3
		C470.3,447.4,473.5,447.3,474.8,447.3z M473.1,451c1.2,0,2-1.3,2-2.4v-0.2h-0.4c-1.1,0-3,0.1-3,1.4
		C471.7,450.4,472.2,451,473.1,451z"/>
	<path class="st6" d="M478.6,444.5h1.4v1c0,0.3,0,0.5,0,0.5h0c0.3-0.6,1.2-1.7,2.8-1.7c1.7,0,2.5,1,2.5,2.8v4.7h-1.4v-4.4
		c0-1-0.2-1.9-1.4-1.9c-1.1,0-2,0.7-2.3,1.8c-0.1,0.3-0.1,0.6-0.1,1v3.5h-1.4V444.5z"/>
	<path class="st6" d="M490.3,444.4c1.7,0,2.3,1.2,2.3,1.2h0c0,0,0-0.2,0-0.5v-3.4h1.4v10.3h-1.3v-0.7c0-0.3,0-0.5,0-0.5h0
		c0,0-0.6,1.4-2.4,1.4c-2,0-3.3-1.6-3.3-3.9C487,445.9,488.4,444.4,490.3,444.4z M490.5,450.9c1.1,0,2.1-0.8,2.1-2.7
		c0-1.3-0.7-2.6-2.1-2.6c-1.2,0-2.1,1-2.1,2.7C488.4,449.8,489.3,450.9,490.5,450.9z"/>
	<path class="st6" d="M500.3,441.6h3.2c1.1,0,1.5,0.1,1.9,0.2c1.1,0.4,1.7,1.4,1.7,2.8c0,1.3-0.7,2.4-1.9,2.8v0c0,0,0.1,0.1,0.3,0.5
		l2.2,4h-1.6l-2.2-4.1h-2.2v4.1h-1.4V441.6z M503.8,446.6c1.1,0,1.8-0.7,1.8-1.9c0-0.8-0.3-1.3-0.8-1.6c-0.3-0.1-0.6-0.2-1.4-0.2
		h-1.7v3.7H503.8z"/>
	<path class="st6" d="M512.9,444.4c2.2,0,4,1.6,4,3.9c0,2.3-1.8,3.9-4,3.9c-2.2,0-4-1.6-4-3.9C508.9,446,510.7,444.4,512.9,444.4z
		 M512.9,450.9c1.4,0,2.5-1.1,2.5-2.7c0-1.5-1.1-2.6-2.5-2.6c-1.4,0-2.5,1.1-2.5,2.6C510.3,449.8,511.5,450.9,512.9,450.9z"/>
	<path class="st6" d="M518.5,441.6h1.4v3.4c0,0.4,0,0.6,0,0.6h0c0,0,0.6-1.3,2.4-1.3c2,0,3.3,1.6,3.3,3.9c0,2.4-1.4,3.9-3.4,3.9
		c-1.7,0-2.3-1.3-2.3-1.3h0c0,0,0,0.2,0,0.6v0.5h-1.3V441.6z M522,450.9c1.2,0,2.1-1,2.1-2.7c0-1.6-0.9-2.7-2.1-2.7
		c-1.1,0-2.1,0.8-2.1,2.7C519.9,449.6,520.6,450.9,522,450.9z"/>
	<path class="st6" d="M527.2,444.5h1.4v4.4c0,1,0.2,1.8,1.4,1.8c1.5,0,2.4-1.3,2.4-2.8v-3.5h1.4v7.4h-1.4v-1c0-0.3,0-0.5,0-0.5h0
		c-0.3,0.7-1.3,1.7-2.7,1.7c-1.7,0-2.5-0.9-2.5-2.8V444.5z"/>
	<path class="st6" d="M536.2,450c0,0,0.8,0.9,2.1,0.9c0.6,0,1.2-0.3,1.2-0.9c0-1.4-3.8-1.1-3.8-3.5c0-1.3,1.2-2.1,2.7-2.1
		c1.6,0,2.4,0.8,2.4,0.8l-0.6,1.1c0,0-0.7-0.7-1.8-0.7c-0.6,0-1.2,0.3-1.2,0.9c0,1.3,3.8,1,3.8,3.5c0,1.2-1.1,2.2-2.7,2.2
		c-1.8,0-2.8-1.1-2.8-1.1L536.2,450z"/>
	<path class="st6" d="M542.9,445.8h-1v-1.1h1v-2.1h1.4v2.1h1.8v1.1h-1.8v3.3c0,1.5,1,1.7,1.6,1.7c0.2,0,0.3,0,0.3,0v1.3
		c0,0-0.2,0-0.5,0c-1,0-2.8-0.3-2.8-2.8V445.8z"/>
	<path class="st6" d="M417.7,479h-8.3l-2.2,6.4H404l8-22.1h3.3l8,22.1h-3.2L417.7,479z M413.5,466.3c0,0-0.5,2-0.9,3.1l-2.5,7h6.7
		l-2.4-7C414.1,468.3,413.6,466.3,413.5,466.3L413.5,466.3z"/>
	<path class="st6" d="M425.9,463.3h3.1v14.3c0,3.4,2.2,5.4,5.6,5.4c3.4,0,5.6-2,5.6-5.4v-14.2h3.1v14.3c0,4.9-3.5,8.2-8.7,8.2
		c-5.2,0-8.7-3.3-8.7-8.2V463.3z"/>
	<path class="st6" d="M453.8,465.9h-7.6v-2.7h18.3v2.7h-7.6v19.4h-3.1V465.9z"/>
	<path class="st6" d="M477.2,462.9c6.4,0,11.4,4.9,11.4,11.3c0,6.5-5,11.6-11.4,11.6c-6.4,0-11.4-5.1-11.4-11.6
		C465.8,467.8,470.8,462.9,477.2,462.9z M477.2,482.9c4.5,0,8.2-3.8,8.2-8.8c0-4.8-3.6-8.5-8.2-8.5c-4.5,0-8.2,3.6-8.2,8.5
		C469,479.2,472.7,482.9,477.2,482.9z"/>
	<path class="st6" d="M494.2,463.3h3.3l5.1,12c0.5,1.2,1.1,3,1.1,3h0.1c0,0,0.6-1.8,1.1-3l5.1-12h3.3l1.8,22.1h-3.1l-1.1-14
		c-0.1-1.3,0-3.3,0-3.3h-0.1c0,0-0.7,2-1.2,3.3l-4.4,10h-2.8l-4.4-10c-0.5-1.2-1.2-3.3-1.2-3.3h-0.1c0,0,0,2-0.1,3.3l-1.1,14h-3.1
		L494.2,463.3z"/>
	<path class="st6" d="M531.2,479h-8.3l-2.2,6.4h-3.2l8-22.1h3.3l8,22.1h-3.2L531.2,479z M527.1,466.3c0,0-0.5,2-0.9,3.1l-2.5,7h6.7
		l-2.4-7C527.6,468.3,527.1,466.3,527.1,466.3L527.1,466.3z"/>
	<path class="st6" d="M543.4,465.9h-7.6v-2.7H554v2.7h-7.6v19.4h-3.1V465.9z"/>
	<path class="st6" d="M557.2,463.3h3.1v22.1h-3.1V463.3z"/>
	<path class="st6" d="M576.2,462.9c6.4,0,11.4,4.9,11.4,11.3c0,6.5-5,11.6-11.4,11.6c-6.4,0-11.4-5.1-11.4-11.6
		C564.8,467.8,569.8,462.9,576.2,462.9z M576.2,482.9c4.5,0,8.2-3.8,8.2-8.8c0-4.8-3.6-8.5-8.2-8.5c-4.5,0-8.2,3.6-8.2,8.5
		C568,479.2,571.7,482.9,576.2,482.9z"/>
	<path class="st6" d="M592.1,463.3h3.1l9.8,14.4c0.8,1.2,1.9,3.2,1.9,3.2h0.1c0,0-0.2-2-0.2-3.2v-14.4h3.1v22.1h-3l-9.9-14.4
		c-0.8-1.2-1.9-3.2-1.9-3.2H595c0,0,0.2,2,0.2,3.2v14.4h-3.1V463.3z"/>
</g>
</svg>
